STARTFONT 2.1
COMMENT 
COMMENT Copyright (C) 2012-2015 Uwe Waldmann
COMMENT 
COMMENT Permission is hereby granted, free of charge, to any person obtaining
COMMENT a copy of this font software and associated files (the "Software"),
COMMENT to deal in the Software without restriction, including without
COMMENT limitation the rights to use, copy, modify, merge, publish,
COMMENT distribute, embed, sublicense, and/or sell copies of the Software,
COMMENT and to permit persons to whom the Software is furnished to do so,
COMMENT subject to the following conditions:
COMMENT 
COMMENT (1) The above copyright notice, this permission notice, and the
COMMENT     disclaimer below shall be included in all copies or substantial
COMMENT     portions of the Software.
COMMENT 
COMMENT (2) If the design of any glyphs in the fonts that are contained in the
COMMENT     Software or generated during the installation process is modified
COMMENT     or if additional glyphs are added to the fonts, the fonts
COMMENT     must be renamed. The new names may not contain the word "UW",
COMMENT     irrespective of capitalisation; the new names may contain the word
COMMENT     "ttyp0", irrespective of capitalisation, only if preceded by a
COMMENT     foundry name different from "UW".
COMMENT 
COMMENT THE SOFTWARE IS PROVIDED "AS IS", WITHOUT WARRANTY OF ANY KIND, EXPRESS
COMMENT OR IMPLIED, INCLUDING BUT NOT LIMITED TO THE WARRANTIES OF
COMMENT MERCHANTABILITY, FITNESS FOR A PARTICULAR PURPOSE AND NONINFRINGEMENT.
COMMENT IN NO EVENT SHALL THE AUTHORS OR COPYRIGHT HOLDERS BE LIABLE FOR ANY
COMMENT CLAIM, DAMAGES OR OTHER LIABILITY, WHETHER IN AN ACTION OF CONTRACT,
COMMENT TORT OR OTHERWISE, ARISING FROM, OUT OF OR IN CONNECTION WITH THE
COMMENT SOFTWARE OR THE USE OR OTHER DEALINGS IN THE SOFTWARE.
COMMENT 
FONT -UW-Ttyp0-Bold-R-Normal--13-120-75-75-C-70-ISO10646-1
SIZE 13 75 75
FONTBOUNDINGBOX 7 13 0 -2
STARTPROPERTIES 19
FONTNAME_REGISTRY ""
FOUNDRY "UW"
FAMILY_NAME "Ttyp0"
WEIGHT_NAME "Bold"

STARTCHAR DDefaultChar
ENCODING 0
SWIDTH 840 0
DWIDTH 7 0
BBX 7 13 0 -2
BITMAP
00
00
7e
00
66
00
66
00
66
00
7e
00
00
ENDCHAR
STARTCHAR Space
ENCODING 32
SWIDTH 840 0
DWIDTH 7 0
BBX 7 13 0 -2
BITMAP
00
00
00
00
00
00
00
00
00
00
00
00
00
ENDCHAR
STARTCHAR PExclam
ENCODING 33
SWIDTH 840 0
DWIDTH 7 0
BBX 7 13 0 -2
BITMAP
00
18
18
18
18
18
18
18
00
18
18
00
00
ENDCHAR
STARTCHAR PQuote2Ascii
ENCODING 34
SWIDTH 840 0
DWIDTH 7 0
BBX 7 13 0 -2
BITMAP
00
6c
6c
6c
00
00
00
00
00
00
00
00
00
ENDCHAR
STARTCHAR SNumberSign
ENCODING 35
SWIDTH 840 0
DWIDTH 7 0
BBX 7 13 0 -2
BITMAP
00
00
24
24
7e
7e
24
7e
7e
24
24
00
00
ENDCHAR
STARTCHAR CurrDollar
ENCODING 36
SWIDTH 840 0
DWIDTH 7 0
BBX 7 13 0 -2
BITMAP
00
08
08
3e
6a
68
38
1c
16
56
7c
10
10
ENDCHAR
STARTCHAR SPercent
ENCODING 37
SWIDTH 840 0
DWIDTH 7 0
BBX 7 13 0 -2
BITMAP
00
00
22
76
54
78
34
1e
2a
6e
44
00
00
ENDCHAR
STARTCHAR SAmpersand
ENCODING 38
SWIDTH 840 0
DWIDTH 7 0
BBX 7 13 0 -2
BITMAP
00
00
18
34
34
18
3a
6a
6c
6c
36
00
00
ENDCHAR
STARTCHAR PApostropheAscii
ENCODING 39
SWIDTH 840 0
DWIDTH 7 0
BBX 7 13 0 -2
BITMAP
00
18
18
30
20
00
00
00
00
00
00
00
00
ENDCHAR
STARTCHAR PParenL
ENCODING 40
SWIDTH 840 0
DWIDTH 7 0
BBX 7 13 0 -2
BITMAP
0c
18
18
30
30
30
30
30
30
18
18
0c
00
ENDCHAR
STARTCHAR PParenR
ENCODING 41
SWIDTH 840 0
DWIDTH 7 0
BBX 7 13 0 -2
BITMAP
30
18
18
0c
0c
0c
0c
0c
0c
18
18
30
00
ENDCHAR
STARTCHAR SAsterisk
ENCODING 42
SWIDTH 840 0
DWIDTH 7 0
BBX 7 13 0 -2
BITMAP
00
00
00
08
6a
3e
18
7c
56
10
00
00
00
ENDCHAR
STARTCHAR MPlus
ENCODING 43
SWIDTH 840 0
DWIDTH 7 0
BBX 7 13 0 -2
BITMAP
00
00
00
00
18
18
7e
7e
18
18
00
00
00
ENDCHAR
STARTCHAR PComma
ENCODING 44
SWIDTH 840 0
DWIDTH 7 0
BBX 7 13 0 -2
BITMAP
00
00
00
00
00
00
00
00
00
18
18
30
20
ENDCHAR
STARTCHAR PHyphenMinus
ENCODING 45
SWIDTH 840 0
DWIDTH 7 0
BBX 7 13 0 -2
BITMAP
00
00
00
00
00
00
7e
7e
00
00
00
00
00
ENDCHAR
STARTCHAR PFullStop
ENCODING 46
SWIDTH 840 0
DWIDTH 7 0
BBX 7 13 0 -2
BITMAP
00
00
00
00
00
00
00
00
00
18
18
00
00
ENDCHAR
STARTCHAR PSolidus
ENCODING 47
SWIDTH 840 0
DWIDTH 7 0
BBX 7 13 0 -2
BITMAP
06
06
0c
0c
0c
18
18
30
30
30
60
60
00
ENDCHAR
STARTCHAR Digit0
ENCODING 48
SWIDTH 840 0
DWIDTH 7 0
BBX 7 13 0 -2
BITMAP
00
00
3c
66
66
6e
7e
76
66
66
3c
00
00
ENDCHAR
STARTCHAR Digit1
ENCODING 49
SWIDTH 840 0
DWIDTH 7 0
BBX 7 13 0 -2
BITMAP
00
00
0c
1c
3c
2c
0c
0c
0c
0c
0c
00
00
ENDCHAR
STARTCHAR Digit2
ENCODING 50
SWIDTH 840 0
DWIDTH 7 0
BBX 7 13 0 -2
BITMAP
00
00
3c
66
66
06
0c
18
22
7e
7e
00
00
ENDCHAR
STARTCHAR Digit3
ENCODING 51
SWIDTH 840 0
DWIDTH 7 0
BBX 7 13 0 -2
BITMAP
00
00
3c
66
66
06
1c
06
66
66
3c
00
00
ENDCHAR
STARTCHAR Digit4
ENCODING 52
SWIDTH 840 0
DWIDTH 7 0
BBX 7 13 0 -2
BITMAP
00
00
0c
1c
1c
2c
2c
4c
7e
0c
0c
00
00
ENDCHAR
STARTCHAR Digit5
ENCODING 53
SWIDTH 840 0
DWIDTH 7 0
BBX 7 13 0 -2
BITMAP
00
00
3c
3c
20
3c
26
06
66
66
3c
00
00
ENDCHAR
STARTCHAR Digit6
ENCODING 54
SWIDTH 840 0
DWIDTH 7 0
BBX 7 13 0 -2
BITMAP
00
00
1c
30
60
60
7c
66
66
66
3c
00
00
ENDCHAR
STARTCHAR Digit7
ENCODING 55
SWIDTH 840 0
DWIDTH 7 0
BBX 7 13 0 -2
BITMAP
00
00
7e
7e
44
0c
18
18
30
30
30
00
00
ENDCHAR
STARTCHAR Digit8
ENCODING 56
SWIDTH 840 0
DWIDTH 7 0
BBX 7 13 0 -2
BITMAP
00
00
3c
66
66
34
3c
2e
66
66
3c
00
00
ENDCHAR
STARTCHAR Digit9
ENCODING 57
SWIDTH 840 0
DWIDTH 7 0
BBX 7 13 0 -2
BITMAP
00
00
3c
66
66
66
3e
06
06
0c
38
00
00
ENDCHAR
STARTCHAR PColon
ENCODING 58
SWIDTH 840 0
DWIDTH 7 0
BBX 7 13 0 -2
BITMAP
00
00
00
00
00
18
18
00
00
18
18
00
00
ENDCHAR
STARTCHAR PSemicolon
ENCODING 59
SWIDTH 840 0
DWIDTH 7 0
BBX 7 13 0 -2
BITMAP
00
00
00
00
00
18
18
00
00
18
18
30
20
ENDCHAR
STARTCHAR MLess
ENCODING 60
SWIDTH 840 0
DWIDTH 7 0
BBX 7 13 0 -2
BITMAP
00
00
06
0c
18
30
60
30
18
0c
06
00
00
ENDCHAR
STARTCHAR MEqual
ENCODING 61
SWIDTH 840 0
DWIDTH 7 0
BBX 7 13 0 -2
BITMAP
00
00
00
00
7e
7e
00
7e
7e
00
00
00
00
ENDCHAR
STARTCHAR MGreater
ENCODING 62
SWIDTH 840 0
DWIDTH 7 0
BBX 7 13 0 -2
BITMAP
00
00
60
30
18
0c
06
0c
18
30
60
00
00
ENDCHAR
STARTCHAR PQuestion
ENCODING 63
SWIDTH 840 0
DWIDTH 7 0
BBX 7 13 0 -2
BITMAP
00
3c
66
66
06
0c
18
18
00
18
18
00
00
ENDCHAR
STARTCHAR SCommercialAt
ENCODING 64
SWIDTH 840 0
DWIDTH 7 0
BBX 7 13 0 -2
BITMAP
00
00
1c
36
6a
5e
52
5e
6e
30
1e
00
00
ENDCHAR
STARTCHAR LtCapA
ENCODING 65
SWIDTH 840 0
DWIDTH 7 0
BBX 7 13 0 -2
BITMAP
00
00
18
18
18
3c
2c
2c
7e
46
46
00
00
ENDCHAR
STARTCHAR LtCapB
ENCODING 66
SWIDTH 840 0
DWIDTH 7 0
BBX 7 13 0 -2
BITMAP
00
00
7c
66
66
64
7c
66
66
66
7c
00
00
ENDCHAR
STARTCHAR LtCapC
ENCODING 67
SWIDTH 840 0
DWIDTH 7 0
BBX 7 13 0 -2
BITMAP
00
00
1c
36
60
60
60
60
60
36
1c
00
00
ENDCHAR
STARTCHAR LtCapD
ENCODING 68
SWIDTH 840 0
DWIDTH 7 0
BBX 7 13 0 -2
BITMAP
00
00
78
64
66
66
66
66
66
64
78
00
00
ENDCHAR
STARTCHAR LtCapE
ENCODING 69
SWIDTH 840 0
DWIDTH 7 0
BBX 7 13 0 -2
BITMAP
00
00
7e
62
60
64
7c
64
60
62
7e
00
00
ENDCHAR
STARTCHAR LtCapF
ENCODING 70
SWIDTH 840 0
DWIDTH 7 0
BBX 7 13 0 -2
BITMAP
00
00
7e
62
60
64
7c
64
60
60
60
00
00
ENDCHAR
STARTCHAR LtCapG
ENCODING 71
SWIDTH 840 0
DWIDTH 7 0
BBX 7 13 0 -2
BITMAP
00
00
1c
36
60
60
6e
66
66
36
1e
00
00
ENDCHAR
STARTCHAR LtCapH
ENCODING 72
SWIDTH 840 0
DWIDTH 7 0
BBX 7 13 0 -2
BITMAP
00
00
66
66
66
66
7e
66
66
66
66
00
00
ENDCHAR
STARTCHAR LtCapI
ENCODING 73
SWIDTH 840 0
DWIDTH 7 0
BBX 7 13 0 -2
BITMAP
00
00
7e
18
18
18
18
18
18
18
7e
00
00
ENDCHAR
STARTCHAR LtCapJ
ENCODING 74
SWIDTH 840 0
DWIDTH 7 0
BBX 7 13 0 -2
BITMAP
00
00
1e
0c
0c
0c
0c
0c
6c
6c
38
00
00
ENDCHAR
STARTCHAR LtCapK
ENCODING 75
SWIDTH 840 0
DWIDTH 7 0
BBX 7 13 0 -2
BITMAP
00
00
66
64
68
78
78
6c
6c
66
66
00
00
ENDCHAR
STARTCHAR LtCapL
ENCODING 76
SWIDTH 840 0
DWIDTH 7 0
BBX 7 13 0 -2
BITMAP
00
00
60
60
60
60
60
60
60
62
7e
00
00
ENDCHAR
STARTCHAR LtCapM
ENCODING 77
SWIDTH 840 0
DWIDTH 7 0
BBX 7 13 0 -2
BITMAP
00
00
42
66
7e
7e
56
56
46
46
46
00
00
ENDCHAR
STARTCHAR LtCapN
ENCODING 78
SWIDTH 840 0
DWIDTH 7 0
BBX 7 13 0 -2
BITMAP
00
00
62
72
72
5a
5a
4e
4e
46
46
00
00
ENDCHAR
STARTCHAR LtCapO
ENCODING 79
SWIDTH 840 0
DWIDTH 7 0
BBX 7 13 0 -2
BITMAP
00
00
3c
66
66
66
66
66
66
66
3c
00
00
ENDCHAR
STARTCHAR LtCapP
ENCODING 80
SWIDTH 840 0
DWIDTH 7 0
BBX 7 13 0 -2
BITMAP
00
00
7c
66
66
66
7c
60
60
60
60
00
00
ENDCHAR
STARTCHAR LtCapQ
ENCODING 81
SWIDTH 840 0
DWIDTH 7 0
BBX 7 13 0 -2
BITMAP
00
00
3c
66
66
66
66
66
76
6e
3c
06
02
ENDCHAR
STARTCHAR LtCapR
ENCODING 82
SWIDTH 840 0
DWIDTH 7 0
BBX 7 13 0 -2
BITMAP
00
00
7c
66
66
66
7c
68
6c
66
66
00
00
ENDCHAR
STARTCHAR LtCapS
ENCODING 83
SWIDTH 840 0
DWIDTH 7 0
BBX 7 13 0 -2
BITMAP
00
00
3c
66
60
70
3c
0e
06
66
3c
00
00
ENDCHAR
STARTCHAR LtCapT
ENCODING 84
SWIDTH 840 0
DWIDTH 7 0
BBX 7 13 0 -2
BITMAP
00
00
7e
5a
18
18
18
18
18
18
18
00
00
ENDCHAR
STARTCHAR LtCapU
ENCODING 85
SWIDTH 840 0
DWIDTH 7 0
BBX 7 13 0 -2
BITMAP
00
00
66
66
66
66
66
66
66
66
3c
00
00
ENDCHAR
STARTCHAR LtCapV
ENCODING 86
SWIDTH 840 0
DWIDTH 7 0
BBX 7 13 0 -2
BITMAP
00
00
62
62
36
34
34
1c
18
18
08
00
00
ENDCHAR
STARTCHAR LtCapW
ENCODING 87
SWIDTH 840 0
DWIDTH 7 0
BBX 7 13 0 -2
BITMAP
00
00
62
62
62
6a
6a
7e
3c
34
34
00
00
ENDCHAR
STARTCHAR LtCapX
ENCODING 88
SWIDTH 840 0
DWIDTH 7 0
BBX 7 13 0 -2
BITMAP
00
00
66
66
34
38
18
1c
2c
66
66
00
00
ENDCHAR
STARTCHAR LtCapY
ENCODING 89
SWIDTH 840 0
DWIDTH 7 0
BBX 7 13 0 -2
BITMAP
00
00
66
66
34
38
18
18
18
18
18
00
00
ENDCHAR
STARTCHAR LtCapZ
ENCODING 90
SWIDTH 840 0
DWIDTH 7 0
BBX 7 13 0 -2
BITMAP
00
00
7e
46
0c
0c
18
30
30
62
7e
00
00
ENDCHAR
STARTCHAR PSquareBrackL
ENCODING 91
SWIDTH 840 0
DWIDTH 7 0
BBX 7 13 0 -2
BITMAP
7c
60
60
60
60
60
60
60
60
60
60
7c
00
ENDCHAR
STARTCHAR PRevSolidus
ENCODING 92
SWIDTH 840 0
DWIDTH 7 0
BBX 7 13 0 -2
BITMAP
60
60
30
30
30
18
18
0c
0c
0c
06
06
00
ENDCHAR
STARTCHAR PSquareBrackR
ENCODING 93
SWIDTH 840 0
DWIDTH 7 0
BBX 7 13 0 -2
BITMAP
7c
0c
0c
0c
0c
0c
0c
0c
0c
0c
0c
7c
00
ENDCHAR
STARTCHAR AccCircumAscii
ENCODING 94
SWIDTH 840 0
DWIDTH 7 0
BBX 7 13 0 -2
BITMAP
00
00
18
3c
66
00
00
00
00
00
00
00
00
ENDCHAR
STARTCHAR OLowline
ENCODING 95
SWIDTH 840 0
DWIDTH 7 0
BBX 7 13 0 -2
BITMAP
00
00
00
00
00
00
00
00
00
00
7e
7e
00
ENDCHAR
STARTCHAR AccGraveAscii
ENCODING 96
SWIDTH 840 0
DWIDTH 7 0
BBX 7 13 0 -2
BITMAP
00
30
30
18
08
00
00
00
00
00
00
00
00
ENDCHAR
STARTCHAR LtSmlA
ENCODING 97
SWIDTH 840 0
DWIDTH 7 0
BBX 7 13 0 -2
BITMAP
00
00
00
00
3c
36
06
3e
66
66
3e
00
00
ENDCHAR
STARTCHAR LtSmlB
ENCODING 98
SWIDTH 840 0
DWIDTH 7 0
BBX 7 13 0 -2
BITMAP
00
60
60
60
6c
76
66
66
66
76
6c
00
00
ENDCHAR
STARTCHAR LtSmlC
ENCODING 99
SWIDTH 840 0
DWIDTH 7 0
BBX 7 13 0 -2
BITMAP
00
00
00
00
3c
66
60
60
60
66
3c
00
00
ENDCHAR
STARTCHAR LtSmlD
ENCODING 100
SWIDTH 840 0
DWIDTH 7 0
BBX 7 13 0 -2
BITMAP
00
06
06
06
36
6e
66
66
66
6e
36
00
00
ENDCHAR
STARTCHAR LtSmlE
ENCODING 101
SWIDTH 840 0
DWIDTH 7 0
BBX 7 13 0 -2
BITMAP
00
00
00
00
3c
66
66
7e
60
66
3c
00
00
ENDCHAR
STARTCHAR LtSmlF
ENCODING 102
SWIDTH 840 0
DWIDTH 7 0
BBX 7 13 0 -2
BITMAP
00
0e
1a
18
18
7e
18
18
18
18
18
00
00
ENDCHAR
STARTCHAR LtSmlG
ENCODING 103
SWIDTH 840 0
DWIDTH 7 0
BBX 7 13 0 -2
BITMAP
00
00
00
00
3e
66
66
66
6e
36
06
66
3c
ENDCHAR
STARTCHAR LtSmlH
ENCODING 104
SWIDTH 840 0
DWIDTH 7 0
BBX 7 13 0 -2
BITMAP
00
60
60
60
6c
76
66
66
66
66
66
00
00
ENDCHAR
STARTCHAR LtSmlI
ENCODING 105
SWIDTH 840 0
DWIDTH 7 0
BBX 7 13 0 -2
BITMAP
00
18
18
00
38
18
18
18
18
18
7e
00
00
ENDCHAR
STARTCHAR LtSmlJ
ENCODING 106
SWIDTH 840 0
DWIDTH 7 0
BBX 7 13 0 -2
BITMAP
00
0c
0c
00
3c
0c
0c
0c
0c
0c
0c
6c
38
ENDCHAR
STARTCHAR LtSmlK
ENCODING 107
SWIDTH 840 0
DWIDTH 7 0
BBX 7 13 0 -2
BITMAP
00
60
60
60
66
64
68
78
6c
66
66
00
00
ENDCHAR
STARTCHAR LtSmlL
ENCODING 108
SWIDTH 840 0
DWIDTH 7 0
BBX 7 13 0 -2
BITMAP
00
38
18
18
18
18
18
18
18
18
7e
00
00
ENDCHAR
STARTCHAR LtSmlM
ENCODING 109
SWIDTH 840 0
DWIDTH 7 0
BBX 7 13 0 -2
BITMAP
00
00
00
00
6c
7e
7e
6a
6a
6a
6a
00
00
ENDCHAR
STARTCHAR LtSmlN
ENCODING 110
SWIDTH 840 0
DWIDTH 7 0
BBX 7 13 0 -2
BITMAP
00
00
00
00
6c
76
66
66
66
66
66
00
00
ENDCHAR
STARTCHAR LtSmlO
ENCODING 111
SWIDTH 840 0
DWIDTH 7 0
BBX 7 13 0 -2
BITMAP
00
00
00
00
3c
66
66
66
66
66
3c
00
00
ENDCHAR
STARTCHAR LtSmlP
ENCODING 112
SWIDTH 840 0
DWIDTH 7 0
BBX 7 13 0 -2
BITMAP
00
00
00
00
6c
76
66
66
66
76
6c
60
60
ENDCHAR
STARTCHAR LtSmlQ
ENCODING 113
SWIDTH 840 0
DWIDTH 7 0
BBX 7 13 0 -2
BITMAP
00
00
00
00
36
6e
66
66
66
6e
36
06
06
ENDCHAR
STARTCHAR LtSmlR
ENCODING 114
SWIDTH 840 0
DWIDTH 7 0
BBX 7 13 0 -2
BITMAP
00
00
00
00
76
3e
30
30
30
30
30
00
00
ENDCHAR
STARTCHAR LtSmlS
ENCODING 115
SWIDTH 840 0
DWIDTH 7 0
BBX 7 13 0 -2
BITMAP
00
00
00
00
3c
66
60
3c
06
66
3c
00
00
ENDCHAR
STARTCHAR LtSmlT
ENCODING 116
SWIDTH 840 0
DWIDTH 7 0
BBX 7 13 0 -2
BITMAP
00
00
30
30
7c
30
30
30
30
36
1c
00
00
ENDCHAR
STARTCHAR LtSmlU
ENCODING 117
SWIDTH 840 0
DWIDTH 7 0
BBX 7 13 0 -2
BITMAP
00
00
00
00
66
66
66
66
66
6e
36
00
00
ENDCHAR
STARTCHAR LtSmlV
ENCODING 118
SWIDTH 840 0
DWIDTH 7 0
BBX 7 13 0 -2
BITMAP
00
00
00
00
62
62
36
34
1c
18
08
00
00
ENDCHAR
STARTCHAR LtSmlW
ENCODING 119
SWIDTH 840 0
DWIDTH 7 0
BBX 7 13 0 -2
BITMAP
00
00
00
00
62
6a
6a
6a
7e
34
34
00
00
ENDCHAR
STARTCHAR LtSmlX
ENCODING 120
SWIDTH 840 0
DWIDTH 7 0
BBX 7 13 0 -2
BITMAP
00
00
00
00
66
64
38
18
1c
26
66
00
00
ENDCHAR
STARTCHAR LtSmlY
ENCODING 121
SWIDTH 840 0
DWIDTH 7 0
BBX 7 13 0 -2
BITMAP
00
00
00
00
62
62
34
34
1c
18
08
58
70
ENDCHAR
STARTCHAR LtSmlZ
ENCODING 122
SWIDTH 840 0
DWIDTH 7 0
BBX 7 13 0 -2
BITMAP
00
00
00
00
7e
4e
0c
18
30
72
7e
00
00
ENDCHAR
STARTCHAR PCurlyBrackL
ENCODING 123
SWIDTH 840 0
DWIDTH 7 0
BBX 7 13 0 -2
BITMAP
0e
18
18
18
18
70
70
18
18
18
18
0e
00
ENDCHAR
STARTCHAR OVertBar
ENCODING 124
SWIDTH 840 0
DWIDTH 7 0
BBX 7 13 0 -2
BITMAP
18
18
18
18
18
18
18
18
18
18
18
18
00
ENDCHAR
STARTCHAR PCurlyBrackR
ENCODING 125
SWIDTH 840 0
DWIDTH 7 0
BBX 7 13 0 -2
BITMAP
70
18
18
18
18
0e
0e
18
18
18
18
70
00
ENDCHAR
STARTCHAR AccTildeAscii
ENCODING 126
SWIDTH 840 0
DWIDTH 7 0
BBX 7 13 0 -2
BITMAP
00
32
7a
5e
4c
00
00
00
00
00
00
00
00
ENDCHAR
STARTCHAR SpaceNoBreak
ENCODING 160
SWIDTH 840 0
DWIDTH 7 0
BBX 7 13 0 -2
BITMAP
00
00
00
00
00
00
00
00
00
00
00
00
00
ENDCHAR
STARTCHAR PExclamInv
ENCODING 161
SWIDTH 840 0
DWIDTH 7 0
BBX 7 13 0 -2
BITMAP
00
00
00
18
18
00
18
18
18
18
18
18
18
ENDCHAR
STARTCHAR CurrCent
ENCODING 162
SWIDTH 840 0
DWIDTH 7 0
BBX 7 13 0 -2
BITMAP
00
00
00
02
3c
66
68
68
70
76
3c
20
00
ENDCHAR
STARTCHAR CurrPound
ENCODING 163
SWIDTH 840 0
DWIDTH 7 0
BBX 7 13 0 -2
BITMAP
00
00
1c
36
36
30
78
30
22
7e
7e
00
00
ENDCHAR
STARTCHAR CurrGeneral
ENCODING 164
SWIDTH 840 0
DWIDTH 7 0
BBX 7 13 0 -2
BITMAP
00
00
00
00
66
7e
24
24
7e
66
00
00
00
ENDCHAR
STARTCHAR CurrYen
ENCODING 165
SWIDTH 840 0
DWIDTH 7 0
BBX 7 13 0 -2
BITMAP
00
00
66
66
66
3c
7e
18
7e
18
18
00
00
ENDCHAR
STARTCHAR OVertBarBroken
ENCODING 166
SWIDTH 840 0
DWIDTH 7 0
BBX 7 13 0 -2
BITMAP
18
18
18
18
18
00
00
18
18
18
18
18
00
ENDCHAR
STARTCHAR SParagraph
ENCODING 167
SWIDTH 840 0
DWIDTH 7 0
BBX 7 13 0 -2
BITMAP
00
00
38
6c
20
70
58
6c
34
1c
08
6c
38
ENDCHAR
STARTCHAR AccDrss
ENCODING 168
SWIDTH 840 0
DWIDTH 7 0
BBX 7 13 0 -2
BITMAP
00
6c
6c
00
00
00
00
00
00
00
00
00
00
ENDCHAR
STARTCHAR SCopyright
ENCODING 169
SWIDTH 840 0
DWIDTH 7 0
BBX 7 13 0 -2
BITMAP
00
00
38
44
9a
b2
a2
a2
b2
9a
44
38
00
ENDCHAR
STARTCHAR OrdFem
ENCODING 170
SWIDTH 840 0
DWIDTH 7 0
BBX 7 13 0 -2
BITMAP
00
38
0c
3c
6c
3c
00
7c
7c
00
00
00
00
ENDCHAR
STARTCHAR PQuoteAngle2L
ENCODING 171
SWIDTH 840 0
DWIDTH 7 0
BBX 7 13 0 -2
BITMAP
00
00
00
00
00
36
6c
6c
36
00
00
00
00
ENDCHAR
STARTCHAR MNot
ENCODING 172
SWIDTH 840 0
DWIDTH 7 0
BBX 7 13 0 -2
BITMAP
00
00
00
00
00
00
7e
7e
06
06
00
00
00
ENDCHAR
STARTCHAR PHyphenSoft
ENCODING 173
SWIDTH 840 0
DWIDTH 7 0
BBX 7 13 0 -2
BITMAP
00
00
00
00
00
00
3c
3c
00
00
00
00
00
ENDCHAR
STARTCHAR SRegistered
ENCODING 174
SWIDTH 840 0
DWIDTH 7 0
BBX 7 13 0 -2
BITMAP
00
00
38
44
b2
ba
aa
b2
ba
aa
44
38
00
ENDCHAR
STARTCHAR AccMacronLong
ENCODING 175
SWIDTH 840 0
DWIDTH 7 0
BBX 7 13 0 -2
BITMAP
00
7e
7e
00
00
00
00
00
00
00
00
00
00
ENDCHAR
STARTCHAR SDegree
ENCODING 176
SWIDTH 840 0
DWIDTH 7 0
BBX 7 13 0 -2
BITMAP
00
38
6c
6c
38
00
00
00
00
00
00
00
00
ENDCHAR
STARTCHAR MPlusMinus
ENCODING 177
SWIDTH 840 0
DWIDTH 7 0
BBX 7 13 0 -2
BITMAP
00
00
00
18
18
7e
7e
18
18
7e
7e
00
00
ENDCHAR
STARTCHAR Sup2
ENCODING 178
SWIDTH 840 0
DWIDTH 7 0
BBX 7 13 0 -2
BITMAP
38
6c
0c
18
20
7c
7c
00
00
00
00
00
00
ENDCHAR
STARTCHAR Sup3
ENCODING 179
SWIDTH 840 0
DWIDTH 7 0
BBX 7 13 0 -2
BITMAP
38
6c
0c
18
0c
6c
38
00
00
00
00
00
00
ENDCHAR
STARTCHAR AccAcute
ENCODING 180
SWIDTH 840 0
DWIDTH 7 0
BBX 7 13 0 -2
BITMAP
00
0c
18
30
20
00
00
00
00
00
00
00
00
ENDCHAR
STARTCHAR SMicro
ENCODING 181
SWIDTH 840 0
DWIDTH 7 0
BBX 7 13 0 -2
BITMAP
00
00
00
00
66
66
66
66
66
7e
6a
60
60
ENDCHAR
STARTCHAR SPilcrow
ENCODING 182
SWIDTH 840 0
DWIDTH 7 0
BBX 7 13 0 -2
BITMAP
00
00
3e
7e
56
76
36
16
16
16
16
00
00
ENDCHAR
STARTCHAR PMiddleDot
ENCODING 183
SWIDTH 840 0
DWIDTH 7 0
BBX 7 13 0 -2
BITMAP
00
00
00
00
00
00
18
18
00
00
00
00
00
ENDCHAR
STARTCHAR AccCedilla
ENCODING 184
SWIDTH 840 0
DWIDTH 7 0
BBX 7 13 0 -2
BITMAP
00
00
00
00
00
00
00
00
00
18
0c
0c
38
ENDCHAR
STARTCHAR Sup1
ENCODING 185
SWIDTH 840 0
DWIDTH 7 0
BBX 7 13 0 -2
BITMAP
18
38
18
18
18
18
18
00
00
00
00
00
00
ENDCHAR
STARTCHAR OrdMasc
ENCODING 186
SWIDTH 840 0
DWIDTH 7 0
BBX 7 13 0 -2
BITMAP
00
38
6c
6c
6c
38
00
7c
7c
00
00
00
00
ENDCHAR
STARTCHAR PQuoteAngle2R
ENCODING 187
SWIDTH 840 0
DWIDTH 7 0
BBX 7 13 0 -2
BITMAP
00
00
00
00
00
6c
36
36
6c
00
00
00
00
ENDCHAR
STARTCHAR Frac14
ENCODING 188
SWIDTH 840 0
DWIDTH 7 0
BBX 7 13 0 -2
BITMAP
30
70
30
30
32
3e
38
6c
1c
2c
2c
3e
0c
ENDCHAR
STARTCHAR Frac12
ENCODING 189
SWIDTH 840 0
DWIDTH 7 0
BBX 7 13 0 -2
BITMAP
30
70
30
30
36
3c
70
5c
36
06
18
3e
3e
ENDCHAR
STARTCHAR Frac34
ENCODING 190
SWIDTH 840 0
DWIDTH 7 0
BBX 7 13 0 -2
BITMAP
38
6c
18
0c
6e
3e
38
6c
1c
2c
2c
3e
0c
ENDCHAR
STARTCHAR PQuestionInv
ENCODING 191
SWIDTH 840 0
DWIDTH 7 0
BBX 7 13 0 -2
BITMAP
00
00
00
18
18
00
18
18
30
60
66
66
3c
ENDCHAR
STARTCHAR LtCapAGrave
ENCODING 192
SWIDTH 840 0
DWIDTH 7 0
BBX 7 13 0 -2
BITMAP
70
18
00
18
18
3c
2c
2c
7e
46
46
00
00
ENDCHAR
STARTCHAR LtCapAAcute
ENCODING 193
SWIDTH 840 0
DWIDTH 7 0
BBX 7 13 0 -2
BITMAP
0e
18
00
18
18
3c
2c
2c
7e
46
46
00
00
ENDCHAR
STARTCHAR LtCapACircum
ENCODING 194
SWIDTH 840 0
DWIDTH 7 0
BBX 7 13 0 -2
BITMAP
1c
36
00
18
18
3c
2c
2c
7e
46
46
00
00
ENDCHAR
STARTCHAR LtCapATilde
ENCODING 195
SWIDTH 840 0
DWIDTH 7 0
BBX 7 13 0 -2
BITMAP
36
5c
00
18
18
3c
2c
2c
7e
46
46
00
00
ENDCHAR
STARTCHAR LtCapADrss
ENCODING 196
SWIDTH 840 0
DWIDTH 7 0
BBX 7 13 0 -2
BITMAP
36
36
00
18
18
3c
2c
2c
7e
46
46
00
00
ENDCHAR
STARTCHAR LtCapARing
ENCODING 197
SWIDTH 840 0
DWIDTH 7 0
BBX 7 13 0 -2
BITMAP
18
34
18
18
18
3c
2c
2c
7e
46
46
00
00
ENDCHAR
STARTCHAR LtCapAE
ENCODING 198
SWIDTH 840 0
DWIDTH 7 0
BBX 7 13 0 -2
BITMAP
00
00
3e
38
38
58
5e
58
f8
98
9e
00
00
ENDCHAR
STARTCHAR LtCapCCedilla
ENCODING 199
SWIDTH 840 0
DWIDTH 7 0
BBX 7 13 0 -2
BITMAP
00
00
1c
36
60
60
60
60
60
36
1c
18
30
ENDCHAR
STARTCHAR LtCapEGrave
ENCODING 200
SWIDTH 840 0
DWIDTH 7 0
BBX 7 13 0 -2
BITMAP
70
18
00
7e
62
60
7c
64
60
62
7e
00
00
ENDCHAR
STARTCHAR LtCapEAcute
ENCODING 201
SWIDTH 840 0
DWIDTH 7 0
BBX 7 13 0 -2
BITMAP
0e
18
00
7e
62
60
7c
64
60
62
7e
00
00
ENDCHAR
STARTCHAR LtCapECircum
ENCODING 202
SWIDTH 840 0
DWIDTH 7 0
BBX 7 13 0 -2
BITMAP
1c
36
00
7e
62
60
7c
64
60
62
7e
00
00
ENDCHAR
STARTCHAR LtCapEDrss
ENCODING 203
SWIDTH 840 0
DWIDTH 7 0
BBX 7 13 0 -2
BITMAP
36
36
00
7e
62
60
7c
64
60
62
7e
00
00
ENDCHAR
STARTCHAR LtCapIGrave
ENCODING 204
SWIDTH 840 0
DWIDTH 7 0
BBX 7 13 0 -2
BITMAP
70
18
00
7e
18
18
18
18
18
18
7e
00
00
ENDCHAR
STARTCHAR LtCapIAcute
ENCODING 205
SWIDTH 840 0
DWIDTH 7 0
BBX 7 13 0 -2
BITMAP
0e
18
00
7e
18
18
18
18
18
18
7e
00
00
ENDCHAR
STARTCHAR LtCapICircum
ENCODING 206
SWIDTH 840 0
DWIDTH 7 0
BBX 7 13 0 -2
BITMAP
1c
36
00
7e
18
18
18
18
18
18
7e
00
00
ENDCHAR
STARTCHAR LtCapIDrss
ENCODING 207
SWIDTH 840 0
DWIDTH 7 0
BBX 7 13 0 -2
BITMAP
36
36
00
7e
18
18
18
18
18
18
7e
00
00
ENDCHAR
STARTCHAR LtCapEth
ENCODING 208
SWIDTH 840 0
DWIDTH 7 0
BBX 7 13 0 -2
BITMAP
00
00
78
64
66
66
f6
66
66
64
78
00
00
ENDCHAR
STARTCHAR LtCapNTilde
ENCODING 209
SWIDTH 840 0
DWIDTH 7 0
BBX 7 13 0 -2
BITMAP
36
5c
00
62
72
72
5a
5a
4e
4e
46
00
00
ENDCHAR
STARTCHAR LtCapOGrave
ENCODING 210
SWIDTH 840 0
DWIDTH 7 0
BBX 7 13 0 -2
BITMAP
70
18
00
3c
66
66
66
66
66
66
3c
00
00
ENDCHAR
STARTCHAR LtCapOAcute
ENCODING 211
SWIDTH 840 0
DWIDTH 7 0
BBX 7 13 0 -2
BITMAP
0e
18
00
3c
66
66
66
66
66
66
3c
00
00
ENDCHAR
STARTCHAR LtCapOCircum
ENCODING 212
SWIDTH 840 0
DWIDTH 7 0
BBX 7 13 0 -2
BITMAP
1c
36
00
3c
66
66
66
66
66
66
3c
00
00
ENDCHAR
STARTCHAR LtCapOTilde
ENCODING 213
SWIDTH 840 0
DWIDTH 7 0
BBX 7 13 0 -2
BITMAP
36
5c
00
3c
66
66
66
66
66
66
3c
00
00
ENDCHAR
STARTCHAR LtCapODrss
ENCODING 214
SWIDTH 840 0
DWIDTH 7 0
BBX 7 13 0 -2
BITMAP
36
36
00
3c
66
66
66
66
66
66
3c
00
00
ENDCHAR
STARTCHAR MMultiply
ENCODING 215
SWIDTH 840 0
DWIDTH 7 0
BBX 7 13 0 -2
BITMAP
00
00
00
00
66
3c
18
3c
66
00
00
00
00
ENDCHAR
STARTCHAR LtCapOStroke
ENCODING 216
SWIDTH 840 0
DWIDTH 7 0
BBX 7 13 0 -2
BITMAP
00
02
3c
66
6e
6e
7e
76
76
66
3c
40
00
ENDCHAR
STARTCHAR LtCapUGrave
ENCODING 217
SWIDTH 840 0
DWIDTH 7 0
BBX 7 13 0 -2
BITMAP
70
18
00
66
66
66
66
66
66
66
3c
00
00
ENDCHAR
STARTCHAR LtCapUAcute
ENCODING 218
SWIDTH 840 0
DWIDTH 7 0
BBX 7 13 0 -2
BITMAP
0e
18
00
66
66
66
66
66
66
66
3c
00
00
ENDCHAR
STARTCHAR LtCapUCircum
ENCODING 219
SWIDTH 840 0
DWIDTH 7 0
BBX 7 13 0 -2
BITMAP
1c
36
00
66
66
66
66
66
66
66
3c
00
00
ENDCHAR
STARTCHAR LtCapUDrss
ENCODING 220
SWIDTH 840 0
DWIDTH 7 0
BBX 7 13 0 -2
BITMAP
36
36
00
66
66
66
66
66
66
66
3c
00
00
ENDCHAR
STARTCHAR LtCapYAcute
ENCODING 221
SWIDTH 840 0
DWIDTH 7 0
BBX 7 13 0 -2
BITMAP
0e
18
00
66
66
34
38
18
18
18
18
00
00
ENDCHAR
STARTCHAR LtCapThorn
ENCODING 222
SWIDTH 840 0
DWIDTH 7 0
BBX 7 13 0 -2
BITMAP
00
00
60
60
7c
66
66
66
7c
60
60
00
00
ENDCHAR
STARTCHAR LtSmlSz
ENCODING 223
SWIDTH 840 0
DWIDTH 7 0
BBX 7 13 0 -2
BITMAP
00
38
6c
6c
68
6c
66
66
66
66
6c
00
00
ENDCHAR
STARTCHAR LtSmlAGrave
ENCODING 224
SWIDTH 840 0
DWIDTH 7 0
BBX 7 13 0 -2
BITMAP
30
18
08
00
3c
36
06
3e
66
66
3e
00
00
ENDCHAR
STARTCHAR LtSmlAAcute
ENCODING 225
SWIDTH 840 0
DWIDTH 7 0
BBX 7 13 0 -2
BITMAP
06
0c
08
00
3c
36
06
3e
66
66
3e
00
00
ENDCHAR
STARTCHAR LtSmlACircum
ENCODING 226
SWIDTH 840 0
DWIDTH 7 0
BBX 7 13 0 -2
BITMAP
18
3c
24
00
3c
36
06
3e
66
66
3e
00
00
ENDCHAR
STARTCHAR LtSmlATilde
ENCODING 227
SWIDTH 840 0
DWIDTH 7 0
BBX 7 13 0 -2
BITMAP
12
3e
24
00
3c
36
06
3e
66
66
3e
00
00
ENDCHAR
STARTCHAR LtSmlADrss
ENCODING 228
SWIDTH 840 0
DWIDTH 7 0
BBX 7 13 0 -2
BITMAP
00
36
36
00
3c
36
06
3e
66
66
3e
00
00
ENDCHAR
STARTCHAR LtSmlARing
ENCODING 229
SWIDTH 840 0
DWIDTH 7 0
BBX 7 13 0 -2
BITMAP
18
34
18
00
3c
36
06
3e
66
66
3e
00
00
ENDCHAR
STARTCHAR LtSmlAE
ENCODING 230
SWIDTH 840 0
DWIDTH 7 0
BBX 7 13 0 -2
BITMAP
00
00
00
00
3e
7a
1a
3e
58
5a
7e
00
00
ENDCHAR
STARTCHAR LtSmlCCedilla
ENCODING 231
SWIDTH 840 0
DWIDTH 7 0
BBX 7 13 0 -2
BITMAP
00
00
00
00
3c
66
60
60
60
66
3c
18
30
ENDCHAR
STARTCHAR LtSmlEGrave
ENCODING 232
SWIDTH 840 0
DWIDTH 7 0
BBX 7 13 0 -2
BITMAP
30
18
08
00
3c
66
66
7e
60
66
3c
00
00
ENDCHAR
STARTCHAR LtSmlEAcute
ENCODING 233
SWIDTH 840 0
DWIDTH 7 0
BBX 7 13 0 -2
BITMAP
06
0c
08
00
3c
66
66
7e
60
66
3c
00
00
ENDCHAR
STARTCHAR LtSmlECircum
ENCODING 234
SWIDTH 840 0
DWIDTH 7 0
BBX 7 13 0 -2
BITMAP
18
3c
24
00
3c
66
66
7e
60
66
3c
00
00
ENDCHAR
STARTCHAR LtSmlEDrss
ENCODING 235
SWIDTH 840 0
DWIDTH 7 0
BBX 7 13 0 -2
BITMAP
00
36
36
00
3c
66
66
7e
60
66
3c
00
00
ENDCHAR
STARTCHAR LtSmlIGrave
ENCODING 236
SWIDTH 840 0
DWIDTH 7 0
BBX 7 13 0 -2
BITMAP
30
18
08
00
38
18
18
18
18
18
7e
00
00
ENDCHAR
STARTCHAR LtSmlIAcute
ENCODING 237
SWIDTH 840 0
DWIDTH 7 0
BBX 7 13 0 -2
BITMAP
0c
18
10
00
38
18
18
18
18
18
7e
00
00
ENDCHAR
STARTCHAR LtSmlICircum
ENCODING 238
SWIDTH 840 0
DWIDTH 7 0
BBX 7 13 0 -2
BITMAP
18
3c
24
00
38
18
18
18
18
18
7e
00
00
ENDCHAR
STARTCHAR LtSmlIDrss
ENCODING 239
SWIDTH 840 0
DWIDTH 7 0
BBX 7 13 0 -2
BITMAP
00
6c
6c
00
38
18
18
18
18
18
7e
00
00
ENDCHAR
STARTCHAR LtSmlEth
ENCODING 240
SWIDTH 840 0
DWIDTH 7 0
BBX 7 13 0 -2
BITMAP
00
6c
38
68
1c
36
66
66
66
66
3c
00
00
ENDCHAR
STARTCHAR LtSmlNTilde
ENCODING 241
SWIDTH 840 0
DWIDTH 7 0
BBX 7 13 0 -2
BITMAP
12
3e
24
00
6c
76
66
66
66
66
66
00
00
ENDCHAR
STARTCHAR LtSmlOGrave
ENCODING 242
SWIDTH 840 0
DWIDTH 7 0
BBX 7 13 0 -2
BITMAP
30
18
08
00
3c
66
66
66
66
66
3c
00
00
ENDCHAR
STARTCHAR LtSmlOAcute
ENCODING 243
SWIDTH 840 0
DWIDTH 7 0
BBX 7 13 0 -2
BITMAP
06
0c
08
00
3c
66
66
66
66
66
3c
00
00
ENDCHAR
STARTCHAR LtSmlOCircum
ENCODING 244
SWIDTH 840 0
DWIDTH 7 0
BBX 7 13 0 -2
BITMAP
18
3c
24
00
3c
66
66
66
66
66
3c
00
00
ENDCHAR
STARTCHAR LtSmlOTilde
ENCODING 245
SWIDTH 840 0
DWIDTH 7 0
BBX 7 13 0 -2
BITMAP
12
3e
24
00
3c
66
66
66
66
66
3c
00
00
ENDCHAR
STARTCHAR LtSmlODrss
ENCODING 246
SWIDTH 840 0
DWIDTH 7 0
BBX 7 13 0 -2
BITMAP
00
36
36
00
3c
66
66
66
66
66
3c
00
00
ENDCHAR
STARTCHAR MDivision
ENCODING 247
SWIDTH 840 0
DWIDTH 7 0
BBX 7 13 0 -2
BITMAP
00
00
00
18
18
00
7e
7e
00
18
18
00
00
ENDCHAR
STARTCHAR LtSmlOStroke
ENCODING 248
SWIDTH 840 0
DWIDTH 7 0
BBX 7 13 0 -2
BITMAP
00
00
00
02
3c
66
6e
7e
76
66
3c
40
00
ENDCHAR
STARTCHAR LtSmlUGrave
ENCODING 249
SWIDTH 840 0
DWIDTH 7 0
BBX 7 13 0 -2
BITMAP
30
18
08
00
66
66
66
66
66
6e
36
00
00
ENDCHAR
STARTCHAR LtSmlUAcute
ENCODING 250
SWIDTH 840 0
DWIDTH 7 0
BBX 7 13 0 -2
BITMAP
06
0c
08
00
66
66
66
66
66
6e
36
00
00
ENDCHAR
STARTCHAR LtSmlUCircum
ENCODING 251
SWIDTH 840 0
DWIDTH 7 0
BBX 7 13 0 -2
BITMAP
18
3c
24
00
66
66
66
66
66
6e
36
00
00
ENDCHAR
STARTCHAR LtSmlUDrss
ENCODING 252
SWIDTH 840 0
DWIDTH 7 0
BBX 7 13 0 -2
BITMAP
00
36
36
00
66
66
66
66
66
6e
36
00
00
ENDCHAR
STARTCHAR LtSmlYAcute
ENCODING 253
SWIDTH 840 0
DWIDTH 7 0
BBX 7 13 0 -2
BITMAP
06
0c
08
00
62
62
34
34
1c
18
08
58
70
ENDCHAR
STARTCHAR LtSmlThorn
ENCODING 254
SWIDTH 840 0
DWIDTH 7 0
BBX 7 13 0 -2
BITMAP
00
60
60
60
6c
76
66
66
66
76
6c
60
60
ENDCHAR
STARTCHAR LtSmlYDrss
ENCODING 255
SWIDTH 840 0
DWIDTH 7 0
BBX 7 13 0 -2
BITMAP
00
36
36
00
62
62
34
34
1c
18
08
58
70
ENDCHAR
STARTCHAR LtCapAMacron
ENCODING 256
SWIDTH 840 0
DWIDTH 7 0
BBX 7 13 0 -2
BITMAP
3c
3c
00
18
18
3c
2c
2c
7e
46
46
00
00
ENDCHAR
STARTCHAR LtSmlAMacron
ENCODING 257
SWIDTH 840 0
DWIDTH 7 0
BBX 7 13 0 -2
BITMAP
00
3c
3c
00
3c
36
06
3e
66
66
3e
00
00
ENDCHAR
STARTCHAR LtCapABreve
ENCODING 258
SWIDTH 840 0
DWIDTH 7 0
BBX 7 13 0 -2
BITMAP
36
1c
00
18
18
3c
2c
2c
7e
46
46
00
00
ENDCHAR
STARTCHAR LtSmlABreve
ENCODING 259
SWIDTH 840 0
DWIDTH 7 0
BBX 7 13 0 -2
BITMAP
00
36
1c
00
3c
36
06
3e
66
66
3e
00
00
ENDCHAR
STARTCHAR LtCapAOgonek
ENCODING 260
SWIDTH 840 0
DWIDTH 7 0
BBX 7 13 0 -2
BITMAP
00
00
18
18
18
3c
2c
2c
7e
46
46
0c
06
ENDCHAR
STARTCHAR LtSmlAOgonek
ENCODING 261
SWIDTH 840 0
DWIDTH 7 0
BBX 7 13 0 -2
BITMAP
00
00
00
00
3c
36
06
3e
66
66
3e
0c
06
ENDCHAR
STARTCHAR LtCapCAcute
ENCODING 262
SWIDTH 840 0
DWIDTH 7 0
BBX 7 13 0 -2
BITMAP
0e
18
00
1c
36
60
60
60
60
36
1c
00
00
ENDCHAR
STARTCHAR LtSmlCAcute
ENCODING 263
SWIDTH 840 0
DWIDTH 7 0
BBX 7 13 0 -2
BITMAP
06
0c
08
00
3c
66
60
60
60
66
3c
00
00
ENDCHAR
STARTCHAR LtCapCCircum
ENCODING 264
SWIDTH 840 0
DWIDTH 7 0
BBX 7 13 0 -2
BITMAP
1c
36
00
1c
36
60
60
60
60
36
1c
00
00
ENDCHAR
STARTCHAR LtSmlCCircum
ENCODING 265
SWIDTH 840 0
DWIDTH 7 0
BBX 7 13 0 -2
BITMAP
18
3c
24
00
3c
66
60
60
60
66
3c
00
00
ENDCHAR
STARTCHAR LtCapCDot
ENCODING 266
SWIDTH 840 0
DWIDTH 7 0
BBX 7 13 0 -2
BITMAP
0c
0c
00
1c
36
60
60
60
60
36
1c
00
00
ENDCHAR
STARTCHAR LtSmlCDot
ENCODING 267
SWIDTH 840 0
DWIDTH 7 0
BBX 7 13 0 -2
BITMAP
00
18
18
00
3c
66
60
60
60
66
3c
00
00
ENDCHAR
STARTCHAR LtCapCCaron
ENCODING 268
SWIDTH 840 0
DWIDTH 7 0
BBX 7 13 0 -2
BITMAP
36
1c
00
1c
36
60
60
60
60
36
1c
00
00
ENDCHAR
STARTCHAR LtSmlCCaron
ENCODING 269
SWIDTH 840 0
DWIDTH 7 0
BBX 7 13 0 -2
BITMAP
24
3c
18
00
3c
66
60
60
60
66
3c
00
00
ENDCHAR
STARTCHAR LtCapDCaron
ENCODING 270
SWIDTH 840 0
DWIDTH 7 0
BBX 7 13 0 -2
BITMAP
6c
38
00
78
64
66
66
66
66
64
78
00
00
ENDCHAR
STARTCHAR LtSmlDCaron
ENCODING 271
SWIDTH 840 0
DWIDTH 7 0
BBX 7 13 0 -2
BITMAP
06
1e
1a
1c
38
58
d8
d8
d8
58
38
00
00
ENDCHAR
STARTCHAR LtCapDStroke
ENCODING 272
SWIDTH 840 0
DWIDTH 7 0
BBX 7 13 0 -2
BITMAP
00
00
78
64
66
66
f6
66
66
64
78
00
00
ENDCHAR
STARTCHAR LtSmlDStroke
ENCODING 273
SWIDTH 840 0
DWIDTH 7 0
BBX 7 13 0 -2
BITMAP
00
06
1e
06
36
6e
66
66
66
6e
36
00
00
ENDCHAR
STARTCHAR LtCapEMacron
ENCODING 274
SWIDTH 840 0
DWIDTH 7 0
BBX 7 13 0 -2
BITMAP
3c
3c
00
7e
62
60
7c
64
60
62
7e
00
00
ENDCHAR
STARTCHAR LtSmlEMacron
ENCODING 275
SWIDTH 840 0
DWIDTH 7 0
BBX 7 13 0 -2
BITMAP
00
3c
3c
00
3c
66
66
7e
60
66
3c
00
00
ENDCHAR
STARTCHAR LtCapEBreve
ENCODING 276
SWIDTH 840 0
DWIDTH 7 0
BBX 7 13 0 -2
BITMAP
36
1c
00
7e
62
60
7c
64
60
62
7e
00
00
ENDCHAR
STARTCHAR LtSmlEBreve
ENCODING 277
SWIDTH 840 0
DWIDTH 7 0
BBX 7 13 0 -2
BITMAP
00
36
1c
00
3c
66
66
7e
60
66
3c
00
00
ENDCHAR
STARTCHAR LtCapEDot
ENCODING 278
SWIDTH 840 0
DWIDTH 7 0
BBX 7 13 0 -2
BITMAP
18
18
00
7e
62
60
7c
64
60
62
7e
00
00
ENDCHAR
STARTCHAR LtSmlEDot
ENCODING 279
SWIDTH 840 0
DWIDTH 7 0
BBX 7 13 0 -2
BITMAP
00
18
18
00
3c
66
66
7e
60
66
3c
00
00
ENDCHAR
STARTCHAR LtCapEOgonek
ENCODING 280
SWIDTH 840 0
DWIDTH 7 0
BBX 7 13 0 -2
BITMAP
00
00
7e
62
60
64
7c
64
60
62
7e
0c
06
ENDCHAR
STARTCHAR LtSmlEOgonek
ENCODING 281
SWIDTH 840 0
DWIDTH 7 0
BBX 7 13 0 -2
BITMAP
00
00
00
00
3c
66
66
7e
60
66
3c
0c
06
ENDCHAR
STARTCHAR LtCapECaron
ENCODING 282
SWIDTH 840 0
DWIDTH 7 0
BBX 7 13 0 -2
BITMAP
36
1c
00
7e
62
60
7c
64
60
62
7e
00
00
ENDCHAR
STARTCHAR LtSmlECaron
ENCODING 283
SWIDTH 840 0
DWIDTH 7 0
BBX 7 13 0 -2
BITMAP
24
3c
18
00
3c
66
66
7e
60
66
3c
00
00
ENDCHAR
STARTCHAR LtCapGCircum
ENCODING 284
SWIDTH 840 0
DWIDTH 7 0
BBX 7 13 0 -2
BITMAP
1c
36
00
1c
36
60
60
6e
66
36
1e
00
00
ENDCHAR
STARTCHAR LtSmlGCircum
ENCODING 285
SWIDTH 840 0
DWIDTH 7 0
BBX 7 13 0 -2
BITMAP
18
3c
24
00
3e
66
66
66
6e
36
06
66
3c
ENDCHAR
STARTCHAR LtCapGBreve
ENCODING 286
SWIDTH 840 0
DWIDTH 7 0
BBX 7 13 0 -2
BITMAP
36
1c
00
1c
36
60
60
6e
66
36
1e
00
00
ENDCHAR
STARTCHAR LtSmlGBreve
ENCODING 287
SWIDTH 840 0
DWIDTH 7 0
BBX 7 13 0 -2
BITMAP
00
36
1c
00
3e
66
66
66
6e
36
06
66
3c
ENDCHAR
STARTCHAR LtCapGDot
ENCODING 288
SWIDTH 840 0
DWIDTH 7 0
BBX 7 13 0 -2
BITMAP
0c
0c
00
1c
36
60
60
6e
66
36
1e
00
00
ENDCHAR
STARTCHAR LtSmlGDot
ENCODING 289
SWIDTH 840 0
DWIDTH 7 0
BBX 7 13 0 -2
BITMAP
00
18
18
00
3e
66
66
66
6e
36
06
66
3c
ENDCHAR
STARTCHAR LtCapGComma
ENCODING 290
SWIDTH 840 0
DWIDTH 7 0
BBX 7 13 0 -2
BITMAP
00
00
1c
36
60
60
6e
66
66
36
1e
18
30
ENDCHAR
STARTCHAR LtSmlGComma
ENCODING 291
SWIDTH 840 0
DWIDTH 7 0
BBX 7 13 0 -2
BITMAP
00
0c
18
08
3e
66
66
66
6e
36
06
66
3c
ENDCHAR
STARTCHAR LtCapHCircum
ENCODING 292
SWIDTH 840 0
DWIDTH 7 0
BBX 7 13 0 -2
BITMAP
1c
36
00
66
66
66
7e
66
66
66
66
00
00
ENDCHAR
STARTCHAR LtSmlHCircum
ENCODING 293
SWIDTH 840 0
DWIDTH 7 0
BBX 7 13 0 -2
BITMAP
0c
1e
52
60
6c
76
66
66
66
66
66
00
00
ENDCHAR
STARTCHAR LtCapHStroke
ENCODING 294
SWIDTH 840 0
DWIDTH 7 0
BBX 7 13 0 -2
BITMAP
00
00
66
66
7e
66
7e
66
66
66
66
00
00
ENDCHAR
STARTCHAR LtSmlHStroke
ENCODING 295
SWIDTH 840 0
DWIDTH 7 0
BBX 7 13 0 -2
BITMAP
00
60
f8
60
6c
76
66
66
66
66
66
00
00
ENDCHAR
STARTCHAR LtCapITilde
ENCODING 296
SWIDTH 840 0
DWIDTH 7 0
BBX 7 13 0 -2
BITMAP
36
5c
00
7e
18
18
18
18
18
18
7e
00
00
ENDCHAR
STARTCHAR LtSmlITilde
ENCODING 297
SWIDTH 840 0
DWIDTH 7 0
BBX 7 13 0 -2
BITMAP
14
3c
28
00
38
18
18
18
18
18
7e
00
00
ENDCHAR
STARTCHAR LtCapIMacron
ENCODING 298
SWIDTH 840 0
DWIDTH 7 0
BBX 7 13 0 -2
BITMAP
3c
3c
00
7e
18
18
18
18
18
18
7e
00
00
ENDCHAR
STARTCHAR LtSmlIMacron
ENCODING 299
SWIDTH 840 0
DWIDTH 7 0
BBX 7 13 0 -2
BITMAP
00
3c
3c
00
38
18
18
18
18
18
7e
00
00
ENDCHAR
STARTCHAR LtCapIBreve
ENCODING 300
SWIDTH 840 0
DWIDTH 7 0
BBX 7 13 0 -2
BITMAP
36
1c
00
7e
18
18
18
18
18
18
7e
00
00
ENDCHAR
STARTCHAR LtSmlIBreve
ENCODING 301
SWIDTH 840 0
DWIDTH 7 0
BBX 7 13 0 -2
BITMAP
00
6c
38
00
38
18
18
18
18
18
7e
00
00
ENDCHAR
STARTCHAR LtCapIOgonek
ENCODING 302
SWIDTH 840 0
DWIDTH 7 0
BBX 7 13 0 -2
BITMAP
00
00
7e
18
18
18
18
18
18
18
7e
0c
06
ENDCHAR
STARTCHAR LtSmlIOgonek
ENCODING 303
SWIDTH 840 0
DWIDTH 7 0
BBX 7 13 0 -2
BITMAP
00
18
18
00
38
18
18
18
18
18
7e
0c
06
ENDCHAR
STARTCHAR LtCapIDot
ENCODING 304
SWIDTH 840 0
DWIDTH 7 0
BBX 7 13 0 -2
BITMAP
18
18
00
7e
18
18
18
18
18
18
7e
00
00
ENDCHAR
STARTCHAR LtSmlIDotless
ENCODING 305
SWIDTH 840 0
DWIDTH 7 0
BBX 7 13 0 -2
BITMAP
00
00
00
00
38
18
18
18
18
18
7e
00
00
ENDCHAR
STARTCHAR LtCapIJ
ENCODING 306
SWIDTH 840 0
DWIDTH 7 0
BBX 7 13 0 -2
BITMAP
00
00
6e
6e
62
62
62
62
6a
6e
6c
00
00
ENDCHAR
STARTCHAR LtSmlIJ
ENCODING 307
SWIDTH 840 0
DWIDTH 7 0
BBX 7 13 0 -2
BITMAP
00
66
66
00
6e
66
66
66
66
66
66
06
1c
ENDCHAR
STARTCHAR LtCapJCircum
ENCODING 308
SWIDTH 840 0
DWIDTH 7 0
BBX 7 13 0 -2
BITMAP
1c
36
00
1e
0c
0c
0c
0c
6c
6c
38
00
00
ENDCHAR
STARTCHAR LtSmlJCircum
ENCODING 309
SWIDTH 840 0
DWIDTH 7 0
BBX 7 13 0 -2
BITMAP
0c
1e
12
00
3c
0c
0c
0c
0c
0c
0c
6c
38
ENDCHAR
STARTCHAR LtCapKComma
ENCODING 310
SWIDTH 840 0
DWIDTH 7 0
BBX 7 13 0 -2
BITMAP
00
00
66
64
68
78
78
6c
6c
66
66
18
30
ENDCHAR
STARTCHAR LtSmlKComma
ENCODING 311
SWIDTH 840 0
DWIDTH 7 0
BBX 7 13 0 -2
BITMAP
00
60
60
60
66
64
68
78
6c
66
66
18
30
ENDCHAR
STARTCHAR LtSmlKra
ENCODING 312
SWIDTH 840 0
DWIDTH 7 0
BBX 7 13 0 -2
BITMAP
00
00
00
00
66
64
68
78
6c
66
66
00
00
ENDCHAR
STARTCHAR LtCapLAcute
ENCODING 313
SWIDTH 840 0
DWIDTH 7 0
BBX 7 13 0 -2
BITMAP
0e
18
00
60
60
60
60
60
60
62
7e
00
00
ENDCHAR
STARTCHAR LtSmlLAcute
ENCODING 314
SWIDTH 840 0
DWIDTH 7 0
BBX 7 13 0 -2
BITMAP
1c
30
38
18
18
18
18
18
18
18
7e
00
00
ENDCHAR
STARTCHAR LtCapLComma
ENCODING 315
SWIDTH 840 0
DWIDTH 7 0
BBX 7 13 0 -2
BITMAP
00
00
60
60
60
60
60
60
60
62
7e
18
30
ENDCHAR
STARTCHAR LtSmlLComma
ENCODING 316
SWIDTH 840 0
DWIDTH 7 0
BBX 7 13 0 -2
BITMAP
00
38
18
18
18
18
18
18
18
18
7e
18
30
ENDCHAR
STARTCHAR LtCapLCaron
ENCODING 317
SWIDTH 840 0
DWIDTH 7 0
BBX 7 13 0 -2
BITMAP
00
06
66
62
64
60
60
60
60
62
7e
00
00
ENDCHAR
STARTCHAR LtSmlLCaron
ENCODING 318
SWIDTH 840 0
DWIDTH 7 0
BBX 7 13 0 -2
BITMAP
06
76
32
34
30
30
30
30
30
30
78
00
00
ENDCHAR
STARTCHAR LtCapLMdot
ENCODING 319
SWIDTH 840 0
DWIDTH 7 0
BBX 7 13 0 -2
BITMAP
00
00
60
60
60
66
66
60
60
62
7e
00
00
ENDCHAR
STARTCHAR LtSmlLMdot
ENCODING 320
SWIDTH 840 0
DWIDTH 7 0
BBX 7 13 0 -2
BITMAP
00
70
30
30
30
36
36
30
30
30
78
00
00
ENDCHAR
STARTCHAR LtCapLStroke
ENCODING 321
SWIDTH 840 0
DWIDTH 7 0
BBX 7 13 0 -2
BITMAP
00
00
60
60
68
78
60
e0
60
62
7e
00
00
ENDCHAR
STARTCHAR LtSmlLStroke
ENCODING 322
SWIDTH 840 0
DWIDTH 7 0
BBX 7 13 0 -2
BITMAP
00
38
18
18
1c
1c
38
38
18
18
7e
00
00
ENDCHAR
STARTCHAR LtCapNAcute
ENCODING 323
SWIDTH 840 0
DWIDTH 7 0
BBX 7 13 0 -2
BITMAP
0e
18
00
62
72
72
5a
5a
4e
4e
46
00
00
ENDCHAR
STARTCHAR LtSmlNAcute
ENCODING 324
SWIDTH 840 0
DWIDTH 7 0
BBX 7 13 0 -2
BITMAP
06
0c
08
00
6c
76
66
66
66
66
66
00
00
ENDCHAR
STARTCHAR LtCapNComma
ENCODING 325
SWIDTH 840 0
DWIDTH 7 0
BBX 7 13 0 -2
BITMAP
00
00
62
72
72
5a
5a
4e
4e
46
46
18
30
ENDCHAR
STARTCHAR LtSmlNComma
ENCODING 326
SWIDTH 840 0
DWIDTH 7 0
BBX 7 13 0 -2
BITMAP
00
00
00
00
6c
76
66
66
66
66
66
18
30
ENDCHAR
STARTCHAR LtCapNCaron
ENCODING 327
SWIDTH 840 0
DWIDTH 7 0
BBX 7 13 0 -2
BITMAP
36
1c
00
62
72
72
5a
5a
4e
4e
46
00
00
ENDCHAR
STARTCHAR LtSmlNCaron
ENCODING 328
SWIDTH 840 0
DWIDTH 7 0
BBX 7 13 0 -2
BITMAP
24
3c
18
00
6c
76
66
66
66
66
66
00
00
ENDCHAR
STARTCHAR LtSmlNApostr
ENCODING 329
SWIDTH 840 0
DWIDTH 7 0
BBX 7 13 0 -2
BITMAP
c0
c0
40
80
6c
76
66
66
66
66
66
00
00
ENDCHAR
STARTCHAR LtCapEng
ENCODING 330
SWIDTH 840 0
DWIDTH 7 0
BBX 7 13 0 -2
BITMAP
00
00
5c
7e
62
62
62
62
6a
6e
6c
00
00
ENDCHAR
STARTCHAR LtSmlEng
ENCODING 331
SWIDTH 840 0
DWIDTH 7 0
BBX 7 13 0 -2
BITMAP
00
00
00
00
6c
76
66
66
66
66
66
06
1c
ENDCHAR
STARTCHAR LtCapOMacron
ENCODING 332
SWIDTH 840 0
DWIDTH 7 0
BBX 7 13 0 -2
BITMAP
3c
3c
00
3c
66
66
66
66
66
66
3c
00
00
ENDCHAR
STARTCHAR LtSmlOMacron
ENCODING 333
SWIDTH 840 0
DWIDTH 7 0
BBX 7 13 0 -2
BITMAP
00
3c
3c
00
3c
66
66
66
66
66
3c
00
00
ENDCHAR
STARTCHAR LtCapOBreve
ENCODING 334
SWIDTH 840 0
DWIDTH 7 0
BBX 7 13 0 -2
BITMAP
36
1c
00
3c
66
66
66
66
66
66
3c
00
00
ENDCHAR
STARTCHAR LtSmlOBreve
ENCODING 335
SWIDTH 840 0
DWIDTH 7 0
BBX 7 13 0 -2
BITMAP
00
36
1c
00
3c
66
66
66
66
66
3c
00
00
ENDCHAR
STARTCHAR LtCapOAcute2
ENCODING 336
SWIDTH 840 0
DWIDTH 7 0
BBX 7 13 0 -2
BITMAP
1a
36
2c
3c
66
66
66
66
66
66
3c
00
00
ENDCHAR
STARTCHAR LtSmlOAcute2
ENCODING 337
SWIDTH 840 0
DWIDTH 7 0
BBX 7 13 0 -2
BITMAP
1a
36
2c
00
3c
66
66
66
66
66
3c
00
00
ENDCHAR
STARTCHAR LtCapOE
ENCODING 338
SWIDTH 840 0
DWIDTH 7 0
BBX 7 13 0 -2
BITMAP
00
00
3e
78
58
58
5e
58
58
78
3e
00
00
ENDCHAR
STARTCHAR LtSmlOE
ENCODING 339
SWIDTH 840 0
DWIDTH 7 0
BBX 7 13 0 -2
BITMAP
00
00
00
00
3e
7a
5a
5e
58
7a
3e
00
00
ENDCHAR
STARTCHAR LtCapRAcute
ENCODING 340
SWIDTH 840 0
DWIDTH 7 0
BBX 7 13 0 -2
BITMAP
0e
18
00
7c
66
66
7c
68
6c
66
66
00
00
ENDCHAR
STARTCHAR LtSmlRAcute
ENCODING 341
SWIDTH 840 0
DWIDTH 7 0
BBX 7 13 0 -2
BITMAP
06
0c
08
00
76
3e
30
30
30
30
30
00
00
ENDCHAR
STARTCHAR LtCapRComma
ENCODING 342
SWIDTH 840 0
DWIDTH 7 0
BBX 7 13 0 -2
BITMAP
00
00
7c
66
66
66
7c
68
6c
66
66
18
30
ENDCHAR
STARTCHAR LtSmlRComma
ENCODING 343
SWIDTH 840 0
DWIDTH 7 0
BBX 7 13 0 -2
BITMAP
00
00
00
00
76
3e
30
30
30
30
30
18
30
ENDCHAR
STARTCHAR LtCapRCaron
ENCODING 344
SWIDTH 840 0
DWIDTH 7 0
BBX 7 13 0 -2
BITMAP
36
1c
00
7c
66
66
7c
68
6c
66
66
00
00
ENDCHAR
STARTCHAR LtSmlRCaron
ENCODING 345
SWIDTH 840 0
DWIDTH 7 0
BBX 7 13 0 -2
BITMAP
24
3c
18
00
76
3e
30
30
30
30
30
00
00
ENDCHAR
STARTCHAR LtCapSAcute
ENCODING 346
SWIDTH 840 0
DWIDTH 7 0
BBX 7 13 0 -2
BITMAP
0e
18
00
3c
66
60
38
1c
06
66
3c
00
00
ENDCHAR
STARTCHAR LtSmlSAcute
ENCODING 347
SWIDTH 840 0
DWIDTH 7 0
BBX 7 13 0 -2
BITMAP
06
0c
08
00
3c
66
60
3c
06
66
3c
00
00
ENDCHAR
STARTCHAR LtCapSCircum
ENCODING 348
SWIDTH 840 0
DWIDTH 7 0
BBX 7 13 0 -2
BITMAP
1c
36
00
3c
66
60
38
1c
06
66
3c
00
00
ENDCHAR
STARTCHAR LtSmlSCircum
ENCODING 349
SWIDTH 840 0
DWIDTH 7 0
BBX 7 13 0 -2
BITMAP
18
3c
24
00
3c
66
60
3c
06
66
3c
00
00
ENDCHAR
STARTCHAR LtCapSCedilla
ENCODING 350
SWIDTH 840 0
DWIDTH 7 0
BBX 7 13 0 -2
BITMAP
00
00
3c
66
60
70
3c
0e
06
66
3c
18
30
ENDCHAR
STARTCHAR LtSmlSCedilla
ENCODING 351
SWIDTH 840 0
DWIDTH 7 0
BBX 7 13 0 -2
BITMAP
00
00
00
00
3c
66
60
3c
06
66
3c
18
30
ENDCHAR
STARTCHAR LtCapSCaron
ENCODING 352
SWIDTH 840 0
DWIDTH 7 0
BBX 7 13 0 -2
BITMAP
36
1c
00
3c
66
60
38
1c
06
66
3c
00
00
ENDCHAR
STARTCHAR LtSmlSCaron
ENCODING 353
SWIDTH 840 0
DWIDTH 7 0
BBX 7 13 0 -2
BITMAP
24
3c
18
00
3c
66
60
3c
06
66
3c
00
00
ENDCHAR
STARTCHAR LtCapTCedilla
ENCODING 354
SWIDTH 840 0
DWIDTH 7 0
BBX 7 13 0 -2
BITMAP
00
00
7e
5a
18
18
18
18
18
18
18
0c
18
ENDCHAR
STARTCHAR LtSmlTCedilla
ENCODING 355
SWIDTH 840 0
DWIDTH 7 0
BBX 7 13 0 -2
BITMAP
00
00
30
30
7c
30
30
30
30
36
1c
18
30
ENDCHAR
STARTCHAR LtCapTCaron
ENCODING 356
SWIDTH 840 0
DWIDTH 7 0
BBX 7 13 0 -2
BITMAP
36
1c
00
7e
5a
18
18
18
18
18
18
00
00
ENDCHAR
STARTCHAR LtSmlTCaron
ENCODING 357
SWIDTH 840 0
DWIDTH 7 0
BBX 7 13 0 -2
BITMAP
06
06
32
34
7c
30
30
30
30
36
1c
00
00
ENDCHAR
STARTCHAR LtCapTStroke
ENCODING 358
SWIDTH 840 0
DWIDTH 7 0
BBX 7 13 0 -2
BITMAP
00
00
7e
5a
18
18
3c
3c
18
18
18
00
00
ENDCHAR
STARTCHAR LtSmlTStroke
ENCODING 359
SWIDTH 840 0
DWIDTH 7 0
BBX 7 13 0 -2
BITMAP
00
00
30
30
7c
30
7c
30
30
36
1c
00
00
ENDCHAR
STARTCHAR LtCapUTilde
ENCODING 360
SWIDTH 840 0
DWIDTH 7 0
BBX 7 13 0 -2
BITMAP
36
5c
00
66
66
66
66
66
66
66
3c
00
00
ENDCHAR
STARTCHAR LtSmlUTilde
ENCODING 361
SWIDTH 840 0
DWIDTH 7 0
BBX 7 13 0 -2
BITMAP
12
3e
24
00
66
66
66
66
66
6e
36
00
00
ENDCHAR
STARTCHAR LtCapUMacron
ENCODING 362
SWIDTH 840 0
DWIDTH 7 0
BBX 7 13 0 -2
BITMAP
3c
3c
00
66
66
66
66
66
66
66
3c
00
00
ENDCHAR
STARTCHAR LtSmlUMacron
ENCODING 363
SWIDTH 840 0
DWIDTH 7 0
BBX 7 13 0 -2
BITMAP
00
3c
3c
00
66
66
66
66
66
6e
36
00
00
ENDCHAR
STARTCHAR LtCapUBreve
ENCODING 364
SWIDTH 840 0
DWIDTH 7 0
BBX 7 13 0 -2
BITMAP
36
1c
00
66
66
66
66
66
66
66
3c
00
00
ENDCHAR
STARTCHAR LtSmlUBreve
ENCODING 365
SWIDTH 840 0
DWIDTH 7 0
BBX 7 13 0 -2
BITMAP
00
36
1c
00
66
66
66
66
66
6e
36
00
00
ENDCHAR
STARTCHAR LtCapURing
ENCODING 366
SWIDTH 840 0
DWIDTH 7 0
BBX 7 13 0 -2
BITMAP
18
34
18
66
66
66
66
66
66
66
3c
00
00
ENDCHAR
STARTCHAR LtSmlURing
ENCODING 367
SWIDTH 840 0
DWIDTH 7 0
BBX 7 13 0 -2
BITMAP
18
34
18
00
66
66
66
66
66
6e
36
00
00
ENDCHAR
STARTCHAR LtCapUAcute2
ENCODING 368
SWIDTH 840 0
DWIDTH 7 0
BBX 7 13 0 -2
BITMAP
36
6c
48
66
66
66
66
66
66
66
3c
00
00
ENDCHAR
STARTCHAR LtSmlUAcute2
ENCODING 369
SWIDTH 840 0
DWIDTH 7 0
BBX 7 13 0 -2
BITMAP
1a
36
2c
00
66
66
66
66
66
6e
36
00
00
ENDCHAR
STARTCHAR LtCapUOgonek
ENCODING 370
SWIDTH 840 0
DWIDTH 7 0
BBX 7 13 0 -2
BITMAP
00
00
66
66
66
66
66
66
66
66
3c
18
0c
ENDCHAR
STARTCHAR LtSmlUOgonek
ENCODING 371
SWIDTH 840 0
DWIDTH 7 0
BBX 7 13 0 -2
BITMAP
00
00
00
00
66
66
66
66
66
6e
36
0c
06
ENDCHAR
STARTCHAR LtCapWCircum
ENCODING 372
SWIDTH 840 0
DWIDTH 7 0
BBX 7 13 0 -2
BITMAP
1c
36
00
62
62
6a
6a
7e
3c
34
34
00
00
ENDCHAR
STARTCHAR LtSmlWCircum
ENCODING 373
SWIDTH 840 0
DWIDTH 7 0
BBX 7 13 0 -2
BITMAP
18
3c
24
00
62
6a
6a
6a
7e
34
34
00
00
ENDCHAR
STARTCHAR LtCapYCircum
ENCODING 374
SWIDTH 840 0
DWIDTH 7 0
BBX 7 13 0 -2
BITMAP
1c
36
00
66
66
34
38
18
18
18
18
00
00
ENDCHAR
STARTCHAR LtSmlYCircum
ENCODING 375
SWIDTH 840 0
DWIDTH 7 0
BBX 7 13 0 -2
BITMAP
18
3c
24
00
62
62
34
34
1c
18
08
58
70
ENDCHAR
STARTCHAR LtCapYDrss
ENCODING 376
SWIDTH 840 0
DWIDTH 7 0
BBX 7 13 0 -2
BITMAP
36
36
00
66
66
34
38
18
18
18
18
00
00
ENDCHAR
STARTCHAR LtCapZAcute
ENCODING 377
SWIDTH 840 0
DWIDTH 7 0
BBX 7 13 0 -2
BITMAP
0e
18
00
7e
46
0c
18
18
30
62
7e
00
00
ENDCHAR
STARTCHAR LtSmlZAcute
ENCODING 378
SWIDTH 840 0
DWIDTH 7 0
BBX 7 13 0 -2
BITMAP
06
0c
08
00
7e
4e
0c
18
30
72
7e
00
00
ENDCHAR
STARTCHAR LtCapZDot
ENCODING 379
SWIDTH 840 0
DWIDTH 7 0
BBX 7 13 0 -2
BITMAP
18
18
00
7e
46
0c
18
18
30
62
7e
00
00
ENDCHAR
STARTCHAR LtSmlZDot
ENCODING 380
SWIDTH 840 0
DWIDTH 7 0
BBX 7 13 0 -2
BITMAP
00
18
18
00
7e
4e
0c
18
30
72
7e
00
00
ENDCHAR
STARTCHAR LtCapZCaron
ENCODING 381
SWIDTH 840 0
DWIDTH 7 0
BBX 7 13 0 -2
BITMAP
36
1c
00
7e
46
0c
18
18
30
62
7e
00
00
ENDCHAR
STARTCHAR LtSmlZCaron
ENCODING 382
SWIDTH 840 0
DWIDTH 7 0
BBX 7 13 0 -2
BITMAP
24
3c
18
00
7e
4e
0c
18
30
72
7e
00
00
ENDCHAR
STARTCHAR LtSmlSLong
ENCODING 383
SWIDTH 840 0
DWIDTH 7 0
BBX 7 13 0 -2
BITMAP
00
0e
1a
18
18
18
18
18
18
18
18
00
00
ENDCHAR
STARTCHAR LtSmlBStroke
ENCODING 384
SWIDTH 840 0
DWIDTH 7 0
BBX 7 13 0 -2
BITMAP
00
60
f8
60
6c
76
66
66
66
76
6c
00
00
ENDCHAR
STARTCHAR LtCapBHook
ENCODING 385
SWIDTH 840 0
DWIDTH 7 0
BBX 7 13 0 -2
BITMAP
00
00
7c
f6
36
34
3c
36
36
36
3c
00
00
ENDCHAR
STARTCHAR LtCapBTopbar
ENCODING 386
SWIDTH 840 0
DWIDTH 7 0
BBX 7 13 0 -2
BITMAP
00
00
7c
64
60
60
7c
66
66
66
7c
00
00
ENDCHAR
STARTCHAR LtSmlBTopbar
ENCODING 387
SWIDTH 840 0
DWIDTH 7 0
BBX 7 13 0 -2
BITMAP
00
7c
60
60
6c
76
66
66
66
76
6c
00
00
ENDCHAR
STARTCHAR LtCapTone6
ENCODING 388
SWIDTH 840 0
DWIDTH 7 0
BBX 7 13 0 -2
BITMAP
00
00
30
70
70
30
3c
36
36
36
3c
00
00
ENDCHAR
STARTCHAR LtSmlTone6
ENCODING 389
SWIDTH 840 0
DWIDTH 7 0
BBX 7 13 0 -2
BITMAP
00
00
00
00
30
70
70
3c
36
36
3c
00
00
ENDCHAR
STARTCHAR LtCapCTrnd
ENCODING 390
SWIDTH 840 0
DWIDTH 7 0
BBX 7 13 0 -2
BITMAP
00
00
38
6c
06
06
06
06
06
6c
38
00
00
ENDCHAR
STARTCHAR LtCapCHook
ENCODING 391
SWIDTH 840 0
DWIDTH 7 0
BBX 7 13 0 -2
BITMAP
0e
0a
18
36
60
60
60
60
60
36
1c
00
00
ENDCHAR
STARTCHAR LtSmlCHook
ENCODING 392
SWIDTH 840 0
DWIDTH 7 0
BBX 7 13 0 -2
BITMAP
00
06
0c
0c
3c
66
60
60
60
66
3c
00
00
ENDCHAR
STARTCHAR LtCapDStrokeAfr
ENCODING 393
SWIDTH 840 0
DWIDTH 7 0
BBX 7 13 0 -2
BITMAP
00
00
78
64
66
66
f6
66
66
64
78
00
00
ENDCHAR
STARTCHAR LtCapDHook
ENCODING 394
SWIDTH 840 0
DWIDTH 7 0
BBX 7 13 0 -2
BITMAP
00
00
78
f4
36
36
36
36
36
34
38
00
00
ENDCHAR
STARTCHAR LtCapDTopbar
ENCODING 395
SWIDTH 840 0
DWIDTH 7 0
BBX 7 13 0 -2
BITMAP
00
00
3e
26
06
06
3e
66
66
66
3e
00
00
ENDCHAR
STARTCHAR LtSmlDTopbar
ENCODING 396
SWIDTH 840 0
DWIDTH 7 0
BBX 7 13 0 -2
BITMAP
00
3e
06
06
36
6e
66
66
66
6e
36
00
00
ENDCHAR
STARTCHAR LtSmlDelTrnd
ENCODING 397
SWIDTH 840 0
DWIDTH 7 0
BBX 7 13 0 -2
BITMAP
00
00
00
00
3c
66
66
66
66
3c
18
0c
38
ENDCHAR
STARTCHAR LtCapERev
ENCODING 398
SWIDTH 840 0
DWIDTH 7 0
BBX 7 13 0 -2
BITMAP
00
00
7e
46
06
26
3e
26
06
46
7e
00
00
ENDCHAR
STARTCHAR LtCapSchwa
ENCODING 399
SWIDTH 840 0
DWIDTH 7 0
BBX 7 13 0 -2
BITMAP
00
00
3c
66
06
06
7e
66
66
66
3c
00
00
ENDCHAR
STARTCHAR LtCapEps
ENCODING 400
SWIDTH 840 0
DWIDTH 7 0
BBX 7 13 0 -2
BITMAP
00
00
3c
66
60
20
38
60
60
66
3c
00
00
ENDCHAR
STARTCHAR LtCapFLhook
ENCODING 401
SWIDTH 840 0
DWIDTH 7 0
BBX 7 13 0 -2
BITMAP
00
00
3e
32
30
34
3c
34
30
30
e0
00
00
ENDCHAR
STARTCHAR LtSmlFLhook
ENCODING 402
SWIDTH 840 0
DWIDTH 7 0
BBX 7 13 0 -2
BITMAP
00
06
0e
08
18
7e
18
10
30
30
20
e0
c0
ENDCHAR
STARTCHAR LtCapGHook
ENCODING 403
SWIDTH 840 0
DWIDTH 7 0
BBX 7 13 0 -2
BITMAP
0e
0a
18
36
60
60
6e
66
66
36
1e
00
00
ENDCHAR
STARTCHAR LtCapGam
ENCODING 404
SWIDTH 840 0
DWIDTH 7 0
BBX 7 13 0 -2
BITMAP
00
00
66
64
34
38
18
3c
2c
2c
18
00
00
ENDCHAR
STARTCHAR LtSmlHwair
ENCODING 405
SWIDTH 840 0
DWIDTH 7 0
BBX 7 13 0 -2
BITMAP
00
60
60
60
72
7a
6a
6a
6a
6e
66
00
00
ENDCHAR
STARTCHAR LtCapIot
ENCODING 406
SWIDTH 840 0
DWIDTH 7 0
BBX 7 13 0 -2
BITMAP
00
00
78
30
30
30
30
30
36
36
1c
00
00
ENDCHAR
STARTCHAR LtCapIStroke
ENCODING 407
SWIDTH 840 0
DWIDTH 7 0
BBX 7 13 0 -2
BITMAP
00
00
7e
18
18
18
7e
18
18
18
7e
00
00
ENDCHAR
STARTCHAR LtCapKHook
ENCODING 408
SWIDTH 840 0
DWIDTH 7 0
BBX 7 13 0 -2
BITMAP
00
00
66
6e
6a
78
78
6c
6c
66
66
00
00
ENDCHAR
STARTCHAR LtSmlKHook
ENCODING 409
SWIDTH 840 0
DWIDTH 7 0
BBX 7 13 0 -2
BITMAP
00
38
60
60
66
64
68
78
6c
66
66
00
00
ENDCHAR
STARTCHAR LtSmlLStrokeH
ENCODING 410
SWIDTH 840 0
DWIDTH 7 0
BBX 7 13 0 -2
BITMAP
00
38
18
18
18
7e
18
18
18
18
7e
00
00
ENDCHAR
STARTCHAR LtSmlLamStroke
ENCODING 411
SWIDTH 840 0
DWIDTH 7 0
BBX 7 13 0 -2
BITMAP
00
6c
38
70
58
18
1c
34
36
62
62
00
00
ENDCHAR
STARTCHAR LtCapMTrnd
ENCODING 412
SWIDTH 840 0
DWIDTH 7 0
BBX 7 13 0 -2
BITMAP
00
00
56
56
56
56
56
56
7e
7e
36
00
00
ENDCHAR
STARTCHAR LtCapNLhookL
ENCODING 413
SWIDTH 840 0
DWIDTH 7 0
BBX 7 13 0 -2
BITMAP
00
00
32
32
3a
3a
2e
2e
26
66
c2
00
00
ENDCHAR
STARTCHAR LtSmlNLongleg
ENCODING 414
SWIDTH 840 0
DWIDTH 7 0
BBX 7 13 0 -2
BITMAP
00
00
00
00
6c
76
66
66
66
66
66
06
06
ENDCHAR
STARTCHAR LtCapOStrokeH
ENCODING 415
SWIDTH 840 0
DWIDTH 7 0
BBX 7 13 0 -2
BITMAP
00
00
3c
66
66
66
7e
66
66
66
3c
00
00
ENDCHAR
STARTCHAR LtCapOHorn
ENCODING 416
SWIDTH 840 0
DWIDTH 7 0
BBX 7 13 0 -2
BITMAP
0e
06
3c
66
66
66
66
66
66
66
3c
00
00
ENDCHAR
STARTCHAR LtSmlOHorn
ENCODING 417
SWIDTH 840 0
DWIDTH 7 0
BBX 7 13 0 -2
BITMAP
00
00
0e
06
3c
66
66
66
66
66
3c
00
00
ENDCHAR
STARTCHAR LtCapOi
ENCODING 418
SWIDTH 840 0
DWIDTH 7 0
BBX 7 13 0 -2
BITMAP
00
00
36
7e
56
56
56
56
56
76
26
06
06
ENDCHAR
STARTCHAR LtSmlOi
ENCODING 419
SWIDTH 840 0
DWIDTH 7 0
BBX 7 13 0 -2
BITMAP
00
00
00
00
36
7e
56
56
56
76
26
06
06
ENDCHAR
STARTCHAR LtCapPHook
ENCODING 420
SWIDTH 840 0
DWIDTH 7 0
BBX 7 13 0 -2
BITMAP
00
00
7c
f6
36
36
3c
30
30
30
30
00
00
ENDCHAR
STARTCHAR LtSmlPHook
ENCODING 421
SWIDTH 840 0
DWIDTH 7 0
BBX 7 13 0 -2
BITMAP
00
06
0c
0c
6c
76
66
66
66
76
6c
60
60
ENDCHAR
STARTCHAR LtCapYr
ENCODING 422
SWIDTH 840 0
DWIDTH 7 0
BBX 7 13 0 -2
BITMAP
00
00
60
7c
66
66
66
7c
68
6c
66
06
00
ENDCHAR
STARTCHAR LtCapTone2
ENCODING 423
SWIDTH 840 0
DWIDTH 7 0
BBX 7 13 0 -2
BITMAP
00
00
3c
66
06
0e
3c
70
60
66
3c
00
00
ENDCHAR
STARTCHAR LtSmlTone2
ENCODING 424
SWIDTH 840 0
DWIDTH 7 0
BBX 7 13 0 -2
BITMAP
00
00
00
00
3c
66
06
3c
60
66
3c
00
00
ENDCHAR
STARTCHAR LtCapEsh
ENCODING 425
SWIDTH 840 0
DWIDTH 7 0
BBX 7 13 0 -2
BITMAP
00
00
7e
62
30
18
18
10
22
7e
7e
00
00
ENDCHAR
STARTCHAR LtSmlEshRevLoop
ENCODING 426
SWIDTH 840 0
DWIDTH 7 0
BBX 7 13 0 -2
BITMAP
00
30
78
58
38
18
18
18
18
18
18
1a
0e
ENDCHAR
STARTCHAR LtSmlTLhookL
ENCODING 427
SWIDTH 840 0
DWIDTH 7 0
BBX 7 13 0 -2
BITMAP
00
00
30
30
7c
30
30
30
30
36
1e
06
0c
ENDCHAR
STARTCHAR LtCapTHook
ENCODING 428
SWIDTH 840 0
DWIDTH 7 0
BBX 7 13 0 -2
BITMAP
00
00
3e
7a
58
58
18
18
18
18
18
00
00
ENDCHAR
STARTCHAR LtSmlTHook
ENCODING 429
SWIDTH 840 0
DWIDTH 7 0
BBX 7 13 0 -2
BITMAP
00
00
1c
30
7c
30
30
30
30
36
1c
00
00
ENDCHAR
STARTCHAR LtCapTLhook
ENCODING 430
SWIDTH 840 0
DWIDTH 7 0
BBX 7 13 0 -2
BITMAP
00
00
7e
5a
18
18
18
18
18
1a
0e
00
00
ENDCHAR
STARTCHAR LtCapUHorn
ENCODING 431
SWIDTH 840 0
DWIDTH 7 0
BBX 7 13 0 -2
BITMAP
0e
06
64
66
66
66
66
66
66
66
3c
00
00
ENDCHAR
STARTCHAR LtSmlUHorn
ENCODING 432
SWIDTH 840 0
DWIDTH 7 0
BBX 7 13 0 -2
BITMAP
00
00
0e
06
64
66
66
66
66
6e
36
00
00
ENDCHAR
STARTCHAR LtCapUps
ENCODING 433
SWIDTH 840 0
DWIDTH 7 0
BBX 7 13 0 -2
BITMAP
00
00
66
66
24
66
66
66
66
66
3c
00
00
ENDCHAR
STARTCHAR LtCapVHook
ENCODING 434
SWIDTH 840 0
DWIDTH 7 0
BBX 7 13 0 -2
BITMAP
00
00
6c
6c
66
66
66
66
66
6c
38
00
00
ENDCHAR
STARTCHAR LtCapYHook
ENCODING 435
SWIDTH 840 0
DWIDTH 7 0
BBX 7 13 0 -2
BITMAP
00
00
c6
6e
6a
30
30
30
30
30
30
00
00
ENDCHAR
STARTCHAR LtSmlYHook
ENCODING 436
SWIDTH 840 0
DWIDTH 7 0
BBX 7 13 0 -2
BITMAP
00
00
00
00
66
6e
6a
38
38
10
10
70
60
ENDCHAR
STARTCHAR LtCapZStroke
ENCODING 437
SWIDTH 840 0
DWIDTH 7 0
BBX 7 13 0 -2
BITMAP
00
00
7e
46
0c
0c
7e
30
30
62
7e
00
00
ENDCHAR
STARTCHAR LtSmlZStroke
ENCODING 438
SWIDTH 840 0
DWIDTH 7 0
BBX 7 13 0 -2
BITMAP
00
00
00
00
7e
4e
0c
7e
30
72
7e
00
00
ENDCHAR
STARTCHAR LtCapEzh
ENCODING 439
SWIDTH 840 0
DWIDTH 7 0
BBX 7 13 0 -2
BITMAP
00
00
7e
46
0c
18
1c
06
66
66
3c
00
00
ENDCHAR
STARTCHAR LtCapEzhRev
ENCODING 440
SWIDTH 840 0
DWIDTH 7 0
BBX 7 13 0 -2
BITMAP
00
00
7e
62
30
18
38
60
66
66
3c
00
00
ENDCHAR
STARTCHAR LtSmlEzhRev
ENCODING 441
SWIDTH 840 0
DWIDTH 7 0
BBX 7 13 0 -2
BITMAP
00
00
00
00
7e
62
30
18
38
60
66
66
3c
ENDCHAR
STARTCHAR LtSmlEzhTail
ENCODING 442
SWIDTH 840 0
DWIDTH 7 0
BBX 7 13 0 -2
BITMAP
00
00
00
00
7e
46
0c
1c
06
06
3c
60
3c
ENDCHAR
STARTCHAR LtSmlTwoStroke
ENCODING 443
SWIDTH 840 0
DWIDTH 7 0
BBX 7 13 0 -2
BITMAP
00
3c
66
66
06
0c
7e
30
22
7e
7e
00
00
ENDCHAR
STARTCHAR LtCapTone5
ENCODING 444
SWIDTH 840 0
DWIDTH 7 0
BBX 7 13 0 -2
BITMAP
00
00
7c
7c
40
7c
06
06
06
66
7c
00
00
ENDCHAR
STARTCHAR LtSmlTone5
ENCODING 445
SWIDTH 840 0
DWIDTH 7 0
BBX 7 13 0 -2
BITMAP
00
00
00
00
7c
7c
40
7c
06
66
3c
00
00
ENDCHAR
STARTCHAR LtSmlGlotInvStroke
ENCODING 446
SWIDTH 840 0
DWIDTH 7 0
BBX 7 13 0 -2
BITMAP
00
18
18
18
7e
18
18
0c
66
66
3c
00
00
ENDCHAR
STARTCHAR LtSmlWynn
ENCODING 447
SWIDTH 840 0
DWIDTH 7 0
BBX 7 13 0 -2
BITMAP
00
00
00
00
6c
7e
66
64
68
70
60
60
60
ENDCHAR
STARTCHAR LtSmlPipe
ENCODING 448
SWIDTH 840 0
DWIDTH 7 0
BBX 7 13 0 -2
BITMAP
00
18
18
18
18
18
18
18
18
18
18
00
00
ENDCHAR
STARTCHAR LtSmlPipe2
ENCODING 449
SWIDTH 840 0
DWIDTH 7 0
BBX 7 13 0 -2
BITMAP
00
6c
6c
6c
6c
6c
6c
6c
6c
6c
6c
00
00
ENDCHAR
STARTCHAR LtSmlPipeStroke2
ENCODING 450
SWIDTH 840 0
DWIDTH 7 0
BBX 7 13 0 -2
BITMAP
00
18
18
18
18
7e
18
7e
18
18
18
00
00
ENDCHAR
STARTCHAR LtSmlExcl
ENCODING 451
SWIDTH 840 0
DWIDTH 7 0
BBX 7 13 0 -2
BITMAP
00
18
18
18
18
18
18
18
00
18
18
00
00
ENDCHAR
STARTCHAR LtCapDZCaron
ENCODING 452
SWIDTH 840 0
DWIDTH 7 0
BBX 7 13 0 -2
BITMAP
0a
0e
64
7e
52
56
56
5c
5c
78
6e
00
00
ENDCHAR
STARTCHAR LtMixDZCaron
ENCODING 453
SWIDTH 840 0
DWIDTH 7 0
BBX 7 13 0 -2
BITMAP
0a
0e
64
70
5e
52
56
54
5c
78
6e
00
00
ENDCHAR
STARTCHAR LtSmlDZCaron
ENCODING 454
SWIDTH 840 0
DWIDTH 7 0
BBX 7 13 0 -2
BITMAP
0a
16
14
10
3e
72
56
54
5c
78
3e
00
00
ENDCHAR
STARTCHAR LtCapLJ
ENCODING 455
SWIDTH 840 0
DWIDTH 7 0
BBX 7 13 0 -2
BITMAP
00
00
6e
6e
62
62
62
6a
6a
7e
7c
00
00
ENDCHAR
STARTCHAR LtMixLJ
ENCODING 456
SWIDTH 840 0
DWIDTH 7 0
BBX 7 13 0 -2
BITMAP
00
06
66
60
6e
66
66
66
66
66
7e
06
1c
ENDCHAR
STARTCHAR LtSmlLJ
ENCODING 457
SWIDTH 840 0
DWIDTH 7 0
BBX 7 13 0 -2
BITMAP
00
e6
66
60
6e
66
66
66
66
66
f6
06
1c
ENDCHAR
STARTCHAR LtCapNJ
ENCODING 458
SWIDTH 840 0
DWIDTH 7 0
BBX 7 13 0 -2
BITMAP
00
00
4e
4a
6a
6a
7a
5a
5a
4e
4c
00
00
ENDCHAR
STARTCHAR LtMixNJ
ENCODING 459
SWIDTH 840 0
DWIDTH 7 0
BBX 7 13 0 -2
BITMAP
00
02
4a
48
6a
6a
7a
5a
5a
4a
4a
06
1c
ENDCHAR
STARTCHAR LtSmlNJ
ENCODING 460
SWIDTH 840 0
DWIDTH 7 0
BBX 7 13 0 -2
BITMAP
00
06
06
00
5a
7a
6a
6a
6a
6a
6a
06
1c
ENDCHAR
STARTCHAR LtCapACaron
ENCODING 461
SWIDTH 840 0
DWIDTH 7 0
BBX 7 13 0 -2
BITMAP
36
1c
00
18
18
3c
2c
2c
7e
46
46
00
00
ENDCHAR
STARTCHAR LtSmlACaron
ENCODING 462
SWIDTH 840 0
DWIDTH 7 0
BBX 7 13 0 -2
BITMAP
24
3c
18
00
3c
36
06
3e
66
66
3e
00
00
ENDCHAR
STARTCHAR LtCapICaron
ENCODING 463
SWIDTH 840 0
DWIDTH 7 0
BBX 7 13 0 -2
BITMAP
36
1c
00
7e
18
18
18
18
18
18
7e
00
00
ENDCHAR
STARTCHAR LtSmlICaron
ENCODING 464
SWIDTH 840 0
DWIDTH 7 0
BBX 7 13 0 -2
BITMAP
24
3c
18
00
38
18
18
18
18
18
7e
00
00
ENDCHAR
STARTCHAR LtCapOCaron
ENCODING 465
SWIDTH 840 0
DWIDTH 7 0
BBX 7 13 0 -2
BITMAP
36
1c
00
3c
66
66
66
66
66
66
3c
00
00
ENDCHAR
STARTCHAR LtSmlOCaron
ENCODING 466
SWIDTH 840 0
DWIDTH 7 0
BBX 7 13 0 -2
BITMAP
24
3c
18
00
3c
66
66
66
66
66
3c
00
00
ENDCHAR
STARTCHAR LtCapUCaron
ENCODING 467
SWIDTH 840 0
DWIDTH 7 0
BBX 7 13 0 -2
BITMAP
36
1c
00
66
66
66
66
66
66
66
3c
00
00
ENDCHAR
STARTCHAR LtSmlUCaron
ENCODING 468
SWIDTH 840 0
DWIDTH 7 0
BBX 7 13 0 -2
BITMAP
24
3c
18
00
66
66
66
66
66
6e
36
00
00
ENDCHAR
STARTCHAR LtCapUDrssMacron
ENCODING 469
SWIDTH 840 0
DWIDTH 7 0
BBX 7 13 0 -2
BITMAP
7e
00
66
00
66
66
66
66
66
66
3c
00
00
ENDCHAR
STARTCHAR LtSmlUDrssMacron
ENCODING 470
SWIDTH 840 0
DWIDTH 7 0
BBX 7 13 0 -2
BITMAP
3e
00
36
00
66
66
66
66
66
6e
36
00
00
ENDCHAR
STARTCHAR LtCapUDrssAcute
ENCODING 471
SWIDTH 840 0
DWIDTH 7 0
BBX 7 13 0 -2
BITMAP
0c
5a
66
00
66
66
66
66
66
66
3c
00
00
ENDCHAR
STARTCHAR LtSmlUDrssAcute
ENCODING 472
SWIDTH 840 0
DWIDTH 7 0
BBX 7 13 0 -2
BITMAP
0c
5a
66
00
66
66
66
66
66
6e
36
00
00
ENDCHAR
STARTCHAR LtCapUDrssCaron
ENCODING 473
SWIDTH 840 0
DWIDTH 7 0
BBX 7 13 0 -2
BITMAP
34
5a
66
00
66
66
66
66
66
66
3c
00
00
ENDCHAR
STARTCHAR LtSmlUDrssCaron
ENCODING 474
SWIDTH 840 0
DWIDTH 7 0
BBX 7 13 0 -2
BITMAP
34
5a
66
00
66
66
66
66
66
6e
36
00
00
ENDCHAR
STARTCHAR LtCapUDrssGrave
ENCODING 475
SWIDTH 840 0
DWIDTH 7 0
BBX 7 13 0 -2
BITMAP
30
5a
66
00
66
66
66
66
66
66
3c
00
00
ENDCHAR
STARTCHAR LtSmlUDrssGrave
ENCODING 476
SWIDTH 840 0
DWIDTH 7 0
BBX 7 13 0 -2
BITMAP
30
5a
66
00
66
66
66
66
66
6e
36
00
00
ENDCHAR
STARTCHAR LtSmlSchwaNig
ENCODING 477
SWIDTH 840 0
DWIDTH 7 0
BBX 7 13 0 -2
BITMAP
00
00
00
00
38
6c
06
7e
66
6c
38
00
00
ENDCHAR
STARTCHAR LtCapADrssMacron
ENCODING 478
SWIDTH 840 0
DWIDTH 7 0
BBX 7 13 0 -2
BITMAP
7e
00
66
08
18
3c
2c
2c
7e
46
46
00
00
ENDCHAR
STARTCHAR LtSmlADrssMacron
ENCODING 479
SWIDTH 840 0
DWIDTH 7 0
BBX 7 13 0 -2
BITMAP
3e
00
36
00
3c
36
06
3e
66
66
3e
00
00
ENDCHAR
STARTCHAR LtCapADotMacron
ENCODING 480
SWIDTH 840 0
DWIDTH 7 0
BBX 7 13 0 -2
BITMAP
7e
18
18
08
18
3c
2c
2c
7e
46
46
00
00
ENDCHAR
STARTCHAR LtSmlADotMacron
ENCODING 481
SWIDTH 840 0
DWIDTH 7 0
BBX 7 13 0 -2
BITMAP
7e
18
18
00
3c
36
06
3e
66
66
3e
00
00
ENDCHAR
STARTCHAR LtCapAEMacron
ENCODING 482
SWIDTH 840 0
DWIDTH 7 0
BBX 7 13 0 -2
BITMAP
3c
3c
00
3e
38
58
5e
58
f8
98
9e
00
00
ENDCHAR
STARTCHAR LtSmlAEMacron
ENCODING 483
SWIDTH 840 0
DWIDTH 7 0
BBX 7 13 0 -2
BITMAP
00
3c
3c
00
3e
7a
1a
3e
58
5a
7e
00
00
ENDCHAR
STARTCHAR LtCapGStroke
ENCODING 484
SWIDTH 840 0
DWIDTH 7 0
BBX 7 13 0 -2
BITMAP
00
00
1c
36
60
60
6e
66
6e
36
1e
00
00
ENDCHAR
STARTCHAR LtSmlGStroke
ENCODING 485
SWIDTH 840 0
DWIDTH 7 0
BBX 7 13 0 -2
BITMAP
00
00
00
00
3e
66
66
66
6e
36
1e
66
3c
ENDCHAR
STARTCHAR LtCapGCaron
ENCODING 486
SWIDTH 840 0
DWIDTH 7 0
BBX 7 13 0 -2
BITMAP
36
1c
00
1c
36
60
60
6e
66
36
1e
00
00
ENDCHAR
STARTCHAR LtSmlGCaron
ENCODING 487
SWIDTH 840 0
DWIDTH 7 0
BBX 7 13 0 -2
BITMAP
24
3c
18
00
3e
66
66
66
6e
36
06
66
3c
ENDCHAR
STARTCHAR LtCapKCaron
ENCODING 488
SWIDTH 840 0
DWIDTH 7 0
BBX 7 13 0 -2
BITMAP
6c
38
00
66
64
68
78
78
6c
66
66
00
00
ENDCHAR
STARTCHAR LtSmlKCaron
ENCODING 489
SWIDTH 840 0
DWIDTH 7 0
BBX 7 13 0 -2
BITMAP
36
1c
40
60
66
64
68
78
6c
66
66
00
00
ENDCHAR
STARTCHAR LtCapOOgonek
ENCODING 490
SWIDTH 840 0
DWIDTH 7 0
BBX 7 13 0 -2
BITMAP
00
00
3c
66
66
66
66
66
66
66
3c
18
0c
ENDCHAR
STARTCHAR LtSmlOOgonek
ENCODING 491
SWIDTH 840 0
DWIDTH 7 0
BBX 7 13 0 -2
BITMAP
00
00
00
00
3c
66
66
66
66
66
3c
18
0c
ENDCHAR
STARTCHAR LtCapOMacronOgonek
ENCODING 492
SWIDTH 840 0
DWIDTH 7 0
BBX 7 13 0 -2
BITMAP
3c
3c
00
3c
66
66
66
66
66
66
3c
18
0c
ENDCHAR
STARTCHAR LtSmlOMacronOgonek
ENCODING 493
SWIDTH 840 0
DWIDTH 7 0
BBX 7 13 0 -2
BITMAP
00
3c
3c
00
3c
66
66
66
66
66
3c
18
0c
ENDCHAR
STARTCHAR LtCapEzhCaron
ENCODING 494
SWIDTH 840 0
DWIDTH 7 0
BBX 7 13 0 -2
BITMAP
36
1c
00
7e
46
0c
1c
06
66
66
3c
00
00
ENDCHAR
STARTCHAR LtSmlEzhCaron
ENCODING 495
SWIDTH 840 0
DWIDTH 7 0
BBX 7 13 0 -2
BITMAP
24
3c
18
00
7e
46
0c
18
1c
06
66
66
3c
ENDCHAR
STARTCHAR LtSmlJCaron
ENCODING 496
SWIDTH 840 0
DWIDTH 7 0
BBX 7 13 0 -2
BITMAP
12
1e
0c
00
3c
0c
0c
0c
0c
0c
0c
6c
38
ENDCHAR
STARTCHAR LtCapDZ
ENCODING 497
SWIDTH 840 0
DWIDTH 7 0
BBX 7 13 0 -2
BITMAP
00
00
6e
72
56
56
54
5c
5c
78
6e
00
00
ENDCHAR
STARTCHAR LtMixDZ
ENCODING 498
SWIDTH 840 0
DWIDTH 7 0
BBX 7 13 0 -2
BITMAP
00
00
60
70
5e
52
56
54
5c
78
6e
00
00
ENDCHAR
STARTCHAR LtSmlDZ
ENCODING 499
SWIDTH 840 0
DWIDTH 7 0
BBX 7 13 0 -2
BITMAP
00
10
10
10
3e
72
56
54
5c
78
3e
00
00
ENDCHAR
STARTCHAR LtCapGAcute
ENCODING 500
SWIDTH 840 0
DWIDTH 7 0
BBX 7 13 0 -2
BITMAP
0e
18
00
1c
36
60
60
6e
66
36
1e
00
00
ENDCHAR
STARTCHAR LtSmlGAcute
ENCODING 501
SWIDTH 840 0
DWIDTH 7 0
BBX 7 13 0 -2
BITMAP
06
0c
08
00
3e
66
66
66
6e
36
06
66
3c
ENDCHAR
STARTCHAR LtCapHwair
ENCODING 502
SWIDTH 840 0
DWIDTH 7 0
BBX 7 13 0 -2
BITMAP
00
00
68
68
6a
6a
7a
6a
6a
6e
64
00
00
ENDCHAR
STARTCHAR LtCapWynn
ENCODING 503
SWIDTH 840 0
DWIDTH 7 0
BBX 7 13 0 -2
BITMAP
00
00
6c
7e
66
64
68
70
60
60
60
00
00
ENDCHAR
STARTCHAR LtCapNGrave
ENCODING 504
SWIDTH 840 0
DWIDTH 7 0
BBX 7 13 0 -2
BITMAP
70
18
00
62
72
72
5a
5a
4e
4e
46
00
00
ENDCHAR
STARTCHAR LtSmlNGrave
ENCODING 505
SWIDTH 840 0
DWIDTH 7 0
BBX 7 13 0 -2
BITMAP
30
18
08
00
6c
76
66
66
66
66
66
00
00
ENDCHAR
STARTCHAR LtCapARingAcute
ENCODING 506
SWIDTH 840 0
DWIDTH 7 0
BBX 7 13 0 -2
BITMAP
0e
18
34
18
18
3c
2c
2c
7e
46
46
00
00
ENDCHAR
STARTCHAR LtSmlARingAcute
ENCODING 507
SWIDTH 840 0
DWIDTH 7 0
BBX 7 13 0 -2
BITMAP
0e
18
34
18
3c
36
06
3e
66
66
3e
00
00
ENDCHAR
STARTCHAR LtCapAEAcute
ENCODING 508
SWIDTH 840 0
DWIDTH 7 0
BBX 7 13 0 -2
BITMAP
0e
18
00
3e
38
58
5e
58
f8
98
9e
00
00
ENDCHAR
STARTCHAR LtSmlAEAcute
ENCODING 509
SWIDTH 840 0
DWIDTH 7 0
BBX 7 13 0 -2
BITMAP
06
0c
08
00
3e
7a
1a
3e
58
5a
7e
00
00
ENDCHAR
STARTCHAR LtCapOStrokeAcute
ENCODING 510
SWIDTH 840 0
DWIDTH 7 0
BBX 7 13 0 -2
BITMAP
0e
18
02
3c
66
6e
6e
76
76
66
3c
40
00
ENDCHAR
STARTCHAR LtSmlOStrokeAcute
ENCODING 511
SWIDTH 840 0
DWIDTH 7 0
BBX 7 13 0 -2
BITMAP
06
0c
08
02
3c
66
6e
7e
76
66
3c
40
00
ENDCHAR
STARTCHAR LtCapAGrave2
ENCODING 512
SWIDTH 840 0
DWIDTH 7 0
BBX 7 13 0 -2
BITMAP
d8
6c
24
18
18
3c
2c
2c
7e
46
46
00
00
ENDCHAR
STARTCHAR LtSmlAGrave2
ENCODING 513
SWIDTH 840 0
DWIDTH 7 0
BBX 7 13 0 -2
BITMAP
58
6c
34
00
3c
36
06
3e
66
66
3e
00
00
ENDCHAR
STARTCHAR LtCapAInvbreve
ENCODING 514
SWIDTH 840 0
DWIDTH 7 0
BBX 7 13 0 -2
BITMAP
1c
36
00
18
18
3c
2c
2c
7e
46
46
00
00
ENDCHAR
STARTCHAR LtSmlAInvbreve
ENCODING 515
SWIDTH 840 0
DWIDTH 7 0
BBX 7 13 0 -2
BITMAP
00
1c
36
00
3c
36
06
3e
66
66
3e
00
00
ENDCHAR
STARTCHAR LtCapEGrave2
ENCODING 516
SWIDTH 840 0
DWIDTH 7 0
BBX 7 13 0 -2
BITMAP
d8
6c
24
7e
62
60
7c
64
60
62
7e
00
00
ENDCHAR
STARTCHAR LtSmlEGrave2
ENCODING 517
SWIDTH 840 0
DWIDTH 7 0
BBX 7 13 0 -2
BITMAP
58
6c
34
00
3c
66
66
7e
60
66
3c
00
00
ENDCHAR
STARTCHAR LtCapEInvbreve
ENCODING 518
SWIDTH 840 0
DWIDTH 7 0
BBX 7 13 0 -2
BITMAP
1c
36
00
7e
62
60
7c
64
60
62
7e
00
00
ENDCHAR
STARTCHAR LtSmlEInvbreve
ENCODING 519
SWIDTH 840 0
DWIDTH 7 0
BBX 7 13 0 -2
BITMAP
00
1c
36
00
3c
66
66
7e
60
66
3c
00
00
ENDCHAR
STARTCHAR LtCapIGrave2
ENCODING 520
SWIDTH 840 0
DWIDTH 7 0
BBX 7 13 0 -2
BITMAP
d8
6c
24
7e
18
18
18
18
18
18
7e
00
00
ENDCHAR
STARTCHAR LtSmlIGrave2
ENCODING 521
SWIDTH 840 0
DWIDTH 7 0
BBX 7 13 0 -2
BITMAP
58
6c
34
00
38
18
18
18
18
18
7e
00
00
ENDCHAR
STARTCHAR LtCapIInvbreve
ENCODING 522
SWIDTH 840 0
DWIDTH 7 0
BBX 7 13 0 -2
BITMAP
1c
36
00
7e
18
18
18
18
18
18
7e
00
00
ENDCHAR
STARTCHAR LtSmlIInvbreve
ENCODING 523
SWIDTH 840 0
DWIDTH 7 0
BBX 7 13 0 -2
BITMAP
00
38
6c
00
38
18
18
18
18
18
7e
00
00
ENDCHAR
STARTCHAR LtCapOGrave2
ENCODING 524
SWIDTH 840 0
DWIDTH 7 0
BBX 7 13 0 -2
BITMAP
d8
6c
24
3c
66
66
66
66
66
66
3c
00
00
ENDCHAR
STARTCHAR LtSmlOGrave2
ENCODING 525
SWIDTH 840 0
DWIDTH 7 0
BBX 7 13 0 -2
BITMAP
58
6c
34
00
3c
66
66
66
66
66
3c
00
00
ENDCHAR
STARTCHAR LtCapOInvbreve
ENCODING 526
SWIDTH 840 0
DWIDTH 7 0
BBX 7 13 0 -2
BITMAP
1c
36
00
3c
66
66
66
66
66
66
3c
00
00
ENDCHAR
STARTCHAR LtSmlOInvbreve
ENCODING 527
SWIDTH 840 0
DWIDTH 7 0
BBX 7 13 0 -2
BITMAP
00
1c
36
00
3c
66
66
66
66
66
3c
00
00
ENDCHAR
STARTCHAR LtCapRGrave2
ENCODING 528
SWIDTH 840 0
DWIDTH 7 0
BBX 7 13 0 -2
BITMAP
d8
6c
24
7c
66
66
7c
68
6c
66
66
00
00
ENDCHAR
STARTCHAR LtSmlRGrave2
ENCODING 529
SWIDTH 840 0
DWIDTH 7 0
BBX 7 13 0 -2
BITMAP
58
6c
34
00
76
3e
30
30
30
30
30
00
00
ENDCHAR
STARTCHAR LtCapRInvbreve
ENCODING 530
SWIDTH 840 0
DWIDTH 7 0
BBX 7 13 0 -2
BITMAP
1c
36
00
7c
66
66
7c
68
6c
66
66
00
00
ENDCHAR
STARTCHAR LtSmlRInvbreve
ENCODING 531
SWIDTH 840 0
DWIDTH 7 0
BBX 7 13 0 -2
BITMAP
00
1c
36
00
76
3e
30
30
30
30
30
00
00
ENDCHAR
STARTCHAR LtCapUGrave2
ENCODING 532
SWIDTH 840 0
DWIDTH 7 0
BBX 7 13 0 -2
BITMAP
d8
6c
24
42
66
66
66
66
66
66
3c
00
00
ENDCHAR
STARTCHAR LtSmlUGrave2
ENCODING 533
SWIDTH 840 0
DWIDTH 7 0
BBX 7 13 0 -2
BITMAP
58
6c
34
00
66
66
66
66
66
6e
36
00
00
ENDCHAR
STARTCHAR LtCapUInvbreve
ENCODING 534
SWIDTH 840 0
DWIDTH 7 0
BBX 7 13 0 -2
BITMAP
1c
36
00
66
66
66
66
66
66
66
3c
00
00
ENDCHAR
STARTCHAR LtSmlUInvbreve
ENCODING 535
SWIDTH 840 0
DWIDTH 7 0
BBX 7 13 0 -2
BITMAP
00
1c
36
00
66
66
66
66
66
6e
36
00
00
ENDCHAR
STARTCHAR LtCapSComma
ENCODING 536
SWIDTH 840 0
DWIDTH 7 0
BBX 7 13 0 -2
BITMAP
00
00
3c
66
60
70
3c
0e
06
66
3c
18
30
ENDCHAR
STARTCHAR LtSmlSComma
ENCODING 537
SWIDTH 840 0
DWIDTH 7 0
BBX 7 13 0 -2
BITMAP
00
00
00
00
3c
66
60
3c
06
66
3c
18
30
ENDCHAR
STARTCHAR LtCapTComma
ENCODING 538
SWIDTH 840 0
DWIDTH 7 0
BBX 7 13 0 -2
BITMAP
00
00
7e
5a
18
18
18
18
18
18
18
0c
18
ENDCHAR
STARTCHAR LtSmlTComma
ENCODING 539
SWIDTH 840 0
DWIDTH 7 0
BBX 7 13 0 -2
BITMAP
00
00
30
30
7c
30
30
30
30
36
1c
18
30
ENDCHAR
STARTCHAR LtCapYogh
ENCODING 540
SWIDTH 840 0
DWIDTH 7 0
BBX 7 13 0 -2
BITMAP
00
00
3c
66
06
1c
36
06
0c
38
60
00
00
ENDCHAR
STARTCHAR LtSmlYogh
ENCODING 541
SWIDTH 840 0
DWIDTH 7 0
BBX 7 13 0 -2
BITMAP
00
00
00
00
3c
66
06
1c
36
06
0c
38
60
ENDCHAR
STARTCHAR LtCapHCaron
ENCODING 542
SWIDTH 840 0
DWIDTH 7 0
BBX 7 13 0 -2
BITMAP
36
1c
00
66
66
66
7e
66
66
66
66
00
00
ENDCHAR
STARTCHAR LtSmlHCaron
ENCODING 543
SWIDTH 840 0
DWIDTH 7 0
BBX 7 13 0 -2
BITMAP
12
1e
4c
60
6c
76
66
66
66
66
66
00
00
ENDCHAR
STARTCHAR LtCapNLongleg
ENCODING 544
SWIDTH 840 0
DWIDTH 7 0
BBX 7 13 0 -2
BITMAP
00
00
5c
76
66
66
66
66
66
66
66
06
06
ENDCHAR
STARTCHAR LtSmlDCurl
ENCODING 545
SWIDTH 840 0
DWIDTH 7 0
BBX 7 13 0 -2
BITMAP
00
08
08
08
38
68
68
68
68
6e
36
04
08
ENDCHAR
STARTCHAR LtCapOu
ENCODING 546
SWIDTH 840 0
DWIDTH 7 0
BBX 7 13 0 -2
BITMAP
00
00
34
66
66
66
3c
66
66
66
3c
00
00
ENDCHAR
STARTCHAR LtSmlOu
ENCODING 547
SWIDTH 840 0
DWIDTH 7 0
BBX 7 13 0 -2
BITMAP
00
34
66
66
34
18
2c
66
66
66
3c
00
00
ENDCHAR
STARTCHAR LtCapZLhookL
ENCODING 548
SWIDTH 840 0
DWIDTH 7 0
BBX 7 13 0 -2
BITMAP
00
00
7e
46
0c
0c
18
30
30
60
7c
06
0c
ENDCHAR
STARTCHAR LtSmlZLhookL
ENCODING 549
SWIDTH 840 0
DWIDTH 7 0
BBX 7 13 0 -2
BITMAP
00
00
00
00
7e
4e
0c
18
30
70
7c
06
0c
ENDCHAR
STARTCHAR LtCapADot
ENCODING 550
SWIDTH 840 0
DWIDTH 7 0
BBX 7 13 0 -2
BITMAP
18
18
00
18
18
3c
2c
2c
7e
46
46
00
00
ENDCHAR
STARTCHAR LtSmlADot
ENCODING 551
SWIDTH 840 0
DWIDTH 7 0
BBX 7 13 0 -2
BITMAP
00
18
18
00
3c
36
06
3e
66
66
3e
00
00
ENDCHAR
STARTCHAR LtCapECedilla
ENCODING 552
SWIDTH 840 0
DWIDTH 7 0
BBX 7 13 0 -2
BITMAP
00
00
7e
62
60
64
7c
64
60
62
7e
18
30
ENDCHAR
STARTCHAR LtSmlECedilla
ENCODING 553
SWIDTH 840 0
DWIDTH 7 0
BBX 7 13 0 -2
BITMAP
00
00
00
00
3c
66
66
7e
60
66
3c
18
30
ENDCHAR
STARTCHAR LtCapODrssMacron
ENCODING 554
SWIDTH 840 0
DWIDTH 7 0
BBX 7 13 0 -2
BITMAP
7e
00
66
3c
66
66
66
66
66
66
3c
00
00
ENDCHAR
STARTCHAR LtSmlODrssMacron
ENCODING 555
SWIDTH 840 0
DWIDTH 7 0
BBX 7 13 0 -2
BITMAP
3e
00
36
00
3c
66
66
66
66
66
3c
00
00
ENDCHAR
STARTCHAR LtCapOTildeMacron
ENCODING 556
SWIDTH 840 0
DWIDTH 7 0
BBX 7 13 0 -2
BITMAP
7e
34
58
3c
66
66
66
66
66
66
3c
00
00
ENDCHAR
STARTCHAR LtSmlOTildeMacron
ENCODING 557
SWIDTH 840 0
DWIDTH 7 0
BBX 7 13 0 -2
BITMAP
7e
1a
2c
00
3c
66
66
66
66
66
3c
00
00
ENDCHAR
STARTCHAR LtCapODot
ENCODING 558
SWIDTH 840 0
DWIDTH 7 0
BBX 7 13 0 -2
BITMAP
18
18
00
3c
66
66
66
66
66
66
3c
00
00
ENDCHAR
STARTCHAR LtSmlODot
ENCODING 559
SWIDTH 840 0
DWIDTH 7 0
BBX 7 13 0 -2
BITMAP
00
18
18
00
3c
66
66
66
66
66
3c
00
00
ENDCHAR
STARTCHAR LtCapODotMacron
ENCODING 560
SWIDTH 840 0
DWIDTH 7 0
BBX 7 13 0 -2
BITMAP
7e
18
18
3c
66
66
66
66
66
66
3c
00
00
ENDCHAR
STARTCHAR LtSmlODotMacron
ENCODING 561
SWIDTH 840 0
DWIDTH 7 0
BBX 7 13 0 -2
BITMAP
7e
18
18
00
3c
66
66
66
66
66
3c
00
00
ENDCHAR
STARTCHAR LtCapYMacron
ENCODING 562
SWIDTH 840 0
DWIDTH 7 0
BBX 7 13 0 -2
BITMAP
3c
3c
00
66
66
34
38
18
18
18
18
00
00
ENDCHAR
STARTCHAR LtSmlYMacron
ENCODING 563
SWIDTH 840 0
DWIDTH 7 0
BBX 7 13 0 -2
BITMAP
00
3c
3c
00
62
62
34
34
1c
18
08
58
70
ENDCHAR
STARTCHAR LtSmlLCurl
ENCODING 564
SWIDTH 840 0
DWIDTH 7 0
BBX 7 13 0 -2
BITMAP
00
70
30
30
30
30
30
30
30
36
7e
04
08
ENDCHAR
STARTCHAR LtSmlNCurl
ENCODING 565
SWIDTH 840 0
DWIDTH 7 0
BBX 7 13 0 -2
BITMAP
00
00
00
00
50
68
68
68
68
6e
66
04
08
ENDCHAR
STARTCHAR LtSmlTCurl
ENCODING 566
SWIDTH 840 0
DWIDTH 7 0
BBX 7 13 0 -2
BITMAP
00
00
30
30
7c
30
30
30
30
36
1e
04
08
ENDCHAR
STARTCHAR LtSmlJDotless
ENCODING 567
SWIDTH 840 0
DWIDTH 7 0
BBX 7 13 0 -2
BITMAP
00
00
00
00
3c
0c
0c
0c
0c
0c
0c
6c
38
ENDCHAR
STARTCHAR LtSmlDB
ENCODING 568
SWIDTH 840 0
DWIDTH 7 0
BBX 7 13 0 -2
BITMAP
00
18
18
18
3c
5a
5a
5a
5a
5a
3c
00
00
ENDCHAR
STARTCHAR LtSmlQP
ENCODING 569
SWIDTH 840 0
DWIDTH 7 0
BBX 7 13 0 -2
BITMAP
00
00
00
00
3c
5a
5a
5a
5a
5a
3c
18
18
ENDCHAR
STARTCHAR LtCapAStroke
ENCODING 570
SWIDTH 840 0
DWIDTH 7 0
BBX 7 13 0 -2
BITMAP
00
02
1a
1c
1c
3c
2c
2c
7e
66
66
40
00
ENDCHAR
STARTCHAR LtCapCStroke
ENCODING 571
SWIDTH 840 0
DWIDTH 7 0
BBX 7 13 0 -2
BITMAP
00
02
1e
36
64
68
68
70
70
36
3c
20
00
ENDCHAR
STARTCHAR LtSmlCStroke
ENCODING 572
SWIDTH 840 0
DWIDTH 7 0
BBX 7 13 0 -2
BITMAP
00
00
00
02
3c
66
68
68
70
76
3c
20
00
ENDCHAR
STARTCHAR LtCapLStrokeH
ENCODING 573
SWIDTH 840 0
DWIDTH 7 0
BBX 7 13 0 -2
BITMAP
00
00
60
60
60
60
f8
60
60
62
7e
00
00
ENDCHAR
STARTCHAR LtCapTStrokeD
ENCODING 574
SWIDTH 840 0
DWIDTH 7 0
BBX 7 13 0 -2
BITMAP
00
02
7e
5a
1c
1c
18
18
18
38
58
40
00
ENDCHAR
STARTCHAR LtSmlSSwash
ENCODING 575
SWIDTH 840 0
DWIDTH 7 0
BBX 7 13 0 -2
BITMAP
00
00
00
00
3c
66
60
3c
06
66
3c
18
0e
ENDCHAR
STARTCHAR LtSmlZSwash
ENCODING 576
SWIDTH 840 0
DWIDTH 7 0
BBX 7 13 0 -2
BITMAP
00
00
00
00
7e
4e
0c
18
30
70
70
1a
0e
ENDCHAR
STARTCHAR LtCapGlot1
ENCODING 577
SWIDTH 840 0
DWIDTH 7 0
BBX 7 13 0 -2
BITMAP
00
00
3c
66
66
06
1c
18
18
18
18
00
00
ENDCHAR
STARTCHAR LtSmlGlot1
ENCODING 578
SWIDTH 840 0
DWIDTH 7 0
BBX 7 13 0 -2
BITMAP
00
00
00
00
3c
66
66
06
1c
18
18
00
00
ENDCHAR
STARTCHAR LtCapBStroke
ENCODING 579
SWIDTH 840 0
DWIDTH 7 0
BBX 7 13 0 -2
BITMAP
00
00
7c
66
66
64
7c
66
f6
66
7c
00
00
ENDCHAR
STARTCHAR LtCapUStroke
ENCODING 580
SWIDTH 840 0
DWIDTH 7 0
BBX 7 13 0 -2
BITMAP
00
00
66
66
66
66
7e
66
66
66
3c
00
00
ENDCHAR
STARTCHAR LtCapVTrnd
ENCODING 581
SWIDTH 840 0
DWIDTH 7 0
BBX 7 13 0 -2
BITMAP
00
00
10
18
18
38
2c
2c
44
46
46
00
00
ENDCHAR
STARTCHAR LtCapEStroke
ENCODING 582
SWIDTH 840 0
DWIDTH 7 0
BBX 7 13 0 -2
BITMAP
00
02
7e
66
64
64
7c
6c
70
72
7e
20
20
ENDCHAR
STARTCHAR LtSmlEStroke
ENCODING 583
SWIDTH 840 0
DWIDTH 7 0
BBX 7 13 0 -2
BITMAP
00
00
00
02
3c
66
6e
7e
70
76
3c
40
00
ENDCHAR
STARTCHAR LtCapJStroke
ENCODING 584
SWIDTH 840 0
DWIDTH 7 0
BBX 7 13 0 -2
BITMAP
00
00
1e
0c
0c
0c
3e
0c
6c
6c
38
00
00
ENDCHAR
STARTCHAR LtSmlJStroke
ENCODING 585
SWIDTH 840 0
DWIDTH 7 0
BBX 7 13 0 -2
BITMAP
00
0c
0c
00
3c
0c
0c
3e
0c
0c
0c
6c
38
ENDCHAR
STARTCHAR LtCapQHooktail
ENCODING 586
SWIDTH 840 0
DWIDTH 7 0
BBX 7 13 0 -2
BITMAP
00
00
3c
6c
6c
6c
6c
6c
6c
6c
3c
0c
06
ENDCHAR
STARTCHAR LtSmlQHooktail
ENCODING 587
SWIDTH 840 0
DWIDTH 7 0
BBX 7 13 0 -2
BITMAP
00
00
00
00
3c
6c
6c
6c
6c
6c
3c
0c
06
ENDCHAR
STARTCHAR LtCapRStroke
ENCODING 588
SWIDTH 840 0
DWIDTH 7 0
BBX 7 13 0 -2
BITMAP
00
00
7c
66
66
6c
fe
68
6c
66
66
00
00
ENDCHAR
STARTCHAR LtSmlRStroke
ENCODING 589
SWIDTH 840 0
DWIDTH 7 0
BBX 7 13 0 -2
BITMAP
00
00
00
00
76
3e
30
7c
30
30
30
00
00
ENDCHAR
STARTCHAR LtCapYStroke
ENCODING 590
SWIDTH 840 0
DWIDTH 7 0
BBX 7 13 0 -2
BITMAP
00
00
66
24
7e
34
18
18
18
18
18
00
00
ENDCHAR
STARTCHAR LtSmlYStroke
ENCODING 591
SWIDTH 840 0
DWIDTH 7 0
BBX 7 13 0 -2
BITMAP
00
00
00
00
62
22
7e
34
1c
18
08
58
70
ENDCHAR
STARTCHAR LtSmlATrnd
ENCODING 592
SWIDTH 840 0
DWIDTH 7 0
BBX 7 13 0 -2
BITMAP
00
00
00
00
6c
76
66
7c
60
6c
3c
00
00
ENDCHAR
STARTCHAR LtSmlAScr
ENCODING 593
SWIDTH 840 0
DWIDTH 7 0
BBX 7 13 0 -2
BITMAP
00
00
00
00
36
6e
66
66
66
6e
36
00
00
ENDCHAR
STARTCHAR LtSmlAScrTrnd
ENCODING 594
SWIDTH 840 0
DWIDTH 7 0
BBX 7 13 0 -2
BITMAP
00
00
00
00
6c
76
66
66
66
76
6c
00
00
ENDCHAR
STARTCHAR LtSmlBHook
ENCODING 595
SWIDTH 840 0
DWIDTH 7 0
BBX 7 13 0 -2
BITMAP
00
38
60
60
6c
76
66
66
66
76
6c
00
00
ENDCHAR
STARTCHAR LtSmlCTrnd
ENCODING 596
SWIDTH 840 0
DWIDTH 7 0
BBX 7 13 0 -2
BITMAP
00
00
00
00
3c
66
06
06
06
66
3c
00
00
ENDCHAR
STARTCHAR LtSmlCCurl
ENCODING 597
SWIDTH 840 0
DWIDTH 7 0
BBX 7 13 0 -2
BITMAP
00
00
00
00
3c
66
60
60
60
66
3e
04
08
ENDCHAR
STARTCHAR LtSmlDLhook
ENCODING 598
SWIDTH 840 0
DWIDTH 7 0
BBX 7 13 0 -2
BITMAP
00
0c
0c
0c
3c
6c
6c
6c
6c
6c
3c
0c
06
ENDCHAR
STARTCHAR LtSmlDHook
ENCODING 599
SWIDTH 840 0
DWIDTH 7 0
BBX 7 13 0 -2
BITMAP
00
06
0c
0c
3c
6c
6c
6c
6c
6c
3c
00
00
ENDCHAR
STARTCHAR LtSmlERev
ENCODING 600
SWIDTH 840 0
DWIDTH 7 0
BBX 7 13 0 -2
BITMAP
00
00
00
00
3c
66
66
7e
06
66
3c
00
00
ENDCHAR
STARTCHAR LtSmlSchwa
ENCODING 601
SWIDTH 840 0
DWIDTH 7 0
BBX 7 13 0 -2
BITMAP
00
00
00
00
38
6c
06
7e
66
6c
38
00
00
ENDCHAR
STARTCHAR LtSmlSchwaHook
ENCODING 602
SWIDTH 840 0
DWIDTH 7 0
BBX 7 13 0 -2
BITMAP
00
00
00
00
30
7a
0e
7e
4c
78
30
00
00
ENDCHAR
STARTCHAR LtSmlEps
ENCODING 603
SWIDTH 840 0
DWIDTH 7 0
BBX 7 13 0 -2
BITMAP
00
00
00
00
3c
66
60
38
60
66
3c
00
00
ENDCHAR
STARTCHAR LtSmlEpsRev
ENCODING 604
SWIDTH 840 0
DWIDTH 7 0
BBX 7 13 0 -2
BITMAP
00
00
00
00
3c
66
06
1c
06
66
3c
00
00
ENDCHAR
STARTCHAR LtSmlEpsRevHook
ENCODING 605
SWIDTH 840 0
DWIDTH 7 0
BBX 7 13 0 -2
BITMAP
00
00
00
00
38
6e
0e
1a
08
6c
38
00
00
ENDCHAR
STARTCHAR LtSmlEpsRevClsd
ENCODING 606
SWIDTH 840 0
DWIDTH 7 0
BBX 7 13 0 -2
BITMAP
00
00
00
00
3c
66
46
5c
46
66
3c
00
00
ENDCHAR
STARTCHAR LtSmlFTrnd
ENCODING 607
SWIDTH 840 0
DWIDTH 7 0
BBX 7 13 0 -2
BITMAP
00
00
00
00
18
18
18
18
18
7e
18
58
70
ENDCHAR
STARTCHAR LtSmlGHook
ENCODING 608
SWIDTH 840 0
DWIDTH 7 0
BBX 7 13 0 -2
BITMAP
00
06
0c
0c
3c
6c
6c
6c
6c
3c
0c
6c
38
ENDCHAR
STARTCHAR LtSmlGScr
ENCODING 609
SWIDTH 840 0
DWIDTH 7 0
BBX 7 13 0 -2
BITMAP
00
00
00
00
3e
66
66
66
6e
36
06
66
3c
ENDCHAR
STARTCHAR LtSmlGSmc
ENCODING 610
SWIDTH 840 0
DWIDTH 7 0
BBX 7 13 0 -2
BITMAP
00
00
00
00
1c
36
60
6e
66
36
1a
00
00
ENDCHAR
STARTCHAR LtSmlGam
ENCODING 611
SWIDTH 840 0
DWIDTH 7 0
BBX 7 13 0 -2
BITMAP
00
00
00
00
66
64
34
38
18
3c
2c
2c
18
ENDCHAR
STARTCHAR LtSmlGamSml
ENCODING 612
SWIDTH 840 0
DWIDTH 7 0
BBX 7 13 0 -2
BITMAP
00
00
00
00
66
34
38
18
3c
2c
18
00
00
ENDCHAR
STARTCHAR LtSmlHTrnd
ENCODING 613
SWIDTH 840 0
DWIDTH 7 0
BBX 7 13 0 -2
BITMAP
00
00
00
00
66
66
66
66
66
6e
36
06
06
ENDCHAR
STARTCHAR LtSmlHHook
ENCODING 614
SWIDTH 840 0
DWIDTH 7 0
BBX 7 13 0 -2
BITMAP
00
38
60
60
6c
76
66
66
66
66
66
00
00
ENDCHAR
STARTCHAR LtSmlHHookLhook
ENCODING 615
SWIDTH 840 0
DWIDTH 7 0
BBX 7 13 0 -2
BITMAP
00
38
60
60
6c
76
66
66
66
66
66
06
1c
ENDCHAR
STARTCHAR LtSmlIStroke
ENCODING 616
SWIDTH 840 0
DWIDTH 7 0
BBX 7 13 0 -2
BITMAP
00
18
18
00
38
18
18
7e
18
18
7e
00
00
ENDCHAR
STARTCHAR LtSmlIot
ENCODING 617
SWIDTH 840 0
DWIDTH 7 0
BBX 7 13 0 -2
BITMAP
00
00
00
00
30
30
30
30
30
36
1c
00
00
ENDCHAR
STARTCHAR LtSmlISmc
ENCODING 618
SWIDTH 840 0
DWIDTH 7 0
BBX 7 13 0 -2
BITMAP
00
00
00
00
7e
18
18
18
18
18
7e
00
00
ENDCHAR
STARTCHAR LtSmlLMtilde
ENCODING 619
SWIDTH 840 0
DWIDTH 7 0
BBX 7 13 0 -2
BITMAP
00
38
18
18
18
3a
5c
18
18
18
7e
00
00
ENDCHAR
STARTCHAR LtSmlLBelt
ENCODING 620
SWIDTH 840 0
DWIDTH 7 0
BBX 7 13 0 -2
BITMAP
00
38
18
18
78
5a
3c
18
18
18
7e
00
00
ENDCHAR
STARTCHAR LtSmlLLhook
ENCODING 621
SWIDTH 840 0
DWIDTH 7 0
BBX 7 13 0 -2
BITMAP
00
38
18
18
18
18
18
18
18
18
18
1a
0e
ENDCHAR
STARTCHAR LtSmlLEzh
ENCODING 622
SWIDTH 840 0
DWIDTH 7 0
BBX 7 13 0 -2
BITMAP
00
70
30
30
3e
36
36
36
34
36
7e
06
3c
ENDCHAR
STARTCHAR LtSmlMTrnd
ENCODING 623
SWIDTH 840 0
DWIDTH 7 0
BBX 7 13 0 -2
BITMAP
00
00
00
00
56
56
56
56
7e
7e
36
00
00
ENDCHAR
STARTCHAR LtSmlMTrndLongleg
ENCODING 624
SWIDTH 840 0
DWIDTH 7 0
BBX 7 13 0 -2
BITMAP
00
00
00
00
56
56
56
56
7e
7e
36
06
06
ENDCHAR
STARTCHAR LtSmlMLhook
ENCODING 625
SWIDTH 840 0
DWIDTH 7 0
BBX 7 13 0 -2
BITMAP
00
00
00
00
6c
7e
7e
6a
6a
6a
6a
02
1c
ENDCHAR
STARTCHAR LtSmlNLhookL
ENCODING 626
SWIDTH 840 0
DWIDTH 7 0
BBX 7 13 0 -2
BITMAP
00
00
00
00
6c
76
66
66
66
66
66
60
c0
ENDCHAR
STARTCHAR LtSmlNLhook
ENCODING 627
SWIDTH 840 0
DWIDTH 7 0
BBX 7 13 0 -2
BITMAP
00
00
00
00
58
6c
6c
6c
6c
6c
6c
0c
06
ENDCHAR
STARTCHAR LtSmlNSmc
ENCODING 628
SWIDTH 840 0
DWIDTH 7 0
BBX 7 13 0 -2
BITMAP
00
00
00
00
62
72
7a
5e
4e
46
42
00
00
ENDCHAR
STARTCHAR LtSmlOStrokeH
ENCODING 629
SWIDTH 840 0
DWIDTH 7 0
BBX 7 13 0 -2
BITMAP
00
00
00
00
3c
66
66
7e
66
66
3c
00
00
ENDCHAR
STARTCHAR LtSmlOESmc
ENCODING 630
SWIDTH 840 0
DWIDTH 7 0
BBX 7 13 0 -2
BITMAP
00
00
00
00
3e
7a
58
5e
58
7a
3e
00
00
ENDCHAR
STARTCHAR LtSmlOmeClsd
ENCODING 631
SWIDTH 840 0
DWIDTH 7 0
BBX 7 13 0 -2
BITMAP
00
00
00
00
3c
66
42
5a
5a
7e
24
00
00
ENDCHAR
STARTCHAR LtSmlPhi
ENCODING 632
SWIDTH 840 0
DWIDTH 7 0
BBX 7 13 0 -2
BITMAP
00
18
18
18
3c
6a
6a
6a
6a
6a
3c
18
18
ENDCHAR
STARTCHAR LtSmlRTrnd
ENCODING 633
SWIDTH 840 0
DWIDTH 7 0
BBX 7 13 0 -2
BITMAP
00
00
00
00
0c
0c
0c
0c
0c
7c
6e
00
00
ENDCHAR
STARTCHAR LtSmlRTrndLongleg
ENCODING 634
SWIDTH 840 0
DWIDTH 7 0
BBX 7 13 0 -2
BITMAP
00
0c
0c
0c
0c
0c
0c
0c
0c
7c
6e
00
00
ENDCHAR
STARTCHAR LtSmlRTrndLhook
ENCODING 635
SWIDTH 840 0
DWIDTH 7 0
BBX 7 13 0 -2
BITMAP
00
00
00
00
0c
0c
0c
0c
0c
7c
6c
0c
06
ENDCHAR
STARTCHAR LtSmlRLongleg
ENCODING 636
SWIDTH 840 0
DWIDTH 7 0
BBX 7 13 0 -2
BITMAP
00
00
00
00
76
3e
30
30
30
30
30
30
30
ENDCHAR
STARTCHAR LtSmlRLhook
ENCODING 637
SWIDTH 840 0
DWIDTH 7 0
BBX 7 13 0 -2
BITMAP
00
00
00
00
76
3e
30
30
30
30
30
34
1c
ENDCHAR
STARTCHAR LtSmlRFish
ENCODING 638
SWIDTH 840 0
DWIDTH 7 0
BBX 7 13 0 -2
BITMAP
00
00
00
00
3c
66
66
60
60
60
60
00
00
ENDCHAR
STARTCHAR LtSmlRFishRev
ENCODING 639
SWIDTH 840 0
DWIDTH 7 0
BBX 7 13 0 -2
BITMAP
00
00
00
00
3c
66
66
06
06
06
06
00
00
ENDCHAR
STARTCHAR LtSmlRSmc
ENCODING 640
SWIDTH 840 0
DWIDTH 7 0
BBX 7 13 0 -2
BITMAP
00
00
00
00
7c
66
66
78
6c
64
66
00
00
ENDCHAR
STARTCHAR LtSmlRSmcInv
ENCODING 641
SWIDTH 840 0
DWIDTH 7 0
BBX 7 13 0 -2
BITMAP
00
00
00
00
66
64
6c
78
66
66
7c
00
00
ENDCHAR
STARTCHAR LtSmlSLhook
ENCODING 642
SWIDTH 840 0
DWIDTH 7 0
BBX 7 13 0 -2
BITMAP
00
00
00
00
3c
66
60
3c
06
66
7c
60
38
ENDCHAR
STARTCHAR LtSmlEsh
ENCODING 643
SWIDTH 840 0
DWIDTH 7 0
BBX 7 13 0 -2
BITMAP
00
0e
1a
18
18
18
18
18
18
18
18
58
70
ENDCHAR
STARTCHAR LtSmlFTrndHook
ENCODING 644
SWIDTH 840 0
DWIDTH 7 0
BBX 7 13 0 -2
BITMAP
00
0e
1a
18
18
18
18
18
18
7e
18
58
70
ENDCHAR
STARTCHAR LtSmlEshSmlRev
ENCODING 645
SWIDTH 840 0
DWIDTH 7 0
BBX 7 13 0 -2
BITMAP
00
00
00
00
70
58
18
18
18
1a
0e
00
00
ENDCHAR
STARTCHAR LtSmlEshCurl
ENCODING 646
SWIDTH 840 0
DWIDTH 7 0
BBX 7 13 0 -2
BITMAP
00
0e
1a
18
18
18
18
18
18
18
3c
5a
72
ENDCHAR
STARTCHAR LtSmlTTrnd
ENCODING 647
SWIDTH 840 0
DWIDTH 7 0
BBX 7 13 0 -2
BITMAP
00
00
00
00
38
6c
0c
0c
0c
0c
3e
0c
0c
ENDCHAR
STARTCHAR LtSmlTLhook
ENCODING 648
SWIDTH 840 0
DWIDTH 7 0
BBX 7 13 0 -2
BITMAP
00
00
30
30
7c
30
30
30
30
30
30
36
1c
ENDCHAR
STARTCHAR LtSmlUStroke
ENCODING 649
SWIDTH 840 0
DWIDTH 7 0
BBX 7 13 0 -2
BITMAP
00
00
00
00
66
66
7e
66
66
6e
36
00
00
ENDCHAR
STARTCHAR LtSmlUps
ENCODING 650
SWIDTH 840 0
DWIDTH 7 0
BBX 7 13 0 -2
BITMAP
00
00
00
00
66
24
66
66
66
66
3c
00
00
ENDCHAR
STARTCHAR LtSmlVHook
ENCODING 651
SWIDTH 840 0
DWIDTH 7 0
BBX 7 13 0 -2
BITMAP
00
00
00
00
6c
66
66
66
66
6c
38
00
00
ENDCHAR
STARTCHAR LtSmlVTrnd
ENCODING 652
SWIDTH 840 0
DWIDTH 7 0
BBX 7 13 0 -2
BITMAP
00
00
00
00
10
18
38
2c
6c
46
46
00
00
ENDCHAR
STARTCHAR LtSmlWTrnd
ENCODING 653
SWIDTH 840 0
DWIDTH 7 0
BBX 7 13 0 -2
BITMAP
00
00
00
00
2c
2c
7e
56
56
56
46
00
00
ENDCHAR
STARTCHAR LtSmlYTrnd
ENCODING 654
SWIDTH 840 0
DWIDTH 7 0
BBX 7 13 0 -2
BITMAP
00
0e
0a
18
10
18
38
2c
2c
46
46
00
00
ENDCHAR
STARTCHAR LtSmlYSmc
ENCODING 655
SWIDTH 840 0
DWIDTH 7 0
BBX 7 13 0 -2
BITMAP
00
00
00
00
62
64
34
18
18
18
18
00
00
ENDCHAR
STARTCHAR LtSmlZLhook
ENCODING 656
SWIDTH 840 0
DWIDTH 7 0
BBX 7 13 0 -2
BITMAP
00
00
00
00
7e
4e
0c
18
30
72
7c
0c
06
ENDCHAR
STARTCHAR LtSmlZCurl
ENCODING 657
SWIDTH 840 0
DWIDTH 7 0
BBX 7 13 0 -2
BITMAP
00
00
00
00
7e
4e
0c
18
30
76
7e
04
08
ENDCHAR
STARTCHAR LtSmlEzh
ENCODING 658
SWIDTH 840 0
DWIDTH 7 0
BBX 7 13 0 -2
BITMAP
00
00
00
00
7e
46
0c
18
1c
06
66
66
3c
ENDCHAR
STARTCHAR LtSmlEzhCurl
ENCODING 659
SWIDTH 840 0
DWIDTH 7 0
BBX 7 13 0 -2
BITMAP
00
00
00
00
7e
46
0c
18
1c
06
36
6c
3a
ENDCHAR
STARTCHAR LtSmlGlot
ENCODING 660
SWIDTH 840 0
DWIDTH 7 0
BBX 7 13 0 -2
BITMAP
00
3c
66
66
0c
18
18
18
18
18
18
00
00
ENDCHAR
STARTCHAR LtSmlAin
ENCODING 661
SWIDTH 840 0
DWIDTH 7 0
BBX 7 13 0 -2
BITMAP
00
3c
66
66
30
18
18
18
18
18
18
00
00
ENDCHAR
STARTCHAR LtSmlGlotInv
ENCODING 662
SWIDTH 840 0
DWIDTH 7 0
BBX 7 13 0 -2
BITMAP
00
18
18
18
18
18
18
0c
66
66
3c
00
00
ENDCHAR
STARTCHAR LtSmlCStretch
ENCODING 663
SWIDTH 840 0
DWIDTH 7 0
BBX 7 13 0 -2
BITMAP
00
00
00
00
3c
64
60
60
60
60
60
64
3c
ENDCHAR
STARTCHAR LtSmlBullseye
ENCODING 664
SWIDTH 840 0
DWIDTH 7 0
BBX 7 13 0 -2
BITMAP
00
00
00
00
3c
66
42
5a
42
66
3c
00
00
ENDCHAR
STARTCHAR LtSmlBSmc
ENCODING 665
SWIDTH 840 0
DWIDTH 7 0
BBX 7 13 0 -2
BITMAP
00
00
00
00
7c
66
64
7c
66
66
7c
00
00
ENDCHAR
STARTCHAR LtSmlEpsClsd
ENCODING 666
SWIDTH 840 0
DWIDTH 7 0
BBX 7 13 0 -2
BITMAP
00
00
00
00
3c
66
62
3a
62
66
3c
00
00
ENDCHAR
STARTCHAR LtSmlGSmcHook
ENCODING 667
SWIDTH 840 0
DWIDTH 7 0
BBX 7 13 0 -2
BITMAP
00
06
0c
0c
1c
36
60
6e
66
36
1a
00
00
ENDCHAR
STARTCHAR LtSmlHSmc
ENCODING 668
SWIDTH 840 0
DWIDTH 7 0
BBX 7 13 0 -2
BITMAP
00
00
00
00
66
66
66
7e
66
66
66
00
00
ENDCHAR
STARTCHAR LtSmlJCurl
ENCODING 669
SWIDTH 840 0
DWIDTH 7 0
BBX 7 13 0 -2
BITMAP
00
0c
0c
00
3c
0c
0c
0c
0c
3e
6c
6c
38
ENDCHAR
STARTCHAR LtSmlKTrnd
ENCODING 670
SWIDTH 840 0
DWIDTH 7 0
BBX 7 13 0 -2
BITMAP
00
00
00
00
66
66
36
1e
36
26
66
06
06
ENDCHAR
STARTCHAR LtSmlLSmc
ENCODING 671
SWIDTH 840 0
DWIDTH 7 0
BBX 7 13 0 -2
BITMAP
00
00
00
00
60
60
60
60
60
66
7e
00
00
ENDCHAR
STARTCHAR LtSmlQHook
ENCODING 672
SWIDTH 840 0
DWIDTH 7 0
BBX 7 13 0 -2
BITMAP
00
06
0c
0c
3c
6c
6c
6c
6c
6c
3c
0c
0c
ENDCHAR
STARTCHAR LtSmlGlotStroke
ENCODING 673
SWIDTH 840 0
DWIDTH 7 0
BBX 7 13 0 -2
BITMAP
00
3c
66
66
0c
18
18
7e
18
18
18
00
00
ENDCHAR
STARTCHAR LtSmlAinStroke
ENCODING 674
SWIDTH 840 0
DWIDTH 7 0
BBX 7 13 0 -2
BITMAP
00
3c
66
66
30
18
18
7e
18
18
18
00
00
ENDCHAR
STARTCHAR LtSmlDZIpa
ENCODING 675
SWIDTH 840 0
DWIDTH 7 0
BBX 7 13 0 -2
BITMAP
00
10
10
10
3e
72
56
54
5c
78
3e
00
00
ENDCHAR
STARTCHAR LtSmlDEzh
ENCODING 676
SWIDTH 840 0
DWIDTH 7 0
BBX 7 13 0 -2
BITMAP
00
10
10
10
3e
72
56
54
5c
76
36
06
1c
ENDCHAR
STARTCHAR LtSmlDZCurl
ENCODING 677
SWIDTH 840 0
DWIDTH 7 0
BBX 7 13 0 -2
BITMAP
00
10
10
10
3e
72
56
54
5c
7a
3e
04
08
ENDCHAR
STARTCHAR LtSmlTS
ENCODING 678
SWIDTH 840 0
DWIDTH 7 0
BBX 7 13 0 -2
BITMAP
00
00
60
60
fe
68
6c
6e
66
62
3c
00
00
ENDCHAR
STARTCHAR LtSmlTEsh
ENCODING 679
SWIDTH 840 0
DWIDTH 7 0
BBX 7 13 0 -2
BITMAP
00
06
6c
6c
fc
6c
6c
6c
6c
6c
3c
0c
38
ENDCHAR
STARTCHAR LtSmlTCCurl
ENCODING 680
SWIDTH 840 0
DWIDTH 7 0
BBX 7 13 0 -2
BITMAP
00
00
60
60
f6
6e
68
68
68
6e
36
04
08
ENDCHAR
STARTCHAR LtSmlFEng
ENCODING 681
SWIDTH 840 0
DWIDTH 7 0
BBX 7 13 0 -2
BITMAP
00
30
60
60
6c
fe
6a
6a
6a
6a
6a
02
0c
ENDCHAR
STARTCHAR LtSmlLS
ENCODING 682
SWIDTH 840 0
DWIDTH 7 0
BBX 7 13 0 -2
BITMAP
00
70
30
30
36
3a
38
3c
36
32
7c
00
00
ENDCHAR
STARTCHAR LtSmlLZ
ENCODING 683
SWIDTH 840 0
DWIDTH 7 0
BBX 7 13 0 -2
BITMAP
00
70
30
30
3e
32
36
34
3c
38
7e
00
00
ENDCHAR
STARTCHAR LtSmlW2
ENCODING 684
SWIDTH 840 0
DWIDTH 7 0
BBX 7 13 0 -2
BITMAP
00
62
6a
6a
7e
34
42
6a
6a
7e
34
00
00
ENDCHAR
STARTCHAR LtSmlBridge2
ENCODING 685
SWIDTH 840 0
DWIDTH 7 0
BBX 7 13 0 -2
BITMAP
00
7e
7e
66
66
00
00
7e
7e
66
66
00
00
ENDCHAR
STARTCHAR LtSmlHTrndHook
ENCODING 686
SWIDTH 840 0
DWIDTH 7 0
BBX 7 13 0 -2
BITMAP
00
00
00
00
66
36
36
36
36
36
1e
06
06
ENDCHAR
STARTCHAR LtSmlHTrndHookLhook
ENCODING 687
SWIDTH 840 0
DWIDTH 7 0
BBX 7 13 0 -2
BITMAP
00
00
00
00
cc
6c
6c
6c
6c
6c
3c
0c
06
ENDCHAR
STARTCHAR SupSmlH
ENCODING 688
SWIDTH 840 0
DWIDTH 7 0
BBX 7 13 0 -2
BITMAP
60
60
78
6c
6c
6c
6c
00
00
00
00
00
00
ENDCHAR
STARTCHAR SupSmlHHook
ENCODING 689
SWIDTH 840 0
DWIDTH 7 0
BBX 7 13 0 -2
BITMAP
38
60
78
6c
6c
6c
6c
00
00
00
00
00
00
ENDCHAR
STARTCHAR SupSmlJ
ENCODING 690
SWIDTH 840 0
DWIDTH 7 0
BBX 7 13 0 -2
BITMAP
0c
00
1c
0c
0c
0c
6c
38
00
00
00
00
00
ENDCHAR
STARTCHAR SupSmlR
ENCODING 691
SWIDTH 840 0
DWIDTH 7 0
BBX 7 13 0 -2
BITMAP
00
5c
6c
60
60
60
60
00
00
00
00
00
00
ENDCHAR
STARTCHAR SupSmlRTrnd
ENCODING 692
SWIDTH 840 0
DWIDTH 7 0
BBX 7 13 0 -2
BITMAP
00
0c
0c
0c
0c
6c
74
00
00
00
00
00
00
ENDCHAR
STARTCHAR SupSmlRTrndLhook
ENCODING 693
SWIDTH 840 0
DWIDTH 7 0
BBX 7 13 0 -2
BITMAP
00
0c
0c
0c
0c
6c
7c
0e
00
00
00
00
00
ENDCHAR
STARTCHAR SupSmlRSmcInv
ENCODING 694
SWIDTH 840 0
DWIDTH 7 0
BBX 7 13 0 -2
BITMAP
00
6c
6c
78
6c
6c
78
00
00
00
00
00
00
ENDCHAR
STARTCHAR SupSmlW
ENCODING 695
SWIDTH 840 0
DWIDTH 7 0
BBX 7 13 0 -2
BITMAP
00
62
6a
6a
7e
34
34
00
00
00
00
00
00
ENDCHAR
STARTCHAR SupSmlY
ENCODING 696
SWIDTH 840 0
DWIDTH 7 0
BBX 7 13 0 -2
BITMAP
00
6c
6c
28
38
10
70
60
00
00
00
00
00
ENDCHAR
STARTCHAR AccPrime
ENCODING 697
SWIDTH 840 0
DWIDTH 7 0
BBX 7 13 0 -2
BITMAP
00
18
18
30
20
00
00
00
00
00
00
00
00
ENDCHAR
STARTCHAR AccPrime2
ENCODING 698
SWIDTH 840 0
DWIDTH 7 0
BBX 7 13 0 -2
BITMAP
00
36
36
6c
48
00
00
00
00
00
00
00
00
ENDCHAR
STARTCHAR AccQuoteL
ENCODING 699
SWIDTH 840 0
DWIDTH 7 0
BBX 7 13 0 -2
BITMAP
00
18
30
38
18
00
00
00
00
00
00
00
00
ENDCHAR
STARTCHAR AccQuoteR
ENCODING 700
SWIDTH 840 0
DWIDTH 7 0
BBX 7 13 0 -2
BITMAP
00
30
38
18
30
00
00
00
00
00
00
00
00
ENDCHAR
STARTCHAR AccQuoteHe
ENCODING 701
SWIDTH 840 0
DWIDTH 7 0
BBX 7 13 0 -2
BITMAP
00
18
38
30
18
00
00
00
00
00
00
00
00
ENDCHAR
STARTCHAR AccRingHalfR
ENCODING 702
SWIDTH 840 0
DWIDTH 7 0
BBX 7 13 0 -2
BITMAP
00
38
0c
0c
38
00
00
00
00
00
00
00
00
ENDCHAR
STARTCHAR AccRingHalfL
ENCODING 703
SWIDTH 840 0
DWIDTH 7 0
BBX 7 13 0 -2
BITMAP
00
1c
30
30
1c
00
00
00
00
00
00
00
00
ENDCHAR
STARTCHAR AccGlot
ENCODING 704
SWIDTH 840 0
DWIDTH 7 0
BBX 7 13 0 -2
BITMAP
00
3c
66
66
0c
18
10
00
00
00
00
00
00
ENDCHAR
STARTCHAR AccAin
ENCODING 705
SWIDTH 840 0
DWIDTH 7 0
BBX 7 13 0 -2
BITMAP
00
3c
66
66
30
18
08
00
00
00
00
00
00
ENDCHAR
STARTCHAR AccArrowheadl
ENCODING 706
SWIDTH 840 0
DWIDTH 7 0
BBX 7 13 0 -2
BITMAP
0c
18
30
18
0c
00
00
00
00
00
00
00
00
ENDCHAR
STARTCHAR AccArrowheadr
ENCODING 707
SWIDTH 840 0
DWIDTH 7 0
BBX 7 13 0 -2
BITMAP
30
18
0c
18
30
00
00
00
00
00
00
00
00
ENDCHAR
STARTCHAR AccArrowheadu
ENCODING 708
SWIDTH 840 0
DWIDTH 7 0
BBX 7 13 0 -2
BITMAP
10
38
6c
44
00
00
00
00
00
00
00
00
00
ENDCHAR
STARTCHAR AccArrowheadd
ENCODING 709
SWIDTH 840 0
DWIDTH 7 0
BBX 7 13 0 -2
BITMAP
44
6c
38
10
00
00
00
00
00
00
00
00
00
ENDCHAR
STARTCHAR AccCircum
ENCODING 710
SWIDTH 840 0
DWIDTH 7 0
BBX 7 13 0 -2
BITMAP
00
10
38
6c
00
00
00
00
00
00
00
00
00
ENDCHAR
STARTCHAR AccCaron
ENCODING 711
SWIDTH 840 0
DWIDTH 7 0
BBX 7 13 0 -2
BITMAP
00
6c
38
10
00
00
00
00
00
00
00
00
00
ENDCHAR
STARTCHAR AccStress
ENCODING 712
SWIDTH 840 0
DWIDTH 7 0
BBX 7 13 0 -2
BITMAP
00
18
18
18
18
00
00
00
00
00
00
00
00
ENDCHAR
STARTCHAR AccMacron
ENCODING 713
SWIDTH 840 0
DWIDTH 7 0
BBX 7 13 0 -2
BITMAP
00
7c
7c
00
00
00
00
00
00
00
00
00
00
ENDCHAR
STARTCHAR AccAcuteSml
ENCODING 714
SWIDTH 840 0
DWIDTH 7 0
BBX 7 13 0 -2
BITMAP
00
0c
18
30
20
00
00
00
00
00
00
00
00
ENDCHAR
STARTCHAR AccGrave
ENCODING 715
SWIDTH 840 0
DWIDTH 7 0
BBX 7 13 0 -2
BITMAP
00
30
18
0c
04
00
00
00
00
00
00
00
00
ENDCHAR
STARTCHAR AccLvline
ENCODING 716
SWIDTH 840 0
DWIDTH 7 0
BBX 7 13 0 -2
BITMAP
00
00
00
00
00
00
00
00
00
18
18
18
18
ENDCHAR
STARTCHAR AccLmacron
ENCODING 717
SWIDTH 840 0
DWIDTH 7 0
BBX 7 13 0 -2
BITMAP
00
00
00
00
00
00
00
00
00
00
00
7c
7c
ENDCHAR
STARTCHAR AccLgrave
ENCODING 718
SWIDTH 840 0
DWIDTH 7 0
BBX 7 13 0 -2
BITMAP
00
00
00
00
00
00
00
00
00
30
18
0c
04
ENDCHAR
STARTCHAR AccLacute
ENCODING 719
SWIDTH 840 0
DWIDTH 7 0
BBX 7 13 0 -2
BITMAP
00
00
00
00
00
00
00
00
00
0c
18
30
20
ENDCHAR
STARTCHAR PColonTrng
ENCODING 720
SWIDTH 840 0
DWIDTH 7 0
BBX 7 13 0 -2
BITMAP
00
00
00
00
38
38
10
00
10
38
38
00
00
ENDCHAR
STARTCHAR PColonTrngHalf
ENCODING 721
SWIDTH 840 0
DWIDTH 7 0
BBX 7 13 0 -2
BITMAP
00
00
00
00
38
38
10
00
00
00
00
00
00
ENDCHAR
STARTCHAR AccCntrdhalfringr
ENCODING 722
SWIDTH 840 0
DWIDTH 7 0
BBX 7 13 0 -2
BITMAP
00
00
00
00
38
0c
04
0c
38
00
00
00
00
ENDCHAR
STARTCHAR AccCntrdhalfringl
ENCODING 723
SWIDTH 840 0
DWIDTH 7 0
BBX 7 13 0 -2
BITMAP
00
00
00
00
1c
30
20
30
1c
00
00
00
00
ENDCHAR
STARTCHAR AccTacku
ENCODING 724
SWIDTH 840 0
DWIDTH 7 0
BBX 7 13 0 -2
BITMAP
00
00
00
00
18
18
18
7e
7e
00
00
00
00
ENDCHAR
STARTCHAR AccTackd
ENCODING 725
SWIDTH 840 0
DWIDTH 7 0
BBX 7 13 0 -2
BITMAP
00
00
00
00
00
7e
7e
18
18
18
00
00
00
ENDCHAR
STARTCHAR AccPlus
ENCODING 726
SWIDTH 840 0
DWIDTH 7 0
BBX 7 13 0 -2
BITMAP
00
00
00
00
18
18
7e
7e
18
18
00
00
00
ENDCHAR
STARTCHAR AccMinus
ENCODING 727
SWIDTH 840 0
DWIDTH 7 0
BBX 7 13 0 -2
BITMAP
00
00
00
00
00
00
7e
7e
00
00
00
00
00
ENDCHAR
STARTCHAR AccBreve
ENCODING 728
SWIDTH 840 0
DWIDTH 7 0
BBX 7 13 0 -2
BITMAP
00
6c
6c
38
00
00
00
00
00
00
00
00
00
ENDCHAR
STARTCHAR AccDot
ENCODING 729
SWIDTH 840 0
DWIDTH 7 0
BBX 7 13 0 -2
BITMAP
00
18
18
00
00
00
00
00
00
00
00
00
00
ENDCHAR
STARTCHAR AccRing
ENCODING 730
SWIDTH 840 0
DWIDTH 7 0
BBX 7 13 0 -2
BITMAP
00
38
6c
6c
38
00
00
00
00
00
00
00
00
ENDCHAR
STARTCHAR AccOgonek
ENCODING 731
SWIDTH 840 0
DWIDTH 7 0
BBX 7 13 0 -2
BITMAP
00
00
00
00
00
00
00
00
00
18
30
3c
18
ENDCHAR
STARTCHAR AccTilde
ENCODING 732
SWIDTH 840 0
DWIDTH 7 0
BBX 7 13 0 -2
BITMAP
00
32
7e
4c
00
00
00
00
00
00
00
00
00
ENDCHAR
STARTCHAR AccAcute2
ENCODING 733
SWIDTH 840 0
DWIDTH 7 0
BBX 7 13 0 -2
BITMAP
00
36
6c
48
00
00
00
00
00
00
00
00
00
ENDCHAR
STARTCHAR AccRhothook
ENCODING 734
SWIDTH 840 0
DWIDTH 7 0
BBX 7 13 0 -2
BITMAP
00
00
00
00
00
20
64
fc
98
00
00
00
00
ENDCHAR
STARTCHAR AccCross
ENCODING 735
SWIDTH 840 0
DWIDTH 7 0
BBX 7 13 0 -2
BITMAP
00
6c
38
38
6c
00
00
00
00
00
00
00
00
ENDCHAR
STARTCHAR SupSmlGam
ENCODING 736
SWIDTH 840 0
DWIDTH 7 0
BBX 7 13 0 -2
BITMAP
00
6c
68
30
18
28
38
10
00
00
00
00
00
ENDCHAR
STARTCHAR SupSmlL
ENCODING 737
SWIDTH 840 0
DWIDTH 7 0
BBX 7 13 0 -2
BITMAP
38
18
18
18
18
18
3c
00
00
00
00
00
00
ENDCHAR
STARTCHAR SupSmlS
ENCODING 738
SWIDTH 840 0
DWIDTH 7 0
BBX 7 13 0 -2
BITMAP
00
3c
64
78
3c
4c
78
00
00
00
00
00
00
ENDCHAR
STARTCHAR SupSmlX
ENCODING 739
SWIDTH 840 0
DWIDTH 7 0
BBX 7 13 0 -2
BITMAP
00
6c
68
30
18
2c
6c
00
00
00
00
00
00
ENDCHAR
STARTCHAR SupSmlAin
ENCODING 740
SWIDTH 840 0
DWIDTH 7 0
BBX 7 13 0 -2
BITMAP
38
6c
60
30
30
30
30
00
00
00
00
00
00
ENDCHAR
STARTCHAR LtToneHhigh
ENCODING 741
SWIDTH 840 0
DWIDTH 7 0
BBX 7 13 0 -2
BITMAP
00
7c
0c
0c
0c
0c
0c
0c
0c
0c
0c
00
00
ENDCHAR
STARTCHAR LtToneHigh
ENCODING 742
SWIDTH 840 0
DWIDTH 7 0
BBX 7 13 0 -2
BITMAP
00
0c
0c
7c
0c
0c
0c
0c
0c
0c
0c
00
00
ENDCHAR
STARTCHAR LtToneMid
ENCODING 743
SWIDTH 840 0
DWIDTH 7 0
BBX 7 13 0 -2
BITMAP
00
0c
0c
0c
0c
7c
0c
0c
0c
0c
0c
00
00
ENDCHAR
STARTCHAR LtToneLow
ENCODING 744
SWIDTH 840 0
DWIDTH 7 0
BBX 7 13 0 -2
BITMAP
00
0c
0c
0c
0c
0c
0c
0c
7c
0c
0c
00
00
ENDCHAR
STARTCHAR LtToneLlow
ENCODING 745
SWIDTH 840 0
DWIDTH 7 0
BBX 7 13 0 -2
BITMAP
00
0c
0c
0c
0c
0c
0c
0c
0c
0c
7c
00
00
ENDCHAR
STARTCHAR AccToneYin
ENCODING 746
SWIDTH 840 0
DWIDTH 7 0
BBX 7 13 0 -2
BITMAP
00
00
00
00
30
30
30
30
30
30
3e
00
00
ENDCHAR
STARTCHAR AccToneYang
ENCODING 747
SWIDTH 840 0
DWIDTH 7 0
BBX 7 13 0 -2
BITMAP
00
00
00
00
30
30
30
3e
30
30
30
00
00
ENDCHAR
STARTCHAR AccLcaron
ENCODING 748
SWIDTH 840 0
DWIDTH 7 0
BBX 7 13 0 -2
BITMAP
00
00
00
00
00
00
00
00
00
00
6c
38
10
ENDCHAR
STARTCHAR AccMacron2
ENCODING 749
SWIDTH 840 0
DWIDTH 7 0
BBX 7 13 0 -2
BITMAP
7e
00
7e
00
00
00
00
00
00
00
00
00
00
ENDCHAR
STARTCHAR AccApostr2
ENCODING 750
SWIDTH 840 0
DWIDTH 7 0
BBX 7 13 0 -2
BITMAP
00
6c
7e
36
6c
00
00
00
00
00
00
00
00
ENDCHAR
STARTCHAR CombGrave
ENCODING 768
SWIDTH 840 0
DWIDTH 7 0
BBX 7 13 0 -2
BITMAP
30
18
08
00
00
00
00
00
00
00
00
00
00
ENDCHAR
STARTCHAR CombAcute
ENCODING 769
SWIDTH 840 0
DWIDTH 7 0
BBX 7 13 0 -2
BITMAP
06
0c
08
00
00
00
00
00
00
00
00
00
00
ENDCHAR
STARTCHAR CombCircum
ENCODING 770
SWIDTH 840 0
DWIDTH 7 0
BBX 7 13 0 -2
BITMAP
18
3c
24
00
00
00
00
00
00
00
00
00
00
ENDCHAR
STARTCHAR CombTilde
ENCODING 771
SWIDTH 840 0
DWIDTH 7 0
BBX 7 13 0 -2
BITMAP
12
3e
24
00
00
00
00
00
00
00
00
00
00
ENDCHAR
STARTCHAR CombMacron
ENCODING 772
SWIDTH 840 0
DWIDTH 7 0
BBX 7 13 0 -2
BITMAP
00
3c
3c
00
00
00
00
00
00
00
00
00
00
ENDCHAR
STARTCHAR CombOverline
ENCODING 773
SWIDTH 840 0
DWIDTH 7 0
BBX 7 13 0 -2
BITMAP
fe
fe
00
00
00
00
00
00
00
00
00
00
00
ENDCHAR
STARTCHAR CombBreve
ENCODING 774
SWIDTH 840 0
DWIDTH 7 0
BBX 7 13 0 -2
BITMAP
00
36
1c
00
00
00
00
00
00
00
00
00
00
ENDCHAR
STARTCHAR CombDot
ENCODING 775
SWIDTH 840 0
DWIDTH 7 0
BBX 7 13 0 -2
BITMAP
00
18
18
00
00
00
00
00
00
00
00
00
00
ENDCHAR
STARTCHAR CombDrss
ENCODING 776
SWIDTH 840 0
DWIDTH 7 0
BBX 7 13 0 -2
BITMAP
00
36
36
00
00
00
00
00
00
00
00
00
00
ENDCHAR
STARTCHAR CombVhook
ENCODING 777
SWIDTH 840 0
DWIDTH 7 0
BBX 7 13 0 -2
BITMAP
38
0c
18
00
00
00
00
00
00
00
00
00
00
ENDCHAR
STARTCHAR CombRing
ENCODING 778
SWIDTH 840 0
DWIDTH 7 0
BBX 7 13 0 -2
BITMAP
18
34
18
00
00
00
00
00
00
00
00
00
00
ENDCHAR
STARTCHAR CombAcute2
ENCODING 779
SWIDTH 840 0
DWIDTH 7 0
BBX 7 13 0 -2
BITMAP
1a
36
2c
00
00
00
00
00
00
00
00
00
00
ENDCHAR
STARTCHAR CombCaron
ENCODING 780
SWIDTH 840 0
DWIDTH 7 0
BBX 7 13 0 -2
BITMAP
24
3c
18
00
00
00
00
00
00
00
00
00
00
ENDCHAR
STARTCHAR CombStress
ENCODING 781
SWIDTH 840 0
DWIDTH 7 0
BBX 7 13 0 -2
BITMAP
18
18
18
00
00
00
00
00
00
00
00
00
00
ENDCHAR
STARTCHAR CombVline2
ENCODING 782
SWIDTH 840 0
DWIDTH 7 0
BBX 7 13 0 -2
BITMAP
36
36
36
00
00
00
00
00
00
00
00
00
00
ENDCHAR
STARTCHAR CombGrave2
ENCODING 783
SWIDTH 840 0
DWIDTH 7 0
BBX 7 13 0 -2
BITMAP
58
6c
34
00
00
00
00
00
00
00
00
00
00
ENDCHAR
STARTCHAR CombCandra
ENCODING 784
SWIDTH 840 0
DWIDTH 7 0
BBX 7 13 0 -2
BITMAP
5a
66
3c
00
00
00
00
00
00
00
00
00
00
ENDCHAR
STARTCHAR CombInvbreve
ENCODING 785
SWIDTH 840 0
DWIDTH 7 0
BBX 7 13 0 -2
BITMAP
00
1c
36
00
00
00
00
00
00
00
00
00
00
ENDCHAR
STARTCHAR CombQuoteL
ENCODING 786
SWIDTH 840 0
DWIDTH 7 0
BBX 7 13 0 -2
BITMAP
00
0c
18
08
00
00
00
00
00
00
00
00
00
ENDCHAR
STARTCHAR CombGkPsili
ENCODING 787
SWIDTH 840 0
DWIDTH 7 0
BBX 7 13 0 -2
BITMAP
18
08
10
00
00
00
00
00
00
00
00
00
00
ENDCHAR
STARTCHAR CombGkDasia
ENCODING 788
SWIDTH 840 0
DWIDTH 7 0
BBX 7 13 0 -2
BITMAP
18
10
08
00
00
00
00
00
00
00
00
00
00
ENDCHAR
STARTCHAR CombQuoteRRight
ENCODING 789
SWIDTH 840 0
DWIDTH 7 0
BBX 7 13 0 -2
BITMAP
06
06
02
04
00
00
00
00
00
00
00
00
00
ENDCHAR
STARTCHAR CombLgrave
ENCODING 790
SWIDTH 840 0
DWIDTH 7 0
BBX 7 13 0 -2
BITMAP
00
00
00
00
00
00
00
00
00
00
00
38
0c
ENDCHAR
STARTCHAR CombLacute
ENCODING 791
SWIDTH 840 0
DWIDTH 7 0
BBX 7 13 0 -2
BITMAP
00
00
00
00
00
00
00
00
00
00
00
1c
30
ENDCHAR
STARTCHAR CombLtackl
ENCODING 792
SWIDTH 840 0
DWIDTH 7 0
BBX 7 13 0 -2
BITMAP
00
00
00
00
00
00
00
00
00
00
08
38
08
ENDCHAR
STARTCHAR CombLtackr
ENCODING 793
SWIDTH 840 0
DWIDTH 7 0
BBX 7 13 0 -2
BITMAP
00
00
00
00
00
00
00
00
00
00
10
1c
10
ENDCHAR
STARTCHAR CombAngle
ENCODING 794
SWIDTH 840 0
DWIDTH 7 0
BBX 7 13 0 -2
BITMAP
0e
02
02
00
00
00
00
00
00
00
00
00
00
ENDCHAR
STARTCHAR CombHorn
ENCODING 795
SWIDTH 840 0
DWIDTH 7 0
BBX 7 13 0 -2
BITMAP
00
00
0e
06
04
00
00
00
00
00
00
00
00
ENDCHAR
STARTCHAR CombLhalfringl
ENCODING 796
SWIDTH 840 0
DWIDTH 7 0
BBX 7 13 0 -2
BITMAP
00
00
00
00
00
00
00
00
00
00
18
30
18
ENDCHAR
STARTCHAR CombLtacku
ENCODING 797
SWIDTH 840 0
DWIDTH 7 0
BBX 7 13 0 -2
BITMAP
00
00
00
00
00
00
00
00
00
00
00
10
38
ENDCHAR
STARTCHAR CombLtackd
ENCODING 798
SWIDTH 840 0
DWIDTH 7 0
BBX 7 13 0 -2
BITMAP
00
00
00
00
00
00
00
00
00
00
00
38
10
ENDCHAR
STARTCHAR CombLplus
ENCODING 799
SWIDTH 840 0
DWIDTH 7 0
BBX 7 13 0 -2
BITMAP
00
00
00
00
00
00
00
00
00
00
10
38
10
ENDCHAR
STARTCHAR CombLminus
ENCODING 800
SWIDTH 840 0
DWIDTH 7 0
BBX 7 13 0 -2
BITMAP
00
00
00
00
00
00
00
00
00
00
00
00
38
ENDCHAR
STARTCHAR CombLdot
ENCODING 803
SWIDTH 840 0
DWIDTH 7 0
BBX 7 13 0 -2
BITMAP
00
00
00
00
00
00
00
00
00
00
00
00
18
ENDCHAR
STARTCHAR CombLdrss
ENCODING 804
SWIDTH 840 0
DWIDTH 7 0
BBX 7 13 0 -2
BITMAP
00
00
00
00
00
00
00
00
00
00
00
00
6c
ENDCHAR
STARTCHAR CombLring
ENCODING 805
SWIDTH 840 0
DWIDTH 7 0
BBX 7 13 0 -2
BITMAP
00
00
00
00
00
00
00
00
00
00
18
34
18
ENDCHAR
STARTCHAR CombComma
ENCODING 806
SWIDTH 840 0
DWIDTH 7 0
BBX 7 13 0 -2
BITMAP
00
00
00
00
00
00
00
00
00
00
00
18
30
ENDCHAR
STARTCHAR CombCedilla
ENCODING 807
SWIDTH 840 0
DWIDTH 7 0
BBX 7 13 0 -2
BITMAP
00
00
00
00
00
00
00
00
00
00
00
18
30
ENDCHAR
STARTCHAR CombOgonek
ENCODING 808
SWIDTH 840 0
DWIDTH 7 0
BBX 7 13 0 -2
BITMAP
00
00
00
00
00
00
00
00
00
00
00
0c
06
ENDCHAR
STARTCHAR CombLvline
ENCODING 809
SWIDTH 840 0
DWIDTH 7 0
BBX 7 13 0 -2
BITMAP
00
00
00
00
00
00
00
00
00
00
00
18
18
ENDCHAR
STARTCHAR CombLbridge
ENCODING 810
SWIDTH 840 0
DWIDTH 7 0
BBX 7 13 0 -2
BITMAP
00
00
00
00
00
00
00
00
00
00
00
3c
24
ENDCHAR
STARTCHAR CombLinvarch2
ENCODING 811
SWIDTH 840 0
DWIDTH 7 0
BBX 7 13 0 -2
BITMAP
00
00
00
00
00
00
00
00
00
00
00
5a
2c
ENDCHAR
STARTCHAR CombLcaron
ENCODING 812
SWIDTH 840 0
DWIDTH 7 0
BBX 7 13 0 -2
BITMAP
00
00
00
00
00
00
00
00
00
00
00
2c
18
ENDCHAR
STARTCHAR CombLcircum
ENCODING 813
SWIDTH 840 0
DWIDTH 7 0
BBX 7 13 0 -2
BITMAP
00
00
00
00
00
00
00
00
00
00
00
18
2c
ENDCHAR
STARTCHAR CombLbreve
ENCODING 814
SWIDTH 840 0
DWIDTH 7 0
BBX 7 13 0 -2
BITMAP
00
00
00
00
00
00
00
00
00
00
00
2c
18
ENDCHAR
STARTCHAR CombLinvbreve
ENCODING 815
SWIDTH 840 0
DWIDTH 7 0
BBX 7 13 0 -2
BITMAP
00
00
00
00
00
00
00
00
00
00
00
18
2c
ENDCHAR
STARTCHAR CombLtilde
ENCODING 816
SWIDTH 840 0
DWIDTH 7 0
BBX 7 13 0 -2
BITMAP
00
00
00
00
00
00
00
00
00
00
00
36
5c
ENDCHAR
STARTCHAR CombLmacron
ENCODING 817
SWIDTH 840 0
DWIDTH 7 0
BBX 7 13 0 -2
BITMAP
00
00
00
00
00
00
00
00
00
00
00
00
7e
ENDCHAR
STARTCHAR CombLowline
ENCODING 818
SWIDTH 840 0
DWIDTH 7 0
BBX 7 13 0 -2
BITMAP
00
00
00
00
00
00
00
00
00
00
00
00
fe
ENDCHAR
STARTCHAR CombLowline2
ENCODING 819
SWIDTH 840 0
DWIDTH 7 0
BBX 7 13 0 -2
BITMAP
00
00
00
00
00
00
00
00
00
00
fe
00
fe
ENDCHAR
STARTCHAR CombMtilde
ENCODING 820
SWIDTH 840 0
DWIDTH 7 0
BBX 7 13 0 -2
BITMAP
00
00
00
00
00
62
9c
00
00
00
00
00
00
ENDCHAR
STARTCHAR CombStrokeHSh
ENCODING 821
SWIDTH 840 0
DWIDTH 7 0
BBX 7 13 0 -2
BITMAP
00
00
00
00
00
00
3c
3c
00
00
00
00
00
ENDCHAR
STARTCHAR CombStrokeH
ENCODING 822
SWIDTH 840 0
DWIDTH 7 0
BBX 7 13 0 -2
BITMAP
00
00
00
00
00
00
7e
7e
00
00
00
00
00
ENDCHAR
STARTCHAR CombStrokeSh
ENCODING 823
SWIDTH 840 0
DWIDTH 7 0
BBX 7 13 0 -2
BITMAP
00
00
00
02
02
04
08
08
10
20
20
40
00
ENDCHAR
STARTCHAR CombStroke
ENCODING 824
SWIDTH 840 0
DWIDTH 7 0
BBX 7 13 0 -2
BITMAP
00
02
04
04
08
08
10
10
20
20
40
40
00
ENDCHAR
STARTCHAR CombLhalfringr
ENCODING 825
SWIDTH 840 0
DWIDTH 7 0
BBX 7 13 0 -2
BITMAP
00
00
00
00
00
00
00
00
00
00
18
0c
18
ENDCHAR
STARTCHAR CombLinvbridge
ENCODING 826
SWIDTH 840 0
DWIDTH 7 0
BBX 7 13 0 -2
BITMAP
00
00
00
00
00
00
00
00
00
00
00
24
3c
ENDCHAR
STARTCHAR CombLsquare
ENCODING 827
SWIDTH 840 0
DWIDTH 7 0
BBX 7 13 0 -2
BITMAP
00
00
00
00
00
00
00
00
00
00
38
28
38
ENDCHAR
STARTCHAR CombLseagull
ENCODING 828
SWIDTH 840 0
DWIDTH 7 0
BBX 7 13 0 -2
BITMAP
00
00
00
00
00
00
00
00
00
00
00
34
5a
ENDCHAR
STARTCHAR CombCross
ENCODING 829
SWIDTH 840 0
DWIDTH 7 0
BBX 7 13 0 -2
BITMAP
36
1c
36
00
00
00
00
00
00
00
00
00
00
ENDCHAR
STARTCHAR CombVtilde
ENCODING 830
SWIDTH 840 0
DWIDTH 7 0
BBX 7 13 0 -2
BITMAP
0c
18
0c
18
00
00
00
00
00
00
00
00
00
ENDCHAR
STARTCHAR CombOverline2
ENCODING 831
SWIDTH 840 0
DWIDTH 7 0
BBX 7 13 0 -2
BITMAP
fe
00
fe
00
00
00
00
00
00
00
00
00
00
ENDCHAR
STARTCHAR CombGraveTone
ENCODING 832
SWIDTH 840 0
DWIDTH 7 0
BBX 7 13 0 -2
BITMAP
40
60
20
00
00
00
00
00
00
00
00
00
00
ENDCHAR
STARTCHAR CombAcuteTone
ENCODING 833
SWIDTH 840 0
DWIDTH 7 0
BBX 7 13 0 -2
BITMAP
02
06
04
00
00
00
00
00
00
00
00
00
00
ENDCHAR
STARTCHAR CombGkPeri
ENCODING 834
SWIDTH 840 0
DWIDTH 7 0
BBX 7 13 0 -2
BITMAP
00
38
6c
00
00
00
00
00
00
00
00
00
00
ENDCHAR
STARTCHAR CombGkKoronis
ENCODING 835
SWIDTH 840 0
DWIDTH 7 0
BBX 7 13 0 -2
BITMAP
18
08
10
00
00
00
00
00
00
00
00
00
00
ENDCHAR
STARTCHAR CombGkDrssTonos
ENCODING 836
SWIDTH 840 0
DWIDTH 7 0
BBX 7 13 0 -2
BITMAP
08
6a
56
00
00
00
00
00
00
00
00
00
00
ENDCHAR
STARTCHAR CombGkYpog
ENCODING 837
SWIDTH 840 0
DWIDTH 7 0
BBX 7 13 0 -2
BITMAP
00
00
00
00
00
00
00
00
00
00
00
18
18
ENDCHAR
STARTCHAR CombBridge
ENCODING 838
SWIDTH 840 0
DWIDTH 7 0
BBX 7 13 0 -2
BITMAP
00
3c
24
00
00
00
00
00
00
00
00
00
00
ENDCHAR
STARTCHAR CombLequals
ENCODING 839
SWIDTH 840 0
DWIDTH 7 0
BBX 7 13 0 -2
BITMAP
00
00
00
00
00
00
00
00
00
00
38
00
38
ENDCHAR
STARTCHAR CombLvline2
ENCODING 840
SWIDTH 840 0
DWIDTH 7 0
BBX 7 13 0 -2
BITMAP
00
00
00
00
00
00
00
00
00
00
00
6c
6c
ENDCHAR
STARTCHAR CombLangle
ENCODING 841
SWIDTH 840 0
DWIDTH 7 0
BBX 7 13 0 -2
BITMAP
00
00
00
00
00
00
00
00
00
00
00
38
08
ENDCHAR
STARTCHAR CombTildenot
ENCODING 842
SWIDTH 840 0
DWIDTH 7 0
BBX 7 13 0 -2
BITMAP
08
3a
5c
10
00
00
00
00
00
00
00
00
00
ENDCHAR
STARTCHAR GkCapHet
ENCODING 880
SWIDTH 840 0
DWIDTH 7 0
BBX 7 13 0 -2
BITMAP
00
00
60
60
60
62
7e
62
60
60
60
00
00
ENDCHAR
STARTCHAR GkSmlHet
ENCODING 881
SWIDTH 840 0
DWIDTH 7 0
BBX 7 13 0 -2
BITMAP
00
00
00
00
60
30
30
3e
30
30
30
00
00
ENDCHAR
STARTCHAR GkCapSamArch
ENCODING 882
SWIDTH 840 0
DWIDTH 7 0
BBX 7 13 0 -2
BITMAP
00
00
7e
5a
5a
5a
5a
18
18
18
18
00
00
ENDCHAR
STARTCHAR GkSmlSamArch
ENCODING 883
SWIDTH 840 0
DWIDTH 7 0
BBX 7 13 0 -2
BITMAP
00
7e
5a
5a
5a
18
18
18
18
18
18
00
00
ENDCHAR
STARTCHAR PGkNumsignU
ENCODING 884
SWIDTH 840 0
DWIDTH 7 0
BBX 7 13 0 -2
BITMAP
00
18
18
30
20
00
00
00
00
00
00
00
00
ENDCHAR
STARTCHAR PGkNumsignL
ENCODING 885
SWIDTH 840 0
DWIDTH 7 0
BBX 7 13 0 -2
BITMAP
00
00
00
00
00
00
00
00
00
18
18
30
20
ENDCHAR
STARTCHAR GkCapDigPamph
ENCODING 886
SWIDTH 840 0
DWIDTH 7 0
BBX 7 13 0 -2
BITMAP
00
00
66
66
66
6e
6e
76
76
66
66
00
00
ENDCHAR
STARTCHAR GkSmlDigPamph
ENCODING 887
SWIDTH 840 0
DWIDTH 7 0
BBX 7 13 0 -2
BITMAP
00
00
00
00
66
66
6e
6e
76
76
66
00
00
ENDCHAR
STARTCHAR AccGkYpog
ENCODING 890
SWIDTH 840 0
DWIDTH 7 0
BBX 7 13 0 -2
BITMAP
00
00
00
00
00
00
00
00
00
00
10
18
18
ENDCHAR
STARTCHAR GkSmlSigLunateRev
ENCODING 891
SWIDTH 840 0
DWIDTH 7 0
BBX 7 13 0 -2
BITMAP
00
00
00
00
3c
66
06
06
06
66
3c
00
00
ENDCHAR
STARTCHAR GkSmlSigLunateDot
ENCODING 892
SWIDTH 840 0
DWIDTH 7 0
BBX 7 13 0 -2
BITMAP
00
00
00
00
3c
66
60
6c
60
66
3c
00
00
ENDCHAR
STARTCHAR GkSmlSigLunateRevDot
ENCODING 893
SWIDTH 840 0
DWIDTH 7 0
BBX 7 13 0 -2
BITMAP
00
00
00
00
3c
66
06
36
06
66
3c
00
00
ENDCHAR
STARTCHAR PGkQuestion
ENCODING 894
SWIDTH 840 0
DWIDTH 7 0
BBX 7 13 0 -2
BITMAP
00
00
00
00
00
18
18
00
00
18
18
30
20
ENDCHAR
STARTCHAR AccGkTonos
ENCODING 900
SWIDTH 840 0
DWIDTH 7 0
BBX 7 13 0 -2
BITMAP
00
08
18
10
00
00
00
00
00
00
00
00
00
ENDCHAR
STARTCHAR AccGkDrssTonos
ENCODING 901
SWIDTH 840 0
DWIDTH 7 0
BBX 7 13 0 -2
BITMAP
08
18
10
66
66
00
00
00
00
00
00
00
00
ENDCHAR
STARTCHAR GkCapAlpTon
ENCODING 902
SWIDTH 840 0
DWIDTH 7 0
BBX 7 13 0 -2
BITMAP
40
c0
98
18
18
3c
2c
2c
7e
46
46
00
00
ENDCHAR
STARTCHAR PMiddleDotGk
ENCODING 903
SWIDTH 840 0
DWIDTH 7 0
BBX 7 13 0 -2
BITMAP
00
00
00
00
18
18
00
00
00
00
00
00
00
ENDCHAR
STARTCHAR GkCapEpsTon
ENCODING 904
SWIDTH 840 0
DWIDTH 7 0
BBX 7 13 0 -2
BITMAP
40
c0
be
32
30
34
3c
34
30
32
3e
00
00
ENDCHAR
STARTCHAR GkCapEtaTon
ENCODING 905
SWIDTH 840 0
DWIDTH 7 0
BBX 7 13 0 -2
BITMAP
40
c0
b6
36
36
36
3e
36
36
36
36
00
00
ENDCHAR
STARTCHAR GkCapIotTon
ENCODING 906
SWIDTH 840 0
DWIDTH 7 0
BBX 7 13 0 -2
BITMAP
40
c0
9e
0c
0c
0c
0c
0c
0c
0c
1e
00
00
ENDCHAR
STARTCHAR GkCapOmiTon
ENCODING 908
SWIDTH 840 0
DWIDTH 7 0
BBX 7 13 0 -2
BITMAP
40
c0
bc
66
66
66
66
66
66
66
3c
00
00
ENDCHAR
STARTCHAR GkCapUpsTon
ENCODING 910
SWIDTH 840 0
DWIDTH 7 0
BBX 7 13 0 -2
BITMAP
40
c0
a6
66
34
38
18
18
18
18
18
00
00
ENDCHAR
STARTCHAR GkCapOmeTon
ENCODING 911
SWIDTH 840 0
DWIDTH 7 0
BBX 7 13 0 -2
BITMAP
40
c0
bc
66
66
66
66
3c
18
7e
7e
00
00
ENDCHAR
STARTCHAR GkSmlIotDrssTon
ENCODING 912
SWIDTH 840 0
DWIDTH 7 0
BBX 7 13 0 -2
BITMAP
08
6a
56
00
30
70
30
30
30
36
1c
00
00
ENDCHAR
STARTCHAR GkCapAlp
ENCODING 913
SWIDTH 840 0
DWIDTH 7 0
BBX 7 13 0 -2
BITMAP
00
00
18
18
18
3c
2c
2c
7e
46
46
00
00
ENDCHAR
STARTCHAR GkCapBet
ENCODING 914
SWIDTH 840 0
DWIDTH 7 0
BBX 7 13 0 -2
BITMAP
00
00
7c
66
66
64
7c
66
66
66
7c
00
00
ENDCHAR
STARTCHAR GkCapGam
ENCODING 915
SWIDTH 840 0
DWIDTH 7 0
BBX 7 13 0 -2
BITMAP
00
00
3e
32
30
30
30
30
30
30
30
00
00
ENDCHAR
STARTCHAR GkCapDel
ENCODING 916
SWIDTH 840 0
DWIDTH 7 0
BBX 7 13 0 -2
BITMAP
00
00
18
18
18
2c
2c
2c
46
7e
7e
00
00
ENDCHAR
STARTCHAR GkCapEps
ENCODING 917
SWIDTH 840 0
DWIDTH 7 0
BBX 7 13 0 -2
BITMAP
00
00
7e
62
60
64
7c
64
60
62
7e
00
00
ENDCHAR
STARTCHAR GkCapZet
ENCODING 918
SWIDTH 840 0
DWIDTH 7 0
BBX 7 13 0 -2
BITMAP
00
00
7e
46
0c
0c
18
30
30
62
7e
00
00
ENDCHAR
STARTCHAR GkCapEta
ENCODING 919
SWIDTH 840 0
DWIDTH 7 0
BBX 7 13 0 -2
BITMAP
00
00
66
66
66
66
7e
66
66
66
66
00
00
ENDCHAR
STARTCHAR GkCapThe
ENCODING 920
SWIDTH 840 0
DWIDTH 7 0
BBX 7 13 0 -2
BITMAP
00
00
3c
66
66
66
7e
66
66
66
3c
00
00
ENDCHAR
STARTCHAR GkCapIot
ENCODING 921
SWIDTH 840 0
DWIDTH 7 0
BBX 7 13 0 -2
BITMAP
00
00
7e
18
18
18
18
18
18
18
7e
00
00
ENDCHAR
STARTCHAR GkCapKap
ENCODING 922
SWIDTH 840 0
DWIDTH 7 0
BBX 7 13 0 -2
BITMAP
00
00
66
64
68
78
78
6c
6c
66
66
00
00
ENDCHAR
STARTCHAR GkCapLam
ENCODING 923
SWIDTH 840 0
DWIDTH 7 0
BBX 7 13 0 -2
BITMAP
00
00
10
18
18
38
2c
2c
44
46
46
00
00
ENDCHAR
STARTCHAR GkCapMu
ENCODING 924
SWIDTH 840 0
DWIDTH 7 0
BBX 7 13 0 -2
BITMAP
00
00
42
66
7e
7e
56
56
46
46
46
00
00
ENDCHAR
STARTCHAR GkCapNu
ENCODING 925
SWIDTH 840 0
DWIDTH 7 0
BBX 7 13 0 -2
BITMAP
00
00
62
72
72
5a
5a
4e
4e
46
46
00
00
ENDCHAR
STARTCHAR GkCapXi
ENCODING 926
SWIDTH 840 0
DWIDTH 7 0
BBX 7 13 0 -2
BITMAP
00
00
7e
7e
00
24
3c
24
00
7e
7e
00
00
ENDCHAR
STARTCHAR GkCapOmi
ENCODING 927
SWIDTH 840 0
DWIDTH 7 0
BBX 7 13 0 -2
BITMAP
00
00
3c
66
66
66
66
66
66
66
3c
00
00
ENDCHAR
STARTCHAR GkCapPi
ENCODING 928
SWIDTH 840 0
DWIDTH 7 0
BBX 7 13 0 -2
BITMAP
00
00
7e
66
66
66
66
66
66
66
66
00
00
ENDCHAR
STARTCHAR GkCapRho
ENCODING 929
SWIDTH 840 0
DWIDTH 7 0
BBX 7 13 0 -2
BITMAP
00
00
7c
66
66
66
7c
60
60
60
60
00
00
ENDCHAR
STARTCHAR GkCapSig
ENCODING 931
SWIDTH 840 0
DWIDTH 7 0
BBX 7 13 0 -2
BITMAP
00
00
7e
62
30
18
18
10
22
7e
7e
00
00
ENDCHAR
STARTCHAR GkCapTau
ENCODING 932
SWIDTH 840 0
DWIDTH 7 0
BBX 7 13 0 -2
BITMAP
00
00
7e
5a
18
18
18
18
18
18
18
00
00
ENDCHAR
STARTCHAR GkCapUps
ENCODING 933
SWIDTH 840 0
DWIDTH 7 0
BBX 7 13 0 -2
BITMAP
00
00
66
66
34
38
18
18
18
18
18
00
00
ENDCHAR
STARTCHAR GkCapPhi
ENCODING 934
SWIDTH 840 0
DWIDTH 7 0
BBX 7 13 0 -2
BITMAP
00
00
18
18
3c
6a
6a
6a
3c
18
18
00
00
ENDCHAR
STARTCHAR GkCapChi
ENCODING 935
SWIDTH 840 0
DWIDTH 7 0
BBX 7 13 0 -2
BITMAP
00
00
66
66
34
38
18
1c
2c
66
66
00
00
ENDCHAR
STARTCHAR GkCapPsi
ENCODING 936
SWIDTH 840 0
DWIDTH 7 0
BBX 7 13 0 -2
BITMAP
00
00
6a
6a
6a
6a
6a
3c
08
08
1c
00
00
ENDCHAR
STARTCHAR GkCapOme
ENCODING 937
SWIDTH 840 0
DWIDTH 7 0
BBX 7 13 0 -2
BITMAP
00
00
3c
66
66
66
66
3c
18
7e
7e
00
00
ENDCHAR
STARTCHAR GkCapIotDrss
ENCODING 938
SWIDTH 840 0
DWIDTH 7 0
BBX 7 13 0 -2
BITMAP
36
36
00
7e
18
18
18
18
18
18
7e
00
00
ENDCHAR
STARTCHAR GkCapUpsDrss
ENCODING 939
SWIDTH 840 0
DWIDTH 7 0
BBX 7 13 0 -2
BITMAP
36
36
00
66
66
34
38
18
18
18
18
00
00
ENDCHAR
STARTCHAR GkSmlAlpTon
ENCODING 940
SWIDTH 840 0
DWIDTH 7 0
BBX 7 13 0 -2
BITMAP
08
18
10
00
3a
6e
6c
6c
6c
6e
36
00
00
ENDCHAR
STARTCHAR GkSmlEpsTon
ENCODING 941
SWIDTH 840 0
DWIDTH 7 0
BBX 7 13 0 -2
BITMAP
08
18
10
00
3c
66
70
38
60
66
3c
00
00
ENDCHAR
STARTCHAR GkSmlEtaTon
ENCODING 942
SWIDTH 840 0
DWIDTH 7 0
BBX 7 13 0 -2
BITMAP
08
18
10
00
6c
76
66
66
66
66
66
06
06
ENDCHAR
STARTCHAR GkSmlIotTon
ENCODING 943
SWIDTH 840 0
DWIDTH 7 0
BBX 7 13 0 -2
BITMAP
08
18
10
00
30
70
30
30
30
36
1c
00
00
ENDCHAR
STARTCHAR GkSmlUpsDrssTon
ENCODING 944
SWIDTH 840 0
DWIDTH 7 0
BBX 7 13 0 -2
BITMAP
08
6a
56
00
4c
66
66
66
66
66
3c
00
00
ENDCHAR
STARTCHAR GkSmlAlp
ENCODING 945
SWIDTH 840 0
DWIDTH 7 0
BBX 7 13 0 -2
BITMAP
00
00
00
00
3a
6e
6c
6c
6c
6e
36
00
00
ENDCHAR
STARTCHAR GkSmlBet
ENCODING 946
SWIDTH 840 0
DWIDTH 7 0
BBX 7 13 0 -2
BITMAP
00
38
6c
6c
6c
78
6c
66
66
76
6c
60
60
ENDCHAR
STARTCHAR GkSmlGam
ENCODING 947
SWIDTH 840 0
DWIDTH 7 0
BBX 7 13 0 -2
BITMAP
00
00
00
00
62
64
3c
38
18
18
18
18
18
ENDCHAR
STARTCHAR GkSmlDel
ENCODING 948
SWIDTH 840 0
DWIDTH 7 0
BBX 7 13 0 -2
BITMAP
00
1c
34
30
18
3c
66
66
66
66
3c
00
00
ENDCHAR
STARTCHAR GkSmlEps
ENCODING 949
SWIDTH 840 0
DWIDTH 7 0
BBX 7 13 0 -2
BITMAP
00
00
00
00
3c
66
70
38
60
66
3c
00
00
ENDCHAR
STARTCHAR GkSmlZet
ENCODING 950
SWIDTH 840 0
DWIDTH 7 0
BBX 7 13 0 -2
BITMAP
00
7c
7c
08
10
10
30
20
60
7c
3e
02
04
ENDCHAR
STARTCHAR GkSmlEta
ENCODING 951
SWIDTH 840 0
DWIDTH 7 0
BBX 7 13 0 -2
BITMAP
00
00
00
00
6c
76
66
66
66
66
66
06
06
ENDCHAR
STARTCHAR GkSmlThe
ENCODING 952
SWIDTH 840 0
DWIDTH 7 0
BBX 7 13 0 -2
BITMAP
00
18
24
66
66
7e
66
66
66
24
18
00
00
ENDCHAR
STARTCHAR GkSmlIot
ENCODING 953
SWIDTH 840 0
DWIDTH 7 0
BBX 7 13 0 -2
BITMAP
00
00
00
00
30
70
30
30
30
36
1c
00
00
ENDCHAR
STARTCHAR GkSmlKap
ENCODING 954
SWIDTH 840 0
DWIDTH 7 0
BBX 7 13 0 -2
BITMAP
00
00
00
00
66
64
68
78
6c
66
66
00
00
ENDCHAR
STARTCHAR GkSmlLam
ENCODING 955
SWIDTH 840 0
DWIDTH 7 0
BBX 7 13 0 -2
BITMAP
00
60
70
10
18
18
38
2c
6c
46
46
00
00
ENDCHAR
STARTCHAR GkSmlMu
ENCODING 956
SWIDTH 840 0
DWIDTH 7 0
BBX 7 13 0 -2
BITMAP
00
00
00
00
66
66
66
66
66
7e
6a
60
60
ENDCHAR
STARTCHAR GkSmlNu
ENCODING 957
SWIDTH 840 0
DWIDTH 7 0
BBX 7 13 0 -2
BITMAP
00
00
00
00
66
66
32
34
1c
18
08
00
00
ENDCHAR
STARTCHAR GkSmlXi
ENCODING 958
SWIDTH 840 0
DWIDTH 7 0
BBX 7 13 0 -2
BITMAP
00
7c
3c
20
60
3c
3c
20
60
7c
3e
02
04
ENDCHAR
STARTCHAR GkSmlOmi
ENCODING 959
SWIDTH 840 0
DWIDTH 7 0
BBX 7 13 0 -2
BITMAP
00
00
00
00
3c
66
66
66
66
66
3c
00
00
ENDCHAR
STARTCHAR GkSmlPi
ENCODING 960
SWIDTH 840 0
DWIDTH 7 0
BBX 7 13 0 -2
BITMAP
00
00
00
00
7e
7e
24
24
24
66
46
00
00
ENDCHAR
STARTCHAR GkSmlRho
ENCODING 961
SWIDTH 840 0
DWIDTH 7 0
BBX 7 13 0 -2
BITMAP
00
00
00
00
3c
66
66
66
66
76
6c
60
60
ENDCHAR
STARTCHAR GkSmlSigTrm
ENCODING 962
SWIDTH 840 0
DWIDTH 7 0
BBX 7 13 0 -2
BITMAP
00
00
00
00
1c
3e
60
40
60
3c
1e
02
04
ENDCHAR
STARTCHAR GkSmlSig
ENCODING 963
SWIDTH 840 0
DWIDTH 7 0
BBX 7 13 0 -2
BITMAP
00
00
00
00
3e
7e
68
44
44
6c
38
00
00
ENDCHAR
STARTCHAR GkSmlTau
ENCODING 964
SWIDTH 840 0
DWIDTH 7 0
BBX 7 13 0 -2
BITMAP
00
00
00
00
7e
7e
10
10
10
1c
0c
00
00
ENDCHAR
STARTCHAR GkSmlUps
ENCODING 965
SWIDTH 840 0
DWIDTH 7 0
BBX 7 13 0 -2
BITMAP
00
00
00
00
4c
66
66
66
66
66
3c
00
00
ENDCHAR
STARTCHAR GkSmlPhi
ENCODING 966
SWIDTH 840 0
DWIDTH 7 0
BBX 7 13 0 -2
BITMAP
00
00
00
00
0c
6e
6a
6a
6a
6a
3c
08
08
ENDCHAR
STARTCHAR GkSmlChi
ENCODING 967
SWIDTH 840 0
DWIDTH 7 0
BBX 7 13 0 -2
BITMAP
00
00
00
00
62
76
34
18
18
18
2c
6e
46
ENDCHAR
STARTCHAR GkSmlPsi
ENCODING 968
SWIDTH 840 0
DWIDTH 7 0
BBX 7 13 0 -2
BITMAP
00
08
08
08
4a
6a
6a
6a
6a
6a
3c
08
08
ENDCHAR
STARTCHAR GkSmlOme
ENCODING 969
SWIDTH 840 0
DWIDTH 7 0
BBX 7 13 0 -2
BITMAP
00
00
00
00
24
66
42
5a
5a
7e
24
00
00
ENDCHAR
STARTCHAR GkSmlIotDrss
ENCODING 970
SWIDTH 840 0
DWIDTH 7 0
BBX 7 13 0 -2
BITMAP
00
6c
6c
00
30
70
30
30
30
36
1c
00
00
ENDCHAR
STARTCHAR GkSmlUpsDrss
ENCODING 971
SWIDTH 840 0
DWIDTH 7 0
BBX 7 13 0 -2
BITMAP
00
6c
6c
00
4c
66
66
66
66
66
3c
00
00
ENDCHAR
STARTCHAR GkSmlOmiTon
ENCODING 972
SWIDTH 840 0
DWIDTH 7 0
BBX 7 13 0 -2
BITMAP
08
18
10
00
3c
66
66
66
66
66
3c
00
00
ENDCHAR
STARTCHAR GkSmlUpsTon
ENCODING 973
SWIDTH 840 0
DWIDTH 7 0
BBX 7 13 0 -2
BITMAP
08
18
10
00
4c
66
66
66
66
66
3c
00
00
ENDCHAR
STARTCHAR GkSmlOmeTon
ENCODING 974
SWIDTH 840 0
DWIDTH 7 0
BBX 7 13 0 -2
BITMAP
08
18
10
00
24
66
42
5a
5a
7e
24
00
00
ENDCHAR
STARTCHAR SGkCapKai
ENCODING 975
SWIDTH 840 0
DWIDTH 7 0
BBX 7 13 0 -2
BITMAP
00
00
66
64
68
78
78
6c
6c
66
6c
08
18
ENDCHAR
STARTCHAR GkSmlBetAlt
ENCODING 976
SWIDTH 840 0
DWIDTH 7 0
BBX 7 13 0 -2
BITMAP
00
18
2c
78
60
7c
66
66
66
26
1c
00
00
ENDCHAR
STARTCHAR GkSmlTheAlt
ENCODING 977
SWIDTH 840 0
DWIDTH 7 0
BBX 7 13 0 -2
BITMAP
00
18
3c
26
36
1e
06
66
36
36
1c
00
00
ENDCHAR
STARTCHAR GkCapUpsAlt
ENCODING 978
SWIDTH 840 0
DWIDTH 7 0
BBX 7 13 0 -2
BITMAP
00
00
66
76
18
18
18
18
18
18
18
00
00
ENDCHAR
STARTCHAR GkCapUpsAltTon
ENCODING 979
SWIDTH 840 0
DWIDTH 7 0
BBX 7 13 0 -2
BITMAP
40
c0
a6
76
18
18
18
18
18
18
18
00
00
ENDCHAR
STARTCHAR GkCapUpsAltDrss
ENCODING 980
SWIDTH 840 0
DWIDTH 7 0
BBX 7 13 0 -2
BITMAP
36
36
00
66
76
18
18
18
18
18
18
00
00
ENDCHAR
STARTCHAR GkSmlPhiAlt
ENCODING 981
SWIDTH 840 0
DWIDTH 7 0
BBX 7 13 0 -2
BITMAP
00
18
18
18
3c
6a
6a
6a
6a
6a
3c
18
18
ENDCHAR
STARTCHAR GkSmlPiAlt
ENCODING 982
SWIDTH 840 0
DWIDTH 7 0
BBX 7 13 0 -2
BITMAP
00
00
00
00
7e
7c
46
5a
5a
7e
24
00
00
ENDCHAR
STARTCHAR SGkKai
ENCODING 983
SWIDTH 840 0
DWIDTH 7 0
BBX 7 13 0 -2
BITMAP
00
00
00
00
66
64
68
78
6c
66
66
06
7c
ENDCHAR
STARTCHAR GkCapKopAlt1
ENCODING 984
SWIDTH 840 0
DWIDTH 7 0
BBX 7 13 0 -2
BITMAP
00
00
3c
66
66
66
66
3c
18
18
18
00
00
ENDCHAR
STARTCHAR GkSmlKopAlt1
ENCODING 985
SWIDTH 840 0
DWIDTH 7 0
BBX 7 13 0 -2
BITMAP
00
00
00
00
3c
66
66
66
66
66
3c
18
18
ENDCHAR
STARTCHAR GkCapSti
ENCODING 986
SWIDTH 840 0
DWIDTH 7 0
BBX 7 13 0 -2
BITMAP
00
00
1e
3e
60
40
60
3c
0c
0c
0c
00
00
ENDCHAR
STARTCHAR GkSmlSti
ENCODING 987
SWIDTH 840 0
DWIDTH 7 0
BBX 7 13 0 -2
BITMAP
00
00
00
02
1e
3c
60
40
40
78
3c
04
08
ENDCHAR
STARTCHAR GkCapDig
ENCODING 988
SWIDTH 840 0
DWIDTH 7 0
BBX 7 13 0 -2
BITMAP
00
00
7e
62
60
64
7c
64
60
60
60
00
00
ENDCHAR
STARTCHAR GkSmlDig
ENCODING 989
SWIDTH 840 0
DWIDTH 7 0
BBX 7 13 0 -2
BITMAP
00
00
00
00
1e
3e
20
3c
3c
20
20
60
40
ENDCHAR
STARTCHAR GkCapKop
ENCODING 990
SWIDTH 840 0
DWIDTH 7 0
BBX 7 13 0 -2
BITMAP
00
00
10
30
20
7e
7e
04
0c
08
08
00
00
ENDCHAR
STARTCHAR GkSmlKop
ENCODING 991
SWIDTH 840 0
DWIDTH 7 0
BBX 7 13 0 -2
BITMAP
00
40
40
40
42
46
4e
7e
72
62
42
02
02
ENDCHAR
STARTCHAR GkCapSam
ENCODING 992
SWIDTH 840 0
DWIDTH 7 0
BBX 7 13 0 -2
BITMAP
00
00
10
18
38
28
2c
4c
5c
56
56
00
00
ENDCHAR
STARTCHAR GkSmlSam
ENCODING 993
SWIDTH 840 0
DWIDTH 7 0
BBX 7 13 0 -2
BITMAP
00
60
30
18
0c
1c
36
6e
5a
32
22
06
04
ENDCHAR
STARTCHAR GkSmlKapAlt
ENCODING 1008
SWIDTH 840 0
DWIDTH 7 0
BBX 7 13 0 -2
BITMAP
00
00
00
00
66
66
2e
3c
74
66
66
00
00
ENDCHAR
STARTCHAR GkSmlRhoAlt
ENCODING 1009
SWIDTH 840 0
DWIDTH 7 0
BBX 7 13 0 -2
BITMAP
00
00
00
00
3c
66
66
66
66
5c
40
78
3c
ENDCHAR
STARTCHAR GkSmlSigLunate
ENCODING 1010
SWIDTH 840 0
DWIDTH 7 0
BBX 7 13 0 -2
BITMAP
00
00
00
00
3c
66
60
60
60
66
3c
00
00
ENDCHAR
STARTCHAR GkSmlYot
ENCODING 1011
SWIDTH 840 0
DWIDTH 7 0
BBX 7 13 0 -2
BITMAP
00
0c
0c
00
3c
0c
0c
0c
0c
0c
0c
6c
38
ENDCHAR
STARTCHAR GkCapTheAlt
ENCODING 1012
SWIDTH 840 0
DWIDTH 7 0
BBX 7 13 0 -2
BITMAP
00
00
3c
66
66
66
7e
66
66
66
3c
00
00
ENDCHAR
STARTCHAR GkSmlEpsAlt
ENCODING 1013
SWIDTH 840 0
DWIDTH 7 0
BBX 7 13 0 -2
BITMAP
00
00
00
00
1e
30
60
7c
60
60
3e
00
00
ENDCHAR
STARTCHAR GkSmlEpsRevAlt
ENCODING 1014
SWIDTH 840 0
DWIDTH 7 0
BBX 7 13 0 -2
BITMAP
00
00
00
00
78
0c
06
3e
06
06
7c
00
00
ENDCHAR
STARTCHAR GkCapSho
ENCODING 1015
SWIDTH 840 0
DWIDTH 7 0
BBX 7 13 0 -2
BITMAP
00
00
60
60
7c
66
66
66
7c
60
60
00
00
ENDCHAR
STARTCHAR GkSmlSho
ENCODING 1016
SWIDTH 840 0
DWIDTH 7 0
BBX 7 13 0 -2
BITMAP
00
60
60
60
6c
76
66
66
66
76
6c
60
60
ENDCHAR
STARTCHAR GkCapSigLunate
ENCODING 1017
SWIDTH 840 0
DWIDTH 7 0
BBX 7 13 0 -2
BITMAP
00
00
1c
36
60
60
60
60
60
36
1c
00
00
ENDCHAR
STARTCHAR GkCapSan
ENCODING 1018
SWIDTH 840 0
DWIDTH 7 0
BBX 7 13 0 -2
BITMAP
00
00
2c
2c
7e
56
46
46
46
46
46
00
00
ENDCHAR
STARTCHAR GkSmlSan
ENCODING 1019
SWIDTH 840 0
DWIDTH 7 0
BBX 7 13 0 -2
BITMAP
00
00
00
00
66
7e
66
66
66
66
66
60
60
ENDCHAR
STARTCHAR GkSmlRhoStroke
ENCODING 1020
SWIDTH 840 0
DWIDTH 7 0
BBX 7 13 0 -2
BITMAP
00
00
00
00
3c
66
66
66
76
6c
60
7c
60
ENDCHAR
STARTCHAR GkCapSigLunateRev
ENCODING 1021
SWIDTH 840 0
DWIDTH 7 0
BBX 7 13 0 -2
BITMAP
00
00
38
6c
06
06
06
06
06
6c
38
00
00
ENDCHAR
STARTCHAR GkCapSigLunateDot
ENCODING 1022
SWIDTH 840 0
DWIDTH 7 0
BBX 7 13 0 -2
BITMAP
00
00
1c
36
60
6c
6c
60
60
36
1c
00
00
ENDCHAR
STARTCHAR GkCapSigLunateRevDot
ENCODING 1023
SWIDTH 840 0
DWIDTH 7 0
BBX 7 13 0 -2
BITMAP
00
00
38
6c
06
36
36
06
06
6c
38
00
00
ENDCHAR
STARTCHAR CyCapIeGrave
ENCODING 1024
SWIDTH 840 0
DWIDTH 7 0
BBX 7 13 0 -2
BITMAP
70
18
00
7e
62
60
7c
64
60
62
7e
00
00
ENDCHAR
STARTCHAR CyCapIeDrss
ENCODING 1025
SWIDTH 840 0
DWIDTH 7 0
BBX 7 13 0 -2
BITMAP
36
36
00
7e
62
60
7c
64
60
62
7e
00
00
ENDCHAR
STARTCHAR CyCapDje
ENCODING 1026
SWIDTH 840 0
DWIDTH 7 0
BBX 7 13 0 -2
BITMAP
00
00
fc
b4
30
3c
36
36
36
36
36
06
1c
ENDCHAR
STARTCHAR CyCapGheAcute
ENCODING 1027
SWIDTH 840 0
DWIDTH 7 0
BBX 7 13 0 -2
BITMAP
0e
18
00
3e
32
30
30
30
30
30
30
00
00
ENDCHAR
STARTCHAR CyCapIeUkr
ENCODING 1028
SWIDTH 840 0
DWIDTH 7 0
BBX 7 13 0 -2
BITMAP
00
00
1c
36
60
60
7c
60
60
36
1c
00
00
ENDCHAR
STARTCHAR CyCapDze
ENCODING 1029
SWIDTH 840 0
DWIDTH 7 0
BBX 7 13 0 -2
BITMAP
00
00
3c
66
60
70
3c
0e
06
66
3c
00
00
ENDCHAR
STARTCHAR CyCapIUkr
ENCODING 1030
SWIDTH 840 0
DWIDTH 7 0
BBX 7 13 0 -2
BITMAP
00
00
7e
18
18
18
18
18
18
18
7e
00
00
ENDCHAR
STARTCHAR CyCapIUkrDrss
ENCODING 1031
SWIDTH 840 0
DWIDTH 7 0
BBX 7 13 0 -2
BITMAP
36
36
00
7e
18
18
18
18
18
18
7e
00
00
ENDCHAR
STARTCHAR CyCapJe
ENCODING 1032
SWIDTH 840 0
DWIDTH 7 0
BBX 7 13 0 -2
BITMAP
00
00
1e
0c
0c
0c
0c
0c
6c
6c
38
00
00
ENDCHAR
STARTCHAR CyCapLje
ENCODING 1033
SWIDTH 840 0
DWIDTH 7 0
BBX 7 13 0 -2
BITMAP
00
00
78
58
58
58
5c
5a
5a
da
9c
00
00
ENDCHAR
STARTCHAR CyCapNje
ENCODING 1034
SWIDTH 840 0
DWIDTH 7 0
BBX 7 13 0 -2
BITMAP
00
00
68
68
68
68
7c
6a
6a
6a
6c
00
00
ENDCHAR
STARTCHAR CyCapTshe
ENCODING 1035
SWIDTH 840 0
DWIDTH 7 0
BBX 7 13 0 -2
BITMAP
00
00
fc
b4
30
3c
36
36
36
36
36
00
00
ENDCHAR
STARTCHAR CyCapKaAcute
ENCODING 1036
SWIDTH 840 0
DWIDTH 7 0
BBX 7 13 0 -2
BITMAP
0e
18
00
66
64
68
78
78
6c
66
66
00
00
ENDCHAR
STARTCHAR CyCapIGrave
ENCODING 1037
SWIDTH 840 0
DWIDTH 7 0
BBX 7 13 0 -2
BITMAP
70
18
00
66
66
6e
6e
76
76
66
66
00
00
ENDCHAR
STARTCHAR CyCapUBreve
ENCODING 1038
SWIDTH 840 0
DWIDTH 7 0
BBX 7 13 0 -2
BITMAP
34
3c
00
62
76
34
1c
18
08
50
70
00
00
ENDCHAR
STARTCHAR CyCapDzhe
ENCODING 1039
SWIDTH 840 0
DWIDTH 7 0
BBX 7 13 0 -2
BITMAP
00
00
66
66
66
66
66
66
66
66
7e
18
18
ENDCHAR
STARTCHAR CyCapA
ENCODING 1040
SWIDTH 840 0
DWIDTH 7 0
BBX 7 13 0 -2
BITMAP
00
00
18
18
18
3c
2c
2c
7e
46
46
00
00
ENDCHAR
STARTCHAR CyCapBe
ENCODING 1041
SWIDTH 840 0
DWIDTH 7 0
BBX 7 13 0 -2
BITMAP
00
00
7c
64
60
60
7c
66
66
66
7c
00
00
ENDCHAR
STARTCHAR CyCapVe
ENCODING 1042
SWIDTH 840 0
DWIDTH 7 0
BBX 7 13 0 -2
BITMAP
00
00
7c
66
66
64
7c
66
66
66
7c
00
00
ENDCHAR
STARTCHAR CyCapGhe
ENCODING 1043
SWIDTH 840 0
DWIDTH 7 0
BBX 7 13 0 -2
BITMAP
00
00
3e
32
30
30
30
30
30
30
30
00
00
ENDCHAR
STARTCHAR CyCapDe
ENCODING 1044
SWIDTH 840 0
DWIDTH 7 0
BBX 7 13 0 -2
BITMAP
00
00
3c
2c
2c
2c
2c
2c
2c
6c
7e
66
66
ENDCHAR
STARTCHAR CyCapIe
ENCODING 1045
SWIDTH 840 0
DWIDTH 7 0
BBX 7 13 0 -2
BITMAP
00
00
7e
62
60
64
7c
64
60
62
7e
00
00
ENDCHAR
STARTCHAR CyCapZhe
ENCODING 1046
SWIDTH 840 0
DWIDTH 7 0
BBX 7 13 0 -2
BITMAP
00
00
d6
d6
54
38
7c
54
54
d6
d6
00
00
ENDCHAR
STARTCHAR CyCapZe
ENCODING 1047
SWIDTH 840 0
DWIDTH 7 0
BBX 7 13 0 -2
BITMAP
00
00
3c
66
06
04
1c
06
06
66
3c
00
00
ENDCHAR
STARTCHAR CyCapI
ENCODING 1048
SWIDTH 840 0
DWIDTH 7 0
BBX 7 13 0 -2
BITMAP
00
00
66
66
66
6e
6e
76
76
66
66
00
00
ENDCHAR
STARTCHAR CyCapIBreve
ENCODING 1049
SWIDTH 840 0
DWIDTH 7 0
BBX 7 13 0 -2
BITMAP
34
3c
00
66
66
6e
6e
76
76
66
66
00
00
ENDCHAR
STARTCHAR CyCapKa
ENCODING 1050
SWIDTH 840 0
DWIDTH 7 0
BBX 7 13 0 -2
BITMAP
00
00
66
64
68
78
78
6c
6c
66
66
00
00
ENDCHAR
STARTCHAR CyCapEl
ENCODING 1051
SWIDTH 840 0
DWIDTH 7 0
BBX 7 13 0 -2
BITMAP
00
00
1e
16
16
16
16
16
16
76
66
00
00
ENDCHAR
STARTCHAR CyCapEm
ENCODING 1052
SWIDTH 840 0
DWIDTH 7 0
BBX 7 13 0 -2
BITMAP
00
00
42
66
7e
7e
56
56
46
46
46
00
00
ENDCHAR
STARTCHAR CyCapEn
ENCODING 1053
SWIDTH 840 0
DWIDTH 7 0
BBX 7 13 0 -2
BITMAP
00
00
66
66
66
66
7e
66
66
66
66
00
00
ENDCHAR
STARTCHAR CyCapO
ENCODING 1054
SWIDTH 840 0
DWIDTH 7 0
BBX 7 13 0 -2
BITMAP
00
00
3c
66
66
66
66
66
66
66
3c
00
00
ENDCHAR
STARTCHAR CyCapPe
ENCODING 1055
SWIDTH 840 0
DWIDTH 7 0
BBX 7 13 0 -2
BITMAP
00
00
7e
66
66
66
66
66
66
66
66
00
00
ENDCHAR
STARTCHAR CyCapEr
ENCODING 1056
SWIDTH 840 0
DWIDTH 7 0
BBX 7 13 0 -2
BITMAP
00
00
7c
66
66
66
7c
60
60
60
60
00
00
ENDCHAR
STARTCHAR CyCapEs
ENCODING 1057
SWIDTH 840 0
DWIDTH 7 0
BBX 7 13 0 -2
BITMAP
00
00
1c
36
60
60
60
60
60
36
1c
00
00
ENDCHAR
STARTCHAR CyCapTe
ENCODING 1058
SWIDTH 840 0
DWIDTH 7 0
BBX 7 13 0 -2
BITMAP
00
00
7e
5a
18
18
18
18
18
18
18
00
00
ENDCHAR
STARTCHAR CyCapU
ENCODING 1059
SWIDTH 840 0
DWIDTH 7 0
BBX 7 13 0 -2
BITMAP
00
00
62
62
36
34
1c
18
08
50
70
00
00
ENDCHAR
STARTCHAR CyCapEf
ENCODING 1060
SWIDTH 840 0
DWIDTH 7 0
BBX 7 13 0 -2
BITMAP
00
00
08
3c
6a
6a
6a
6a
6a
3c
08
00
00
ENDCHAR
STARTCHAR CyCapHa
ENCODING 1061
SWIDTH 840 0
DWIDTH 7 0
BBX 7 13 0 -2
BITMAP
00
00
66
66
34
38
18
1c
2c
66
66
00
00
ENDCHAR
STARTCHAR CyCapTse
ENCODING 1062
SWIDTH 840 0
DWIDTH 7 0
BBX 7 13 0 -2
BITMAP
00
00
6c
6c
6c
6c
6c
6c
6c
6c
7e
06
06
ENDCHAR
STARTCHAR CyCapChe
ENCODING 1063
SWIDTH 840 0
DWIDTH 7 0
BBX 7 13 0 -2
BITMAP
00
00
66
66
66
66
3e
06
06
06
06
00
00
ENDCHAR
STARTCHAR CyCapSha
ENCODING 1064
SWIDTH 840 0
DWIDTH 7 0
BBX 7 13 0 -2
BITMAP
00
00
56
56
56
56
56
56
56
56
7e
00
00
ENDCHAR
STARTCHAR CyCapShcha
ENCODING 1065
SWIDTH 840 0
DWIDTH 7 0
BBX 7 13 0 -2
BITMAP
00
00
56
56
56
56
56
56
56
56
7e
06
06
ENDCHAR
STARTCHAR CyCapHardsign
ENCODING 1066
SWIDTH 840 0
DWIDTH 7 0
BBX 7 13 0 -2
BITMAP
00
00
78
78
58
18
1c
1e
1a
1e
1c
00
00
ENDCHAR
STARTCHAR CyCapYeru
ENCODING 1067
SWIDTH 840 0
DWIDTH 7 0
BBX 7 13 0 -2
BITMAP
00
00
66
66
66
66
76
7e
6e
7e
76
00
00
ENDCHAR
STARTCHAR CyCapSoftsign
ENCODING 1068
SWIDTH 840 0
DWIDTH 7 0
BBX 7 13 0 -2
BITMAP
00
00
60
60
60
60
7c
66
66
66
7c
00
00
ENDCHAR
STARTCHAR CyCapE
ENCODING 1069
SWIDTH 840 0
DWIDTH 7 0
BBX 7 13 0 -2
BITMAP
00
00
38
6c
06
06
3e
06
06
6c
38
00
00
ENDCHAR
STARTCHAR CyCapYu
ENCODING 1070
SWIDTH 840 0
DWIDTH 7 0
BBX 7 13 0 -2
BITMAP
00
00
6c
6e
6a
7a
7a
7a
6a
6e
6c
00
00
ENDCHAR
STARTCHAR CyCapYa
ENCODING 1071
SWIDTH 840 0
DWIDTH 7 0
BBX 7 13 0 -2
BITMAP
00
00
3e
66
66
66
3e
1e
36
66
66
00
00
ENDCHAR
STARTCHAR CySmlA
ENCODING 1072
SWIDTH 840 0
DWIDTH 7 0
BBX 7 13 0 -2
BITMAP
00
00
00
00
3c
36
06
3e
66
66
3e
00
00
ENDCHAR
STARTCHAR CySmlBe
ENCODING 1073
SWIDTH 840 0
DWIDTH 7 0
BBX 7 13 0 -2
BITMAP
00
04
1c
30
20
6c
76
66
66
66
3c
00
00
ENDCHAR
STARTCHAR CySmlVe
ENCODING 1074
SWIDTH 840 0
DWIDTH 7 0
BBX 7 13 0 -2
BITMAP
00
00
00
00
7c
66
64
7c
66
66
7c
00
00
ENDCHAR
STARTCHAR CySmlGhe
ENCODING 1075
SWIDTH 840 0
DWIDTH 7 0
BBX 7 13 0 -2
BITMAP
00
00
00
00
7e
66
60
60
60
60
60
00
00
ENDCHAR
STARTCHAR CySmlDe
ENCODING 1076
SWIDTH 840 0
DWIDTH 7 0
BBX 7 13 0 -2
BITMAP
00
00
00
00
3c
2c
2c
2c
2c
6c
7e
66
66
ENDCHAR
STARTCHAR CySmlIe
ENCODING 1077
SWIDTH 840 0
DWIDTH 7 0
BBX 7 13 0 -2
BITMAP
00
00
00
00
3c
66
66
7e
60
66
3c
00
00
ENDCHAR
STARTCHAR CySmlZhe
ENCODING 1078
SWIDTH 840 0
DWIDTH 7 0
BBX 7 13 0 -2
BITMAP
00
00
00
00
6a
6a
3a
3c
5c
56
56
00
00
ENDCHAR
STARTCHAR CySmlZe
ENCODING 1079
SWIDTH 840 0
DWIDTH 7 0
BBX 7 13 0 -2
BITMAP
00
00
00
00
3c
66
06
1c
06
66
3c
00
00
ENDCHAR
STARTCHAR CySmlI
ENCODING 1080
SWIDTH 840 0
DWIDTH 7 0
BBX 7 13 0 -2
BITMAP
00
00
00
00
66
66
6e
6e
76
76
66
00
00
ENDCHAR
STARTCHAR CySmlIBreve
ENCODING 1081
SWIDTH 840 0
DWIDTH 7 0
BBX 7 13 0 -2
BITMAP
00
34
3c
00
66
66
6e
6e
76
76
66
00
00
ENDCHAR
STARTCHAR CySmlKa
ENCODING 1082
SWIDTH 840 0
DWIDTH 7 0
BBX 7 13 0 -2
BITMAP
00
00
00
00
66
64
68
78
6c
66
66
00
00
ENDCHAR
STARTCHAR CySmlEl
ENCODING 1083
SWIDTH 840 0
DWIDTH 7 0
BBX 7 13 0 -2
BITMAP
00
00
00
00
1e
16
16
16
16
76
66
00
00
ENDCHAR
STARTCHAR CySmlEm
ENCODING 1084
SWIDTH 840 0
DWIDTH 7 0
BBX 7 13 0 -2
BITMAP
00
00
00
00
42
66
7e
7e
7e
56
56
00
00
ENDCHAR
STARTCHAR CySmlEn
ENCODING 1085
SWIDTH 840 0
DWIDTH 7 0
BBX 7 13 0 -2
BITMAP
00
00
00
00
66
66
66
7e
66
66
66
00
00
ENDCHAR
STARTCHAR CySmlO
ENCODING 1086
SWIDTH 840 0
DWIDTH 7 0
BBX 7 13 0 -2
BITMAP
00
00
00
00
3c
66
66
66
66
66
3c
00
00
ENDCHAR
STARTCHAR CySmlPe
ENCODING 1087
SWIDTH 840 0
DWIDTH 7 0
BBX 7 13 0 -2
BITMAP
00
00
00
00
7e
66
66
66
66
66
66
00
00
ENDCHAR
STARTCHAR CySmlEr
ENCODING 1088
SWIDTH 840 0
DWIDTH 7 0
BBX 7 13 0 -2
BITMAP
00
00
00
00
6c
76
66
66
66
76
6c
60
60
ENDCHAR
STARTCHAR CySmlEs
ENCODING 1089
SWIDTH 840 0
DWIDTH 7 0
BBX 7 13 0 -2
BITMAP
00
00
00
00
3c
66
60
60
60
66
3c
00
00
ENDCHAR
STARTCHAR CySmlTe
ENCODING 1090
SWIDTH 840 0
DWIDTH 7 0
BBX 7 13 0 -2
BITMAP
00
00
00
00
7e
5a
18
18
18
18
18
00
00
ENDCHAR
STARTCHAR CySmlU
ENCODING 1091
SWIDTH 840 0
DWIDTH 7 0
BBX 7 13 0 -2
BITMAP
00
00
00
00
62
62
34
34
1c
18
08
58
70
ENDCHAR
STARTCHAR CySmlEf
ENCODING 1092
SWIDTH 840 0
DWIDTH 7 0
BBX 7 13 0 -2
BITMAP
00
18
18
18
3c
6a
6a
6a
6a
6a
3c
18
18
ENDCHAR
STARTCHAR CySmlHa
ENCODING 1093
SWIDTH 840 0
DWIDTH 7 0
BBX 7 13 0 -2
BITMAP
00
00
00
00
66
64
38
18
1c
26
66
00
00
ENDCHAR
STARTCHAR CySmlTse
ENCODING 1094
SWIDTH 840 0
DWIDTH 7 0
BBX 7 13 0 -2
BITMAP
00
00
00
00
6c
6c
6c
6c
6c
6c
7e
06
06
ENDCHAR
STARTCHAR CySmlChe
ENCODING 1095
SWIDTH 840 0
DWIDTH 7 0
BBX 7 13 0 -2
BITMAP
00
00
00
00
66
66
66
3e
06
06
06
00
00
ENDCHAR
STARTCHAR CySmlSha
ENCODING 1096
SWIDTH 840 0
DWIDTH 7 0
BBX 7 13 0 -2
BITMAP
00
00
00
00
56
56
56
56
56
56
7e
00
00
ENDCHAR
STARTCHAR CySmlShcha
ENCODING 1097
SWIDTH 840 0
DWIDTH 7 0
BBX 7 13 0 -2
BITMAP
00
00
00
00
56
56
56
56
56
56
7e
06
06
ENDCHAR
STARTCHAR CySmlHardsign
ENCODING 1098
SWIDTH 840 0
DWIDTH 7 0
BBX 7 13 0 -2
BITMAP
00
00
00
00
70
70
50
1c
16
1e
1c
00
00
ENDCHAR
STARTCHAR CySmlYeru
ENCODING 1099
SWIDTH 840 0
DWIDTH 7 0
BBX 7 13 0 -2
BITMAP
00
00
00
00
66
66
66
76
6e
7e
76
00
00
ENDCHAR
STARTCHAR CySmlSoftsign
ENCODING 1100
SWIDTH 840 0
DWIDTH 7 0
BBX 7 13 0 -2
BITMAP
00
00
00
00
60
60
60
7c
66
66
7c
00
00
ENDCHAR
STARTCHAR CySmlE
ENCODING 1101
SWIDTH 840 0
DWIDTH 7 0
BBX 7 13 0 -2
BITMAP
00
00
00
00
38
6c
06
3e
06
6c
38
00
00
ENDCHAR
STARTCHAR CySmlYu
ENCODING 1102
SWIDTH 840 0
DWIDTH 7 0
BBX 7 13 0 -2
BITMAP
00
00
00
00
64
6e
6a
7a
6a
6e
64
00
00
ENDCHAR
STARTCHAR CySmlYa
ENCODING 1103
SWIDTH 840 0
DWIDTH 7 0
BBX 7 13 0 -2
BITMAP
00
00
00
00
3e
66
66
3e
16
36
66
00
00
ENDCHAR
STARTCHAR CySmlIeGrave
ENCODING 1104
SWIDTH 840 0
DWIDTH 7 0
BBX 7 13 0 -2
BITMAP
30
18
08
00
3c
66
66
7e
60
66
3c
00
00
ENDCHAR
STARTCHAR CySmlIeDrss
ENCODING 1105
SWIDTH 840 0
DWIDTH 7 0
BBX 7 13 0 -2
BITMAP
00
36
36
00
3c
66
66
7e
60
66
3c
00
00
ENDCHAR
STARTCHAR CySmlDje
ENCODING 1106
SWIDTH 840 0
DWIDTH 7 0
BBX 7 13 0 -2
BITMAP
00
60
fc
60
68
7c
66
66
66
66
66
0c
38
ENDCHAR
STARTCHAR CySmlGheAcute
ENCODING 1107
SWIDTH 840 0
DWIDTH 7 0
BBX 7 13 0 -2
BITMAP
0c
18
10
00
7e
66
60
60
60
60
60
00
00
ENDCHAR
STARTCHAR CySmlIeUkr
ENCODING 1108
SWIDTH 840 0
DWIDTH 7 0
BBX 7 13 0 -2
BITMAP
00
00
00
00
1c
36
60
7c
60
36
1c
00
00
ENDCHAR
STARTCHAR CySmlDze
ENCODING 1109
SWIDTH 840 0
DWIDTH 7 0
BBX 7 13 0 -2
BITMAP
00
00
00
00
3c
66
60
3c
06
66
3c
00
00
ENDCHAR
STARTCHAR CySmlIUkr
ENCODING 1110
SWIDTH 840 0
DWIDTH 7 0
BBX 7 13 0 -2
BITMAP
00
18
18
00
38
18
18
18
18
18
7e
00
00
ENDCHAR
STARTCHAR CySmlIUkrDrss
ENCODING 1111
SWIDTH 840 0
DWIDTH 7 0
BBX 7 13 0 -2
BITMAP
00
6c
6c
00
38
18
18
18
18
18
7e
00
00
ENDCHAR
STARTCHAR CySmlJe
ENCODING 1112
SWIDTH 840 0
DWIDTH 7 0
BBX 7 13 0 -2
BITMAP
00
0c
0c
00
3c
0c
0c
0c
0c
0c
0c
6c
38
ENDCHAR
STARTCHAR CySmlLje
ENCODING 1113
SWIDTH 840 0
DWIDTH 7 0
BBX 7 13 0 -2
BITMAP
00
00
00
00
38
78
58
5c
5a
5a
9c
00
00
ENDCHAR
STARTCHAR CySmlNje
ENCODING 1114
SWIDTH 840 0
DWIDTH 7 0
BBX 7 13 0 -2
BITMAP
00
00
00
00
68
68
68
7c
6a
6a
6c
00
00
ENDCHAR
STARTCHAR CySmlTshe
ENCODING 1115
SWIDTH 840 0
DWIDTH 7 0
BBX 7 13 0 -2
BITMAP
00
60
fc
60
6c
76
66
66
66
66
66
00
00
ENDCHAR
STARTCHAR CySmlKaAcute
ENCODING 1116
SWIDTH 840 0
DWIDTH 7 0
BBX 7 13 0 -2
BITMAP
06
0c
08
00
66
64
68
78
6c
66
66
00
00
ENDCHAR
STARTCHAR CySmlIGrave
ENCODING 1117
SWIDTH 840 0
DWIDTH 7 0
BBX 7 13 0 -2
BITMAP
30
18
08
00
66
66
6e
6e
76
76
66
00
00
ENDCHAR
STARTCHAR CySmlUBreve
ENCODING 1118
SWIDTH 840 0
DWIDTH 7 0
BBX 7 13 0 -2
BITMAP
00
34
3c
00
62
62
34
34
1c
18
08
58
70
ENDCHAR
STARTCHAR CySmlDzhe
ENCODING 1119
SWIDTH 840 0
DWIDTH 7 0
BBX 7 13 0 -2
BITMAP
00
00
00
00
66
66
66
66
66
66
7e
18
18
ENDCHAR
STARTCHAR CyCapOmega
ENCODING 1120
SWIDTH 840 0
DWIDTH 7 0
BBX 7 13 0 -2
BITMAP
00
00
62
6a
6a
6a
6a
6a
6a
7e
34
00
00
ENDCHAR
STARTCHAR CySmlOmega
ENCODING 1121
SWIDTH 840 0
DWIDTH 7 0
BBX 7 13 0 -2
BITMAP
00
00
00
00
62
6a
6a
6a
6a
7e
34
00
00
ENDCHAR
STARTCHAR CyCapYat
ENCODING 1122
SWIDTH 840 0
DWIDTH 7 0
BBX 7 13 0 -2
BITMAP
00
00
30
30
fc
30
3c
36
36
36
3c
00
00
ENDCHAR
STARTCHAR CySmlYat
ENCODING 1123
SWIDTH 840 0
DWIDTH 7 0
BBX 7 13 0 -2
BITMAP
00
68
30
30
7c
30
30
3c
36
36
3c
00
00
ENDCHAR
STARTCHAR CyCapIE
ENCODING 1124
SWIDTH 840 0
DWIDTH 7 0
BBX 7 13 0 -2
BITMAP
00
00
66
6e
6a
68
7e
68
6a
6e
66
00
00
ENDCHAR
STARTCHAR CySmlIE
ENCODING 1125
SWIDTH 840 0
DWIDTH 7 0
BBX 7 13 0 -2
BITMAP
00
00
00
00
66
6a
68
7e
68
6a
66
00
00
ENDCHAR
STARTCHAR CyCapLittleyus
ENCODING 1126
SWIDTH 840 0
DWIDTH 7 0
BBX 7 13 0 -2
BITMAP
00
00
18
18
18
3c
2c
2c
7e
56
56
00
00
ENDCHAR
STARTCHAR CySmlLittleyus
ENCODING 1127
SWIDTH 840 0
DWIDTH 7 0
BBX 7 13 0 -2
BITMAP
00
00
00
00
10
18
38
2c
7c
56
56
00
00
ENDCHAR
STARTCHAR CyCapILittleyus
ENCODING 1128
SWIDTH 840 0
DWIDTH 7 0
BBX 7 13 0 -2
BITMAP
00
00
48
48
5c
5c
74
54
7e
6a
6a
00
00
ENDCHAR
STARTCHAR CySmlILittleyus
ENCODING 1129
SWIDTH 840 0
DWIDTH 7 0
BBX 7 13 0 -2
BITMAP
00
00
00
00
48
5c
7c
54
7e
6a
6a
00
00
ENDCHAR
STARTCHAR CyCapBigyus
ENCODING 1130
SWIDTH 840 0
DWIDTH 7 0
BBX 7 13 0 -2
BITMAP
00
00
7e
62
76
3c
18
3c
56
56
56
00
00
ENDCHAR
STARTCHAR CySmlBigyus
ENCODING 1131
SWIDTH 840 0
DWIDTH 7 0
BBX 7 13 0 -2
BITMAP
00
00
00
00
7e
62
34
18
3c
56
56
00
00
ENDCHAR
STARTCHAR CyCapIBigyus
ENCODING 1132
SWIDTH 840 0
DWIDTH 7 0
BBX 7 13 0 -2
BITMAP
00
00
7e
72
5c
48
78
5c
7e
6a
6a
00
00
ENDCHAR
STARTCHAR CySmlIBigyus
ENCODING 1133
SWIDTH 840 0
DWIDTH 7 0
BBX 7 13 0 -2
BITMAP
00
00
00
00
7e
72
5c
78
5c
6a
6a
00
00
ENDCHAR
STARTCHAR CyCapKsi
ENCODING 1134
SWIDTH 840 0
DWIDTH 7 0
BBX 7 13 0 -2
BITMAP
6c
38
10
3c
66
06
1c
06
06
06
3c
60
3c
ENDCHAR
STARTCHAR CySmlKsi
ENCODING 1135
SWIDTH 840 0
DWIDTH 7 0
BBX 7 13 0 -2
BITMAP
00
6c
38
10
3c
66
06
1c
06
06
3c
60
3c
ENDCHAR
STARTCHAR CyCapPsi
ENCODING 1136
SWIDTH 840 0
DWIDTH 7 0
BBX 7 13 0 -2
BITMAP
00
00
6a
6a
6a
6a
6a
3c
08
08
1c
00
00
ENDCHAR
STARTCHAR CySmlPsi
ENCODING 1137
SWIDTH 840 0
DWIDTH 7 0
BBX 7 13 0 -2
BITMAP
00
08
08
08
4a
6a
6a
6a
6a
6a
3c
08
08
ENDCHAR
STARTCHAR CyCapFita
ENCODING 1138
SWIDTH 840 0
DWIDTH 7 0
BBX 7 13 0 -2
BITMAP
00
00
3c
66
66
66
7e
66
66
66
3c
00
00
ENDCHAR
STARTCHAR CySmlFita
ENCODING 1139
SWIDTH 840 0
DWIDTH 7 0
BBX 7 13 0 -2
BITMAP
00
00
00
00
3c
66
66
7e
66
66
3c
00
00
ENDCHAR
STARTCHAR CyCapIzhitsa
ENCODING 1140
SWIDTH 840 0
DWIDTH 7 0
BBX 7 13 0 -2
BITMAP
00
00
42
66
64
34
34
38
18
18
08
00
00
ENDCHAR
STARTCHAR CySmlIzhitsa
ENCODING 1141
SWIDTH 840 0
DWIDTH 7 0
BBX 7 13 0 -2
BITMAP
00
00
00
00
42
66
64
34
38
18
18
00
00
ENDCHAR
STARTCHAR CyCapIzhitsaGrave2
ENCODING 1142
SWIDTH 840 0
DWIDTH 7 0
BBX 7 13 0 -2
BITMAP
d8
6c
24
42
66
34
34
38
18
18
08
00
00
ENDCHAR
STARTCHAR CySmlIzhitsaGrave2
ENCODING 1143
SWIDTH 840 0
DWIDTH 7 0
BBX 7 13 0 -2
BITMAP
58
6c
34
00
42
66
64
34
38
18
18
00
00
ENDCHAR
STARTCHAR CyCapOu
ENCODING 1144
SWIDTH 840 0
DWIDTH 7 0
BBX 7 13 0 -2
BITMAP
00
00
20
70
5a
5a
5a
5e
5c
74
24
08
08
ENDCHAR
STARTCHAR CySmlOu
ENCODING 1145
SWIDTH 840 0
DWIDTH 7 0
BBX 7 13 0 -2
BITMAP
00
00
00
00
2a
7a
5a
5e
5c
74
24
08
08
ENDCHAR
STARTCHAR CyCapOmegaRound
ENCODING 1146
SWIDTH 840 0
DWIDTH 7 0
BBX 7 13 0 -2
BITMAP
00
18
3c
7e
5a
42
42
42
5a
7e
3c
18
00
ENDCHAR
STARTCHAR CySmlOmegaRound
ENCODING 1147
SWIDTH 840 0
DWIDTH 7 0
BBX 7 13 0 -2
BITMAP
00
00
00
18
3c
7e
5a
42
5a
7e
3c
18
00
ENDCHAR
STARTCHAR CyCapOmegaOrnate
ENCODING 1148
SWIDTH 840 0
DWIDTH 7 0
BBX 7 13 0 -2
BITMAP
38
56
24
66
42
42
5a
5a
5a
7e
24
00
00
ENDCHAR
STARTCHAR CySmlOmegaOrnate
ENCODING 1149
SWIDTH 840 0
DWIDTH 7 0
BBX 7 13 0 -2
BITMAP
38
5c
4a
00
24
66
42
5a
5a
7e
24
00
00
ENDCHAR
STARTCHAR CyCapOmegaT
ENCODING 1150
SWIDTH 840 0
DWIDTH 7 0
BBX 7 13 0 -2
BITMAP
7e
5a
00
62
6a
6a
6a
6a
6a
7e
34
00
00
ENDCHAR
STARTCHAR CySmlOmegaT
ENCODING 1151
SWIDTH 840 0
DWIDTH 7 0
BBX 7 13 0 -2
BITMAP
00
7e
5a
00
62
6a
6a
6a
6a
7e
34
00
00
ENDCHAR
STARTCHAR CyCapKoppa
ENCODING 1152
SWIDTH 840 0
DWIDTH 7 0
BBX 7 13 0 -2
BITMAP
00
00
1c
36
60
60
60
60
60
30
1c
0c
0c
ENDCHAR
STARTCHAR CySmlKoppa
ENCODING 1153
SWIDTH 840 0
DWIDTH 7 0
BBX 7 13 0 -2
BITMAP
00
00
00
00
3c
66
60
60
60
60
3c
0c
0c
ENDCHAR
STARTCHAR SCyThousands
ENCODING 1154
SWIDTH 840 0
DWIDTH 7 0
BBX 7 13 0 -2
BITMAP
00
00
06
16
1c
0e
5a
70
38
68
60
00
00
ENDCHAR
STARTCHAR CombTitlo
ENCODING 1155
SWIDTH 840 0
DWIDTH 7 0
BBX 7 13 0 -2
BITMAP
06
7e
60
00
00
00
00
00
00
00
00
00
00
ENDCHAR
STARTCHAR CombCyPalat
ENCODING 1156
SWIDTH 840 0
DWIDTH 7 0
BBX 7 13 0 -2
BITMAP
00
1c
36
00
00
00
00
00
00
00
00
00
00
ENDCHAR
STARTCHAR CombCyDasia
ENCODING 1157
SWIDTH 840 0
DWIDTH 7 0
BBX 7 13 0 -2
BITMAP
18
10
08
00
00
00
00
00
00
00
00
00
00
ENDCHAR
STARTCHAR CombCyPsili
ENCODING 1158
SWIDTH 840 0
DWIDTH 7 0
BBX 7 13 0 -2
BITMAP
18
08
10
00
00
00
00
00
00
00
00
00
00
ENDCHAR
STARTCHAR CombPokrytie
ENCODING 1159
SWIDTH 840 0
DWIDTH 7 0
BBX 7 13 0 -2
BITMAP
38
6c
42
00
00
00
00
00
00
00
00
00
00
ENDCHAR
STARTCHAR CyCapIBreveTail
ENCODING 1162
SWIDTH 840 0
DWIDTH 7 0
BBX 7 13 0 -2
BITMAP
34
3c
00
66
66
6e
6e
76
76
66
6e
06
0c
ENDCHAR
STARTCHAR CySmlIBreveTail
ENCODING 1163
SWIDTH 840 0
DWIDTH 7 0
BBX 7 13 0 -2
BITMAP
00
34
3c
00
66
66
6e
6e
76
66
6e
06
0c
ENDCHAR
STARTCHAR CyCapSemisoftsign
ENCODING 1164
SWIDTH 840 0
DWIDTH 7 0
BBX 7 13 0 -2
BITMAP
00
00
60
60
f0
60
7c
66
66
66
7c
00
00
ENDCHAR
STARTCHAR CySmlSemisoftsign
ENCODING 1165
SWIDTH 840 0
DWIDTH 7 0
BBX 7 13 0 -2
BITMAP
00
00
00
00
30
78
30
3c
36
36
3c
00
00
ENDCHAR
STARTCHAR CyCapErTick
ENCODING 1166
SWIDTH 840 0
DWIDTH 7 0
BBX 7 13 0 -2
BITMAP
00
00
7c
66
6a
6e
7c
66
60
60
60
00
00
ENDCHAR
STARTCHAR CySmlErTick
ENCODING 1167
SWIDTH 840 0
DWIDTH 7 0
BBX 7 13 0 -2
BITMAP
00
00
00
00
6c
76
66
66
76
6e
7c
66
60
ENDCHAR
STARTCHAR CyCapGheUpturn
ENCODING 1168
SWIDTH 840 0
DWIDTH 7 0
BBX 7 13 0 -2
BITMAP
06
06
3e
30
30
30
30
30
30
30
30
00
00
ENDCHAR
STARTCHAR CySmlGheUpturn
ENCODING 1169
SWIDTH 840 0
DWIDTH 7 0
BBX 7 13 0 -2
BITMAP
00
00
06
06
7e
60
60
60
60
60
60
00
00
ENDCHAR
STARTCHAR CyCapGheStroke
ENCODING 1170
SWIDTH 840 0
DWIDTH 7 0
BBX 7 13 0 -2
BITMAP
00
00
3e
32
30
30
7c
30
30
30
30
00
00
ENDCHAR
STARTCHAR CySmlGheStroke
ENCODING 1171
SWIDTH 840 0
DWIDTH 7 0
BBX 7 13 0 -2
BITMAP
00
00
00
00
3e
36
30
7c
30
30
30
00
00
ENDCHAR
STARTCHAR CyCapGheMhook
ENCODING 1172
SWIDTH 840 0
DWIDTH 7 0
BBX 7 13 0 -2
BITMAP
00
00
7e
62
60
60
78
64
66
66
66
0c
38
ENDCHAR
STARTCHAR CySmlGheMhook
ENCODING 1173
SWIDTH 840 0
DWIDTH 7 0
BBX 7 13 0 -2
BITMAP
00
00
00
00
7e
66
60
78
64
66
66
0c
38
ENDCHAR
STARTCHAR CyCapZheDesc
ENCODING 1174
SWIDTH 840 0
DWIDTH 7 0
BBX 7 13 0 -2
BITMAP
00
00
d6
d6
54
38
7c
54
54
d6
d6
06
06
ENDCHAR
STARTCHAR CySmlZheDesc
ENCODING 1175
SWIDTH 840 0
DWIDTH 7 0
BBX 7 13 0 -2
BITMAP
00
00
00
00
6a
6a
3a
3c
5c
56
56
06
06
ENDCHAR
STARTCHAR CyCapZeDesc
ENCODING 1176
SWIDTH 840 0
DWIDTH 7 0
BBX 7 13 0 -2
BITMAP
00
00
3c
66
06
04
1c
06
06
66
3c
18
30
ENDCHAR
STARTCHAR CySmlZeDesc
ENCODING 1177
SWIDTH 840 0
DWIDTH 7 0
BBX 7 13 0 -2
BITMAP
00
00
00
00
3c
66
06
1c
06
66
3c
18
30
ENDCHAR
STARTCHAR CyCapKaDesc
ENCODING 1178
SWIDTH 840 0
DWIDTH 7 0
BBX 7 13 0 -2
BITMAP
00
00
66
64
68
78
78
6c
6c
66
66
06
06
ENDCHAR
STARTCHAR CySmlKaDesc
ENCODING 1179
SWIDTH 840 0
DWIDTH 7 0
BBX 7 13 0 -2
BITMAP
00
00
00
00
66
64
68
78
6c
66
66
06
06
ENDCHAR
STARTCHAR CyCapKaStrokeV
ENCODING 1180
SWIDTH 840 0
DWIDTH 7 0
BBX 7 13 0 -2
BITMAP
00
00
46
56
54
78
7c
56
56
46
46
00
00
ENDCHAR
STARTCHAR CySmlKaStrokeV
ENCODING 1181
SWIDTH 840 0
DWIDTH 7 0
BBX 7 13 0 -2
BITMAP
00
00
00
00
46
56
78
7c
56
56
46
00
00
ENDCHAR
STARTCHAR CyCapKaStroke
ENCODING 1182
SWIDTH 840 0
DWIDTH 7 0
BBX 7 13 0 -2
BITMAP
00
00
66
f4
68
78
78
6c
6c
66
66
00
00
ENDCHAR
STARTCHAR CySmlKaStroke
ENCODING 1183
SWIDTH 840 0
DWIDTH 7 0
BBX 7 13 0 -2
BITMAP
00
60
f8
60
66
64
68
78
6c
66
66
00
00
ENDCHAR
STARTCHAR CyCapKaBshk
ENCODING 1184
SWIDTH 840 0
DWIDTH 7 0
BBX 7 13 0 -2
BITMAP
00
00
f6
f6
34
38
3c
36
36
36
36
00
00
ENDCHAR
STARTCHAR CySmlKaBshk
ENCODING 1185
SWIDTH 840 0
DWIDTH 7 0
BBX 7 13 0 -2
BITMAP
00
00
00
00
76
76
38
3c
36
36
36
00
00
ENDCHAR
STARTCHAR CyCapEnDesc
ENCODING 1186
SWIDTH 840 0
DWIDTH 7 0
BBX 7 13 0 -2
BITMAP
00
00
66
66
66
66
7e
66
66
66
66
06
06
ENDCHAR
STARTCHAR CySmlEnDesc
ENCODING 1187
SWIDTH 840 0
DWIDTH 7 0
BBX 7 13 0 -2
BITMAP
00
00
00
00
66
66
66
7e
66
66
66
06
06
ENDCHAR
STARTCHAR CyCapEnGhe
ENCODING 1188
SWIDTH 840 0
DWIDTH 7 0
BBX 7 13 0 -2
BITMAP
00
00
6e
6e
68
68
78
68
68
68
68
00
00
ENDCHAR
STARTCHAR CySmlEnGhe
ENCODING 1189
SWIDTH 840 0
DWIDTH 7 0
BBX 7 13 0 -2
BITMAP
00
00
00
00
6e
6e
68
78
68
68
68
00
00
ENDCHAR
STARTCHAR CyCapPeMhook
ENCODING 1190
SWIDTH 840 0
DWIDTH 7 0
BBX 7 13 0 -2
BITMAP
00
00
78
78
68
6c
6e
6a
6a
6a
6a
06
0c
ENDCHAR
STARTCHAR CySmlPeMhook
ENCODING 1191
SWIDTH 840 0
DWIDTH 7 0
BBX 7 13 0 -2
BITMAP
00
00
00
00
78
78
6c
6e
6a
6a
6a
06
0c
ENDCHAR
STARTCHAR CyCapHaAbkh
ENCODING 1192
SWIDTH 840 0
DWIDTH 7 0
BBX 7 13 0 -2
BITMAP
00
00
3c
62
64
6e
6a
6a
6e
6c
36
00
00
ENDCHAR
STARTCHAR CySmlHaAbkh
ENCODING 1193
SWIDTH 840 0
DWIDTH 7 0
BBX 7 13 0 -2
BITMAP
00
00
00
00
3c
62
64
6e
6a
6c
3e
00
00
ENDCHAR
STARTCHAR CyCapEsDesc
ENCODING 1194
SWIDTH 840 0
DWIDTH 7 0
BBX 7 13 0 -2
BITMAP
00
00
1c
36
60
60
60
60
60
36
1c
18
30
ENDCHAR
STARTCHAR CySmlEsDesc
ENCODING 1195
SWIDTH 840 0
DWIDTH 7 0
BBX 7 13 0 -2
BITMAP
00
00
00
00
3c
66
60
60
60
66
3c
18
30
ENDCHAR
STARTCHAR CyCapTeDesc
ENCODING 1196
SWIDTH 840 0
DWIDTH 7 0
BBX 7 13 0 -2
BITMAP
00
00
7e
5a
18
18
18
18
18
18
1c
0c
0c
ENDCHAR
STARTCHAR CySmlTeDesc
ENCODING 1197
SWIDTH 840 0
DWIDTH 7 0
BBX 7 13 0 -2
BITMAP
00
00
00
00
7e
5a
18
18
18
18
1c
0c
0c
ENDCHAR
STARTCHAR CyCapUStrt
ENCODING 1198
SWIDTH 840 0
DWIDTH 7 0
BBX 7 13 0 -2
BITMAP
00
00
66
66
34
38
18
18
18
18
18
00
00
ENDCHAR
STARTCHAR CySmlUStrt
ENCODING 1199
SWIDTH 840 0
DWIDTH 7 0
BBX 7 13 0 -2
BITMAP
00
00
00
00
62
66
34
3c
18
18
18
18
18
ENDCHAR
STARTCHAR CyCapUStrtStroke
ENCODING 1200
SWIDTH 840 0
DWIDTH 7 0
BBX 7 13 0 -2
BITMAP
00
00
66
66
34
38
18
18
7e
18
18
00
00
ENDCHAR
STARTCHAR CySmlUStrtStroke
ENCODING 1201
SWIDTH 840 0
DWIDTH 7 0
BBX 7 13 0 -2
BITMAP
00
00
00
00
62
66
34
3c
18
18
7e
18
18
ENDCHAR
STARTCHAR CyCapHaDesc
ENCODING 1202
SWIDTH 840 0
DWIDTH 7 0
BBX 7 13 0 -2
BITMAP
00
00
66
66
34
38
18
1c
2c
66
66
06
06
ENDCHAR
STARTCHAR CySmlHaDesc
ENCODING 1203
SWIDTH 840 0
DWIDTH 7 0
BBX 7 13 0 -2
BITMAP
00
00
00
00
66
64
38
18
1c
26
66
06
06
ENDCHAR
STARTCHAR CyCapTeTse
ENCODING 1204
SWIDTH 840 0
DWIDTH 7 0
BBX 7 13 0 -2
BITMAP
00
00
f6
f6
66
66
66
66
66
66
7e
06
06
ENDCHAR
STARTCHAR CySmlTeTse
ENCODING 1205
SWIDTH 840 0
DWIDTH 7 0
BBX 7 13 0 -2
BITMAP
00
00
00
00
f6
f6
66
66
66
66
7e
06
06
ENDCHAR
STARTCHAR CyCapCheDesc
ENCODING 1206
SWIDTH 840 0
DWIDTH 7 0
BBX 7 13 0 -2
BITMAP
00
00
6c
6c
6c
6c
3c
0c
0c
0c
0e
06
06
ENDCHAR
STARTCHAR CySmlCheDesc
ENCODING 1207
SWIDTH 840 0
DWIDTH 7 0
BBX 7 13 0 -2
BITMAP
00
00
00
00
6c
6c
6c
3c
0c
0c
0e
06
06
ENDCHAR
STARTCHAR CyCapCheStrokeV
ENCODING 1208
SWIDTH 840 0
DWIDTH 7 0
BBX 7 13 0 -2
BITMAP
00
00
46
46
56
76
3e
16
16
06
06
00
00
ENDCHAR
STARTCHAR CySmlCheStrokeV
ENCODING 1209
SWIDTH 840 0
DWIDTH 7 0
BBX 7 13 0 -2
BITMAP
00
00
00
00
46
56
76
3e
16
16
06
00
00
ENDCHAR
STARTCHAR CyCapShha
ENCODING 1210
SWIDTH 840 0
DWIDTH 7 0
BBX 7 13 0 -2
BITMAP
00
00
60
60
60
60
7c
66
66
66
66
00
00
ENDCHAR
STARTCHAR CySmlShha
ENCODING 1211
SWIDTH 840 0
DWIDTH 7 0
BBX 7 13 0 -2
BITMAP
00
60
60
60
6c
76
66
66
66
66
66
00
00
ENDCHAR
STARTCHAR CyCapCheAbkh
ENCODING 1212
SWIDTH 840 0
DWIDTH 7 0
BBX 7 13 0 -2
BITMAP
00
00
6c
5e
52
72
3e
30
30
1a
0e
00
00
ENDCHAR
STARTCHAR CySmlCheAbkh
ENCODING 1213
SWIDTH 840 0
DWIDTH 7 0
BBX 7 13 0 -2
BITMAP
00
00
00
00
6c
5e
72
3e
30
1a
0e
00
00
ENDCHAR
STARTCHAR CyCapCheAbkhDesc
ENCODING 1214
SWIDTH 840 0
DWIDTH 7 0
BBX 7 13 0 -2
BITMAP
00
00
6c
5e
52
72
3e
30
30
1a
0e
0c
0c
ENDCHAR
STARTCHAR CySmlCheAbkhDesc
ENCODING 1215
SWIDTH 840 0
DWIDTH 7 0
BBX 7 13 0 -2
BITMAP
00
00
00
00
6c
5e
72
3e
30
1a
0e
0c
0c
ENDCHAR
STARTCHAR CyCapPalochka
ENCODING 1216
SWIDTH 840 0
DWIDTH 7 0
BBX 7 13 0 -2
BITMAP
00
00
3c
18
18
18
18
18
18
18
3c
00
00
ENDCHAR
STARTCHAR CyCapZheBreve
ENCODING 1217
SWIDTH 840 0
DWIDTH 7 0
BBX 7 13 0 -2
BITMAP
34
3c
c2
d6
54
38
7c
54
54
d6
d6
00
00
ENDCHAR
STARTCHAR CySmlZheBreve
ENCODING 1218
SWIDTH 840 0
DWIDTH 7 0
BBX 7 13 0 -2
BITMAP
00
34
3c
00
6a
6a
3a
3c
5c
56
56
00
00
ENDCHAR
STARTCHAR CyCapKaLhook
ENCODING 1219
SWIDTH 840 0
DWIDTH 7 0
BBX 7 13 0 -2
BITMAP
00
00
66
64
68
78
7c
66
66
66
66
0c
38
ENDCHAR
STARTCHAR CySmlKaLhook
ENCODING 1220
SWIDTH 840 0
DWIDTH 7 0
BBX 7 13 0 -2
BITMAP
00
00
00
00
66
64
68
7c
66
66
66
0c
38
ENDCHAR
STARTCHAR CyCapElTail
ENCODING 1221
SWIDTH 840 0
DWIDTH 7 0
BBX 7 13 0 -2
BITMAP
00
00
1e
16
16
16
16
16
36
66
6e
06
0c
ENDCHAR
STARTCHAR CySmlElTail
ENCODING 1222
SWIDTH 840 0
DWIDTH 7 0
BBX 7 13 0 -2
BITMAP
00
00
00
00
1e
16
16
16
36
66
6e
06
0c
ENDCHAR
STARTCHAR CyCapEnLhook
ENCODING 1223
SWIDTH 840 0
DWIDTH 7 0
BBX 7 13 0 -2
BITMAP
00
00
66
66
66
66
7e
66
66
66
66
0c
38
ENDCHAR
STARTCHAR CySmlEnLhook
ENCODING 1224
SWIDTH 840 0
DWIDTH 7 0
BBX 7 13 0 -2
BITMAP
00
00
00
00
66
66
66
7e
66
66
66
0c
38
ENDCHAR
STARTCHAR CyCapEnTail
ENCODING 1225
SWIDTH 840 0
DWIDTH 7 0
BBX 7 13 0 -2
BITMAP
00
00
66
66
66
66
7e
66
66
66
6e
06
0c
ENDCHAR
STARTCHAR CySmlEnTail
ENCODING 1226
SWIDTH 840 0
DWIDTH 7 0
BBX 7 13 0 -2
BITMAP
00
00
00
00
66
66
66
7e
66
66
6e
06
0c
ENDCHAR
STARTCHAR CyCapCheKhks
ENCODING 1227
SWIDTH 840 0
DWIDTH 7 0
BBX 7 13 0 -2
BITMAP
00
00
66
66
66
66
3e
06
06
06
0e
0c
0c
ENDCHAR
STARTCHAR CySmlCheKhks
ENCODING 1228
SWIDTH 840 0
DWIDTH 7 0
BBX 7 13 0 -2
BITMAP
00
00
00
00
66
66
66
3e
06
06
0e
0c
0c
ENDCHAR
STARTCHAR CyCapEmTail
ENCODING 1229
SWIDTH 840 0
DWIDTH 7 0
BBX 7 13 0 -2
BITMAP
00
00
42
66
7e
7e
56
56
46
46
4e
06
0c
ENDCHAR
STARTCHAR CySmlEmTail
ENCODING 1230
SWIDTH 840 0
DWIDTH 7 0
BBX 7 13 0 -2
BITMAP
00
00
00
00
42
66
7e
7e
56
46
4e
06
0c
ENDCHAR
STARTCHAR CySmlPalochka
ENCODING 1231
SWIDTH 840 0
DWIDTH 7 0
BBX 7 13 0 -2
BITMAP
00
3c
18
18
18
18
18
18
18
18
3c
00
00
ENDCHAR
STARTCHAR CyCapABreve
ENCODING 1232
SWIDTH 840 0
DWIDTH 7 0
BBX 7 13 0 -2
BITMAP
36
1c
00
18
18
3c
2c
2c
7e
46
46
00
00
ENDCHAR
STARTCHAR CySmlABreve
ENCODING 1233
SWIDTH 840 0
DWIDTH 7 0
BBX 7 13 0 -2
BITMAP
00
36
1c
00
3c
36
06
3e
66
66
3e
00
00
ENDCHAR
STARTCHAR CyCapADrss
ENCODING 1234
SWIDTH 840 0
DWIDTH 7 0
BBX 7 13 0 -2
BITMAP
36
36
00
18
18
3c
2c
2c
7e
46
46
00
00
ENDCHAR
STARTCHAR CySmlADrss
ENCODING 1235
SWIDTH 840 0
DWIDTH 7 0
BBX 7 13 0 -2
BITMAP
00
36
36
00
3c
36
06
3e
66
66
3e
00
00
ENDCHAR
STARTCHAR CyCapAIe
ENCODING 1236
SWIDTH 840 0
DWIDTH 7 0
BBX 7 13 0 -2
BITMAP
00
00
3e
38
38
58
5e
58
f8
98
9e
00
00
ENDCHAR
STARTCHAR CySmlAIe
ENCODING 1237
SWIDTH 840 0
DWIDTH 7 0
BBX 7 13 0 -2
BITMAP
00
00
00
00
3e
7a
1a
3e
58
5a
7e
00
00
ENDCHAR
STARTCHAR CyCapIeBreve
ENCODING 1238
SWIDTH 840 0
DWIDTH 7 0
BBX 7 13 0 -2
BITMAP
36
1c
00
7e
62
60
7c
64
60
62
7e
00
00
ENDCHAR
STARTCHAR CySmlIeBreve
ENCODING 1239
SWIDTH 840 0
DWIDTH 7 0
BBX 7 13 0 -2
BITMAP
00
36
1c
00
3c
66
66
7e
60
66
3c
00
00
ENDCHAR
STARTCHAR CyCapSchwa
ENCODING 1240
SWIDTH 840 0
DWIDTH 7 0
BBX 7 13 0 -2
BITMAP
00
00
3c
66
06
06
7e
66
66
66
3c
00
00
ENDCHAR
STARTCHAR CySmlSchwa
ENCODING 1241
SWIDTH 840 0
DWIDTH 7 0
BBX 7 13 0 -2
BITMAP
00
00
00
00
38
6c
06
7e
66
6c
38
00
00
ENDCHAR
STARTCHAR CyCapSchwaDrss
ENCODING 1242
SWIDTH 840 0
DWIDTH 7 0
BBX 7 13 0 -2
BITMAP
36
36
00
3c
66
06
7e
66
66
66
3c
00
00
ENDCHAR
STARTCHAR CySmlSchwaDrss
ENCODING 1243
SWIDTH 840 0
DWIDTH 7 0
BBX 7 13 0 -2
BITMAP
00
6c
6c
00
38
6c
06
7e
66
6c
38
00
00
ENDCHAR
STARTCHAR CyCapZheDrss
ENCODING 1244
SWIDTH 840 0
DWIDTH 7 0
BBX 7 13 0 -2
BITMAP
6c
6c
82
d6
54
38
7c
54
54
d6
d6
00
00
ENDCHAR
STARTCHAR CySmlZheDrss
ENCODING 1245
SWIDTH 840 0
DWIDTH 7 0
BBX 7 13 0 -2
BITMAP
00
36
36
00
6a
6a
3a
3c
5c
56
56
00
00
ENDCHAR
STARTCHAR CyCapZeDrss
ENCODING 1246
SWIDTH 840 0
DWIDTH 7 0
BBX 7 13 0 -2
BITMAP
36
36
00
3c
66
06
1c
06
06
66
3c
00
00
ENDCHAR
STARTCHAR CySmlZeDrss
ENCODING 1247
SWIDTH 840 0
DWIDTH 7 0
BBX 7 13 0 -2
BITMAP
00
36
36
00
3c
66
06
1c
06
66
3c
00
00
ENDCHAR
STARTCHAR CyCapDzeAbkh
ENCODING 1248
SWIDTH 840 0
DWIDTH 7 0
BBX 7 13 0 -2
BITMAP
00
00
7e
46
0c
18
1c
06
06
66
3c
00
00
ENDCHAR
STARTCHAR CySmlDzeAbkh
ENCODING 1249
SWIDTH 840 0
DWIDTH 7 0
BBX 7 13 0 -2
BITMAP
00
00
00
00
7e
46
0c
18
1c
06
66
66
3c
ENDCHAR
STARTCHAR CyCapIMacron
ENCODING 1250
SWIDTH 840 0
DWIDTH 7 0
BBX 7 13 0 -2
BITMAP
3c
3c
00
66
66
6e
6e
76
76
66
66
00
00
ENDCHAR
STARTCHAR CySmlIMacron
ENCODING 1251
SWIDTH 840 0
DWIDTH 7 0
BBX 7 13 0 -2
BITMAP
00
3c
3c
00
66
66
6e
6e
76
76
66
00
00
ENDCHAR
STARTCHAR CyCapIDrss
ENCODING 1252
SWIDTH 840 0
DWIDTH 7 0
BBX 7 13 0 -2
BITMAP
36
36
00
66
66
6e
6e
76
76
66
66
00
00
ENDCHAR
STARTCHAR CySmlIDrss
ENCODING 1253
SWIDTH 840 0
DWIDTH 7 0
BBX 7 13 0 -2
BITMAP
00
36
36
00
66
66
6e
6e
76
76
66
00
00
ENDCHAR
STARTCHAR CyCapODrss
ENCODING 1254
SWIDTH 840 0
DWIDTH 7 0
BBX 7 13 0 -2
BITMAP
36
36
00
3c
66
66
66
66
66
66
3c
00
00
ENDCHAR
STARTCHAR CySmlODrss
ENCODING 1255
SWIDTH 840 0
DWIDTH 7 0
BBX 7 13 0 -2
BITMAP
00
36
36
00
3c
66
66
66
66
66
3c
00
00
ENDCHAR
STARTCHAR CyCapOStrokeH
ENCODING 1256
SWIDTH 840 0
DWIDTH 7 0
BBX 7 13 0 -2
BITMAP
00
00
3c
66
66
66
7e
66
66
66
3c
00
00
ENDCHAR
STARTCHAR CySmlOStrokeH
ENCODING 1257
SWIDTH 840 0
DWIDTH 7 0
BBX 7 13 0 -2
BITMAP
00
00
00
00
3c
66
66
7e
66
66
3c
00
00
ENDCHAR
STARTCHAR CyCapOStrokeHDrss
ENCODING 1258
SWIDTH 840 0
DWIDTH 7 0
BBX 7 13 0 -2
BITMAP
36
36
00
3c
66
66
7e
66
66
66
3c
00
00
ENDCHAR
STARTCHAR CySmlOStrokeHDrss
ENCODING 1259
SWIDTH 840 0
DWIDTH 7 0
BBX 7 13 0 -2
BITMAP
00
36
36
00
3c
66
66
7e
66
66
3c
00
00
ENDCHAR
STARTCHAR CyCapEDrss
ENCODING 1260
SWIDTH 840 0
DWIDTH 7 0
BBX 7 13 0 -2
BITMAP
6c
6c
00
38
6c
06
3e
06
06
6c
38
00
00
ENDCHAR
STARTCHAR CySmlEDrss
ENCODING 1261
SWIDTH 840 0
DWIDTH 7 0
BBX 7 13 0 -2
BITMAP
00
6c
6c
00
38
6c
06
3e
06
6c
38
00
00
ENDCHAR
STARTCHAR CyCapUMacron
ENCODING 1262
SWIDTH 840 0
DWIDTH 7 0
BBX 7 13 0 -2
BITMAP
3c
3c
00
62
76
34
1c
18
08
50
70
00
00
ENDCHAR
STARTCHAR CySmlUMacron
ENCODING 1263
SWIDTH 840 0
DWIDTH 7 0
BBX 7 13 0 -2
BITMAP
00
3c
3c
00
62
62
34
34
1c
18
08
58
70
ENDCHAR
STARTCHAR CyCapUDrss
ENCODING 1264
SWIDTH 840 0
DWIDTH 7 0
BBX 7 13 0 -2
BITMAP
36
36
00
62
76
34
1c
18
08
50
70
00
00
ENDCHAR
STARTCHAR CySmlUDrss
ENCODING 1265
SWIDTH 840 0
DWIDTH 7 0
BBX 7 13 0 -2
BITMAP
00
36
36
00
62
62
34
34
1c
18
08
58
70
ENDCHAR
STARTCHAR CyCapUAcute2
ENCODING 1266
SWIDTH 840 0
DWIDTH 7 0
BBX 7 13 0 -2
BITMAP
36
6c
48
62
76
34
1c
18
08
50
70
00
00
ENDCHAR
STARTCHAR CySmlUAcute2
ENCODING 1267
SWIDTH 840 0
DWIDTH 7 0
BBX 7 13 0 -2
BITMAP
1a
36
2c
00
62
62
34
34
1c
18
08
58
70
ENDCHAR
STARTCHAR CyCapCheDrss
ENCODING 1268
SWIDTH 840 0
DWIDTH 7 0
BBX 7 13 0 -2
BITMAP
36
36
00
66
66
66
3e
06
06
06
06
00
00
ENDCHAR
STARTCHAR CySmlCheDrss
ENCODING 1269
SWIDTH 840 0
DWIDTH 7 0
BBX 7 13 0 -2
BITMAP
00
36
36
00
66
66
66
3e
06
06
06
00
00
ENDCHAR
STARTCHAR CyCapGheDesc
ENCODING 1270
SWIDTH 840 0
DWIDTH 7 0
BBX 7 13 0 -2
BITMAP
00
00
3e
32
30
30
30
30
30
30
38
18
18
ENDCHAR
STARTCHAR CySmlGheDesc
ENCODING 1271
SWIDTH 840 0
DWIDTH 7 0
BBX 7 13 0 -2
BITMAP
00
00
00
00
7e
66
60
60
60
60
70
30
30
ENDCHAR
STARTCHAR CyCapYeruDrss
ENCODING 1272
SWIDTH 840 0
DWIDTH 7 0
BBX 7 13 0 -2
BITMAP
36
36
00
66
66
66
76
6e
6e
6e
76
00
00
ENDCHAR
STARTCHAR CySmlYeruDrss
ENCODING 1273
SWIDTH 840 0
DWIDTH 7 0
BBX 7 13 0 -2
BITMAP
00
36
36
00
66
66
66
76
6e
6e
76
00
00
ENDCHAR
STARTCHAR CyCapGheStrokeLhook
ENCODING 1274
SWIDTH 840 0
DWIDTH 7 0
BBX 7 13 0 -2
BITMAP
00
00
3e
32
30
30
7c
30
30
30
38
0c
38
ENDCHAR
STARTCHAR CySmlGheStrokeLhook
ENCODING 1275
SWIDTH 840 0
DWIDTH 7 0
BBX 7 13 0 -2
BITMAP
00
00
00
00
3e
36
30
7c
30
30
38
0c
38
ENDCHAR
STARTCHAR CyCapHaLhook
ENCODING 1276
SWIDTH 840 0
DWIDTH 7 0
BBX 7 13 0 -2
BITMAP
00
00
66
66
34
38
18
1c
2c
66
66
0c
38
ENDCHAR
STARTCHAR CySmlHaLhook
ENCODING 1277
SWIDTH 840 0
DWIDTH 7 0
BBX 7 13 0 -2
BITMAP
00
00
00
00
66
64
38
18
1c
26
66
0c
38
ENDCHAR
STARTCHAR CyCapHaStroke
ENCODING 1278
SWIDTH 840 0
DWIDTH 7 0
BBX 7 13 0 -2
BITMAP
00
00
66
66
34
18
7e
18
2c
66
66
00
00
ENDCHAR
STARTCHAR CySmlHaStroke
ENCODING 1279
SWIDTH 840 0
DWIDTH 7 0
BBX 7 13 0 -2
BITMAP
00
00
00
00
66
64
38
7e
1c
26
66
00
00
ENDCHAR
STARTCHAR CyCapDeKomi
ENCODING 1280
SWIDTH 840 0
DWIDTH 7 0
BBX 7 13 0 -2
BITMAP
00
00
06
06
06
06
3e
66
66
66
3e
00
00
ENDCHAR
STARTCHAR CySmlDeKomi
ENCODING 1281
SWIDTH 840 0
DWIDTH 7 0
BBX 7 13 0 -2
BITMAP
00
06
06
06
36
6e
66
66
66
6e
36
00
00
ENDCHAR
STARTCHAR CyCapDjeKomi
ENCODING 1282
SWIDTH 840 0
DWIDTH 7 0
BBX 7 13 0 -2
BITMAP
00
00
18
18
18
18
7a
da
9a
da
7c
00
00
ENDCHAR
STARTCHAR CySmlDjeKomi
ENCODING 1283
SWIDTH 840 0
DWIDTH 7 0
BBX 7 13 0 -2
BITMAP
00
18
18
18
38
78
58
5a
5a
7a
3c
00
00
ENDCHAR
STARTCHAR CyCapZjeKomi
ENCODING 1284
SWIDTH 840 0
DWIDTH 7 0
BBX 7 13 0 -2
BITMAP
00
00
70
58
18
18
32
1a
1a
1a
0c
00
00
ENDCHAR
STARTCHAR CySmlZjeKomi
ENCODING 1285
SWIDTH 840 0
DWIDTH 7 0
BBX 7 13 0 -2
BITMAP
00
00
00
00
70
58
18
32
1a
1a
0c
00
00
ENDCHAR
STARTCHAR CyCapDzjeKomi
ENCODING 1286
SWIDTH 840 0
DWIDTH 7 0
BBX 7 13 0 -2
BITMAP
00
00
78
4c
0c
08
38
0c
0c
0c
0e
06
06
ENDCHAR
STARTCHAR CySmlDzjeKomi
ENCODING 1287
SWIDTH 840 0
DWIDTH 7 0
BBX 7 13 0 -2
BITMAP
00
00
00
00
78
4c
0c
18
0c
0c
0e
06
06
ENDCHAR
STARTCHAR CyCapLjeKomi
ENCODING 1288
SWIDTH 840 0
DWIDTH 7 0
BBX 7 13 0 -2
BITMAP
00
00
78
58
58
58
5a
5a
5a
da
8c
00
00
ENDCHAR
STARTCHAR CySmlLjeKomi
ENCODING 1289
SWIDTH 840 0
DWIDTH 7 0
BBX 7 13 0 -2
BITMAP
00
00
00
00
38
78
58
5a
5a
5a
8c
00
00
ENDCHAR
STARTCHAR CyCapNjeKomi
ENCODING 1290
SWIDTH 840 0
DWIDTH 7 0
BBX 7 13 0 -2
BITMAP
00
00
68
68
68
68
7a
6a
6a
6a
64
00
00
ENDCHAR
STARTCHAR CySmlNjeKomi
ENCODING 1291
SWIDTH 840 0
DWIDTH 7 0
BBX 7 13 0 -2
BITMAP
00
00
00
00
68
68
68
7a
6a
6a
64
00
00
ENDCHAR
STARTCHAR CyCapSjeKomi
ENCODING 1292
SWIDTH 840 0
DWIDTH 7 0
BBX 7 13 0 -2
BITMAP
00
00
1c
36
60
60
66
66
66
36
1c
00
00
ENDCHAR
STARTCHAR CySmlSjeKomi
ENCODING 1293
SWIDTH 840 0
DWIDTH 7 0
BBX 7 13 0 -2
BITMAP
00
00
00
00
3c
66
60
66
66
66
3c
00
00
ENDCHAR
STARTCHAR CyCapTjeKomi
ENCODING 1294
SWIDTH 840 0
DWIDTH 7 0
BBX 7 13 0 -2
BITMAP
00
00
7e
5a
18
18
1a
1a
1a
1a
0c
00
00
ENDCHAR
STARTCHAR CySmlTjeKomi
ENCODING 1295
SWIDTH 840 0
DWIDTH 7 0
BBX 7 13 0 -2
BITMAP
00
00
00
00
7e
5a
18
1a
1a
1a
0c
00
00
ENDCHAR
STARTCHAR CyCapZeRev
ENCODING 1296
SWIDTH 840 0
DWIDTH 7 0
BBX 7 13 0 -2
BITMAP
00
00
3c
66
60
20
38
60
60
66
3c
00
00
ENDCHAR
STARTCHAR CySmlZeRev
ENCODING 1297
SWIDTH 840 0
DWIDTH 7 0
BBX 7 13 0 -2
BITMAP
00
00
00
00
3c
66
60
38
60
66
3c
00
00
ENDCHAR
STARTCHAR CyCapElLhook
ENCODING 1298
SWIDTH 840 0
DWIDTH 7 0
BBX 7 13 0 -2
BITMAP
00
00
1e
16
16
16
16
16
16
76
66
0c
38
ENDCHAR
STARTCHAR CySmlElLhook
ENCODING 1299
SWIDTH 840 0
DWIDTH 7 0
BBX 7 13 0 -2
BITMAP
00
00
00
00
1e
16
16
16
16
76
66
0c
38
ENDCHAR
STARTCHAR CyCapQa
ENCODING 1306
SWIDTH 840 0
DWIDTH 7 0
BBX 7 13 0 -2
BITMAP
00
00
3c
66
66
66
66
66
76
6e
3c
06
02
ENDCHAR
STARTCHAR CySmlQa
ENCODING 1307
SWIDTH 840 0
DWIDTH 7 0
BBX 7 13 0 -2
BITMAP
00
00
00
00
36
6e
66
66
66
6e
36
06
06
ENDCHAR
STARTCHAR CyCapWe
ENCODING 1308
SWIDTH 840 0
DWIDTH 7 0
BBX 7 13 0 -2
BITMAP
00
00
62
62
62
6a
6a
7e
3c
34
34
00
00
ENDCHAR
STARTCHAR CySmlWe
ENCODING 1309
SWIDTH 840 0
DWIDTH 7 0
BBX 7 13 0 -2
BITMAP
00
00
00
00
62
6a
6a
6a
7e
34
34
00
00
ENDCHAR
STARTCHAR CyCapPeDesc
ENCODING 1316
SWIDTH 840 0
DWIDTH 7 0
BBX 7 13 0 -2
BITMAP
00
00
7e
66
66
66
66
66
66
66
66
06
06
ENDCHAR
STARTCHAR CySmlPeDesc
ENCODING 1317
SWIDTH 840 0
DWIDTH 7 0
BBX 7 13 0 -2
BITMAP
00
00
00
00
7e
66
66
66
66
66
66
06
06
ENDCHAR
STARTCHAR CyCapShhaDesc
ENCODING 1318
SWIDTH 840 0
DWIDTH 7 0
BBX 7 13 0 -2
BITMAP
00
00
60
60
60
60
7c
66
66
66
66
06
06
ENDCHAR
STARTCHAR CySmlShhaDesc
ENCODING 1319
SWIDTH 840 0
DWIDTH 7 0
BBX 7 13 0 -2
BITMAP
00
60
60
60
6c
76
66
66
66
66
66
06
06
ENDCHAR
STARTCHAR AmCapAyb
ENCODING 1329
SWIDTH 840 0
DWIDTH 7 0
BBX 7 13 0 -2
BITMAP
00
00
6c
6c
6c
6c
6c
6c
6c
6e
36
00
00
ENDCHAR
STARTCHAR AmCapBen
ENCODING 1330
SWIDTH 840 0
DWIDTH 7 0
BBX 7 13 0 -2
BITMAP
00
00
38
6c
6c
60
60
7c
66
60
60
00
00
ENDCHAR
STARTCHAR AmCapGim
ENCODING 1331
SWIDTH 840 0
DWIDTH 7 0
BBX 7 13 0 -2
BITMAP
00
00
38
6c
6c
6c
6e
3e
0c
0c
0c
00
00
ENDCHAR
STARTCHAR AmCapDa
ENCODING 1332
SWIDTH 840 0
DWIDTH 7 0
BBX 7 13 0 -2
BITMAP
00
00
38
6c
6c
6c
0e
0e
0c
0c
0c
00
00
ENDCHAR
STARTCHAR AmCapEch
ENCODING 1333
SWIDTH 840 0
DWIDTH 7 0
BBX 7 13 0 -2
BITMAP
00
00
60
60
7c
66
60
60
6c
6c
38
00
00
ENDCHAR
STARTCHAR AmCapZa
ENCODING 1334
SWIDTH 840 0
DWIDTH 7 0
BBX 7 13 0 -2
BITMAP
00
00
1c
36
36
36
1c
04
68
7c
66
06
00
ENDCHAR
STARTCHAR AmCapEh
ENCODING 1335
SWIDTH 840 0
DWIDTH 7 0
BBX 7 13 0 -2
BITMAP
00
00
60
60
7c
66
60
60
60
60
78
0c
00
ENDCHAR
STARTCHAR AmCapEt
ENCODING 1336
SWIDTH 840 0
DWIDTH 7 0
BBX 7 13 0 -2
BITMAP
00
00
3c
66
66
66
60
60
60
60
7c
06
00
ENDCHAR
STARTCHAR AmCapTo
ENCODING 1337
SWIDTH 840 0
DWIDTH 7 0
BBX 7 13 0 -2
BITMAP
00
00
3c
66
6e
7a
7a
6c
60
60
60
00
00
ENDCHAR
STARTCHAR AmCapZhe
ENCODING 1338
SWIDTH 840 0
DWIDTH 7 0
BBX 7 13 0 -2
BITMAP
00
00
0c
0c
3e
6e
6c
6c
6c
6c
38
00
00
ENDCHAR
STARTCHAR AmCapIni
ENCODING 1339
SWIDTH 840 0
DWIDTH 7 0
BBX 7 13 0 -2
BITMAP
00
00
60
60
7c
66
66
66
60
60
60
00
00
ENDCHAR
STARTCHAR AmCapLiwn
ENCODING 1340
SWIDTH 840 0
DWIDTH 7 0
BBX 7 13 0 -2
BITMAP
00
00
60
60
60
60
60
60
60
60
7c
06
00
ENDCHAR
STARTCHAR AmCapXeh
ENCODING 1341
SWIDTH 840 0
DWIDTH 7 0
BBX 7 13 0 -2
BITMAP
00
00
60
60
7a
7a
6a
6a
6a
6e
64
00
00
ENDCHAR
STARTCHAR AmCapCa
ENCODING 1342
SWIDTH 840 0
DWIDTH 7 0
BBX 7 13 0 -2
BITMAP
00
00
6e
38
2c
66
66
66
66
24
18
00
00
ENDCHAR
STARTCHAR AmCapKen
ENCODING 1343
SWIDTH 840 0
DWIDTH 7 0
BBX 7 13 0 -2
BITMAP
00
00
60
60
66
66
66
3e
06
06
06
00
00
ENDCHAR
STARTCHAR AmCapHo
ENCODING 1344
SWIDTH 840 0
DWIDTH 7 0
BBX 7 13 0 -2
BITMAP
00
00
18
18
0c
08
30
60
78
1e
06
00
00
ENDCHAR
STARTCHAR AmCapJa
ENCODING 1345
SWIDTH 840 0
DWIDTH 7 0
BBX 7 13 0 -2
BITMAP
00
00
38
6c
66
06
06
34
78
4e
36
00
00
ENDCHAR
STARTCHAR AmCapGhad
ENCODING 1346
SWIDTH 840 0
DWIDTH 7 0
BBX 7 13 0 -2
BITMAP
00
00
38
6c
6c
0c
0c
0c
0c
0c
0e
02
00
ENDCHAR
STARTCHAR AmCapCheh
ENCODING 1347
SWIDTH 840 0
DWIDTH 7 0
BBX 7 13 0 -2
BITMAP
00
00
46
6c
18
34
24
66
66
66
7e
00
00
ENDCHAR
STARTCHAR AmCapMen
ENCODING 1348
SWIDTH 840 0
DWIDTH 7 0
BBX 7 13 0 -2
BITMAP
00
00
6c
6e
6a
68
68
68
68
78
30
00
00
ENDCHAR
STARTCHAR AmCapYi
ENCODING 1349
SWIDTH 840 0
DWIDTH 7 0
BBX 7 13 0 -2
BITMAP
00
00
38
2c
0c
78
4c
06
66
66
3c
00
00
ENDCHAR
STARTCHAR AmCapNow
ENCODING 1350
SWIDTH 840 0
DWIDTH 7 0
BBX 7 13 0 -2
BITMAP
00
00
70
60
30
30
36
36
36
36
1c
00
00
ENDCHAR
STARTCHAR AmCapSha
ENCODING 1351
SWIDTH 840 0
DWIDTH 7 0
BBX 7 13 0 -2
BITMAP
00
00
60
38
1e
26
60
60
60
36
1c
00
00
ENDCHAR
STARTCHAR AmCapVo
ENCODING 1352
SWIDTH 840 0
DWIDTH 7 0
BBX 7 13 0 -2
BITMAP
00
00
3c
66
66
66
66
66
66
66
66
00
00
ENDCHAR
STARTCHAR AmCapCha
ENCODING 1353
SWIDTH 840 0
DWIDTH 7 0
BBX 7 13 0 -2
BITMAP
00
00
38
6c
06
06
06
64
78
1e
06
00
00
ENDCHAR
STARTCHAR AmCapPeh
ENCODING 1354
SWIDTH 840 0
DWIDTH 7 0
BBX 7 13 0 -2
BITMAP
00
00
3c
7e
56
56
56
16
16
06
06
00
00
ENDCHAR
STARTCHAR AmCapJheh
ENCODING 1355
SWIDTH 840 0
DWIDTH 7 0
BBX 7 13 0 -2
BITMAP
00
00
18
2c
66
76
1e
0c
68
7c
66
06
00
ENDCHAR
STARTCHAR AmCapRa
ENCODING 1356
SWIDTH 840 0
DWIDTH 7 0
BBX 7 13 0 -2
BITMAP
00
00
30
78
68
68
6c
6e
6a
68
68
00
00
ENDCHAR
STARTCHAR AmCapSeh
ENCODING 1357
SWIDTH 840 0
DWIDTH 7 0
BBX 7 13 0 -2
BITMAP
00
00
66
66
66
66
66
66
66
66
3c
00
00
ENDCHAR
STARTCHAR AmCapVew
ENCODING 1358
SWIDTH 840 0
DWIDTH 7 0
BBX 7 13 0 -2
BITMAP
00
00
0c
0c
6c
6c
6c
3c
0c
0c
0e
02
00
ENDCHAR
STARTCHAR AmCapTiwn
ENCODING 1359
SWIDTH 840 0
DWIDTH 7 0
BBX 7 13 0 -2
BITMAP
00
00
3c
66
60
30
18
0c
06
66
3c
00
00
ENDCHAR
STARTCHAR AmCapReh
ENCODING 1360
SWIDTH 840 0
DWIDTH 7 0
BBX 7 13 0 -2
BITMAP
00
00
3c
66
66
66
60
60
60
60
60
00
00
ENDCHAR
STARTCHAR AmCapCo
ENCODING 1361
SWIDTH 840 0
DWIDTH 7 0
BBX 7 13 0 -2
BITMAP
00
00
38
6c
6c
38
6c
06
06
66
3c
00
00
ENDCHAR
STARTCHAR AmCapYiwn
ENCODING 1362
SWIDTH 840 0
DWIDTH 7 0
BBX 7 13 0 -2
BITMAP
00
00
60
60
7c
66
60
60
60
60
60
00
00
ENDCHAR
STARTCHAR AmCapPiwr
ENCODING 1363
SWIDTH 840 0
DWIDTH 7 0
BBX 7 13 0 -2
BITMAP
00
00
18
3c
6a
6a
6a
6a
6a
3c
18
00
00
ENDCHAR
STARTCHAR AmCapKeh
ENCODING 1364
SWIDTH 840 0
DWIDTH 7 0
BBX 7 13 0 -2
BITMAP
00
00
1c
36
36
36
3c
30
78
34
30
00
00
ENDCHAR
STARTCHAR AmCapOh
ENCODING 1365
SWIDTH 840 0
DWIDTH 7 0
BBX 7 13 0 -2
BITMAP
00
00
18
24
66
66
66
66
66
24
18
00
00
ENDCHAR
STARTCHAR AmCapFeh
ENCODING 1366
SWIDTH 840 0
DWIDTH 7 0
BBX 7 13 0 -2
BITMAP
00
00
38
68
68
38
1c
16
56
56
3c
00
00
ENDCHAR
STARTCHAR AccAmRingHalfL
ENCODING 1369
SWIDTH 840 0
DWIDTH 7 0
BBX 7 13 0 -2
BITMAP
00
1c
30
30
1c
00
00
00
00
00
00
00
00
ENDCHAR
STARTCHAR PAmApostrophe
ENCODING 1370
SWIDTH 840 0
DWIDTH 7 0
BBX 7 13 0 -2
BITMAP
00
30
38
18
30
00
00
00
00
00
00
00
00
ENDCHAR
STARTCHAR AccAmEmphasis
ENCODING 1371
SWIDTH 840 0
DWIDTH 7 0
BBX 7 13 0 -2
BITMAP
00
0c
18
30
00
00
00
00
00
00
00
00
00
ENDCHAR
STARTCHAR AccAmExclam
ENCODING 1372
SWIDTH 840 0
DWIDTH 7 0
BBX 7 13 0 -2
BITMAP
00
02
3e
7c
40
00
00
00
00
00
00
00
00
ENDCHAR
STARTCHAR PAmComma
ENCODING 1373
SWIDTH 840 0
DWIDTH 7 0
BBX 7 13 0 -2
BITMAP
00
30
18
18
0c
00
00
00
00
00
00
00
00
ENDCHAR
STARTCHAR AccAmQuestion
ENCODING 1374
SWIDTH 840 0
DWIDTH 7 0
BBX 7 13 0 -2
BITMAP
00
1c
26
6e
00
00
00
00
00
00
00
00
00
ENDCHAR
STARTCHAR AccAmAbbrev
ENCODING 1375
SWIDTH 840 0
DWIDTH 7 0
BBX 7 13 0 -2
BITMAP
00
38
60
3e
00
00
00
00
00
00
00
00
00
ENDCHAR
STARTCHAR AmSmlAyb
ENCODING 1377
SWIDTH 840 0
DWIDTH 7 0
BBX 7 13 0 -2
BITMAP
00
00
00
00
00
56
56
56
56
7e
3e
00
00
ENDCHAR
STARTCHAR AmSmlBen
ENCODING 1378
SWIDTH 840 0
DWIDTH 7 0
BBX 7 13 0 -2
BITMAP
00
00
00
00
00
7c
66
66
60
60
7e
60
60
ENDCHAR
STARTCHAR AmSmlGim
ENCODING 1379
SWIDTH 840 0
DWIDTH 7 0
BBX 7 13 0 -2
BITMAP
00
00
00
00
00
38
78
58
58
7e
3e
18
18
ENDCHAR
STARTCHAR AmSmlDa
ENCODING 1380
SWIDTH 840 0
DWIDTH 7 0
BBX 7 13 0 -2
BITMAP
00
00
00
00
00
70
78
58
58
5e
5e
18
18
ENDCHAR
STARTCHAR AmSmlEch
ENCODING 1381
SWIDTH 840 0
DWIDTH 7 0
BBX 7 13 0 -2
BITMAP
00
60
60
60
60
7e
60
60
66
66
3e
00
00
ENDCHAR
STARTCHAR AmSmlZa
ENCODING 1382
SWIDTH 840 0
DWIDTH 7 0
BBX 7 13 0 -2
BITMAP
00
00
00
00
00
3c
6c
6c
6c
6c
3c
0c
0e
ENDCHAR
STARTCHAR AmSmlEh
ENCODING 1383
SWIDTH 840 0
DWIDTH 7 0
BBX 7 13 0 -2
BITMAP
00
60
60
60
60
7e
60
60
60
60
3c
06
0c
ENDCHAR
STARTCHAR AmSmlEt
ENCODING 1384
SWIDTH 840 0
DWIDTH 7 0
BBX 7 13 0 -2
BITMAP
00
00
00
00
00
7c
66
66
66
66
66
60
7e
ENDCHAR
STARTCHAR AmSmlTo
ENCODING 1385
SWIDTH 840 0
DWIDTH 7 0
BBX 7 13 0 -2
BITMAP
00
7c
66
66
66
6e
76
76
76
76
6c
60
60
ENDCHAR
STARTCHAR AmSmlZhe
ENCODING 1386
SWIDTH 840 0
DWIDTH 7 0
BBX 7 13 0 -2
BITMAP
00
0c
0c
0c
0c
1e
2c
6c
6c
6c
38
00
00
ENDCHAR
STARTCHAR AmSmlIni
ENCODING 1387
SWIDTH 840 0
DWIDTH 7 0
BBX 7 13 0 -2
BITMAP
00
60
60
60
60
7c
66
66
66
66
66
60
60
ENDCHAR
STARTCHAR AmSmlLiwn
ENCODING 1388
SWIDTH 840 0
DWIDTH 7 0
BBX 7 13 0 -2
BITMAP
00
00
00
00
00
38
18
18
18
18
18
18
1e
ENDCHAR
STARTCHAR AmSmlXeh
ENCODING 1389
SWIDTH 840 0
DWIDTH 7 0
BBX 7 13 0 -2
BITMAP
00
60
60
60
60
7a
7a
6a
6a
6e
66
60
60
ENDCHAR
STARTCHAR AmSmlCa
ENCODING 1390
SWIDTH 840 0
DWIDTH 7 0
BBX 7 13 0 -2
BITMAP
00
60
60
30
18
1e
2c
66
66
66
3c
00
00
ENDCHAR
STARTCHAR AmSmlKen
ENCODING 1391
SWIDTH 840 0
DWIDTH 7 0
BBX 7 13 0 -2
BITMAP
00
60
60
60
60
66
66
66
66
66
3e
06
06
ENDCHAR
STARTCHAR AmSmlHo
ENCODING 1392
SWIDTH 840 0
DWIDTH 7 0
BBX 7 13 0 -2
BITMAP
00
0c
1c
10
30
20
60
78
1e
06
06
00
00
ENDCHAR
STARTCHAR AmSmlJa
ENCODING 1393
SWIDTH 840 0
DWIDTH 7 0
BBX 7 13 0 -2
BITMAP
00
0c
18
0c
0c
18
3c
66
66
66
3e
00
00
ENDCHAR
STARTCHAR AmSmlGhad
ENCODING 1394
SWIDTH 840 0
DWIDTH 7 0
BBX 7 13 0 -2
BITMAP
00
00
00
00
00
78
6c
6c
6c
6c
6c
0c
0e
ENDCHAR
STARTCHAR AmSmlCheh
ENCODING 1395
SWIDTH 840 0
DWIDTH 7 0
BBX 7 13 0 -2
BITMAP
00
06
0c
18
18
70
38
6c
66
66
7e
00
00
ENDCHAR
STARTCHAR AmSmlMen
ENCODING 1396
SWIDTH 840 0
DWIDTH 7 0
BBX 7 13 0 -2
BITMAP
00
0e
1a
0c
06
66
66
66
66
66
3e
00
00
ENDCHAR
STARTCHAR AmSmlYi
ENCODING 1397
SWIDTH 840 0
DWIDTH 7 0
BBX 7 13 0 -2
BITMAP
00
00
00
00
00
38
18
18
18
18
18
58
70
ENDCHAR
STARTCHAR AmSmlNow
ENCODING 1398
SWIDTH 840 0
DWIDTH 7 0
BBX 7 13 0 -2
BITMAP
00
38
60
60
60
66
66
66
66
66
3e
00
00
ENDCHAR
STARTCHAR AmSmlSha
ENCODING 1399
SWIDTH 840 0
DWIDTH 7 0
BBX 7 13 0 -2
BITMAP
00
00
00
00
00
3c
26
06
0c
18
30
70
3e
ENDCHAR
STARTCHAR AmSmlVo
ENCODING 1400
SWIDTH 840 0
DWIDTH 7 0
BBX 7 13 0 -2
BITMAP
00
00
00
00
00
7c
66
66
66
66
66
00
00
ENDCHAR
STARTCHAR AmSmlCha
ENCODING 1401
SWIDTH 840 0
DWIDTH 7 0
BBX 7 13 0 -2
BITMAP
00
00
00
00
00
30
38
18
10
20
60
70
3e
ENDCHAR
STARTCHAR AmSmlPeh
ENCODING 1402
SWIDTH 840 0
DWIDTH 7 0
BBX 7 13 0 -2
BITMAP
00
00
00
00
00
56
56
56
56
7e
3e
06
06
ENDCHAR
STARTCHAR AmSmlJheh
ENCODING 1403
SWIDTH 840 0
DWIDTH 7 0
BBX 7 13 0 -2
BITMAP
00
18
3c
4e
66
76
34
18
10
20
60
70
3e
ENDCHAR
STARTCHAR AmSmlRa
ENCODING 1404
SWIDTH 840 0
DWIDTH 7 0
BBX 7 13 0 -2
BITMAP
00
00
00
00
00
70
78
58
58
5e
5e
00
00
ENDCHAR
STARTCHAR AmSmlSeh
ENCODING 1405
SWIDTH 840 0
DWIDTH 7 0
BBX 7 13 0 -2
BITMAP
00
00
00
00
00
66
66
66
66
66
3e
00
00
ENDCHAR
STARTCHAR AmSmlVew
ENCODING 1406
SWIDTH 840 0
DWIDTH 7 0
BBX 7 13 0 -2
BITMAP
00
0c
0c
0c
0c
6c
6c
6c
6c
6c
3c
0c
0e
ENDCHAR
STARTCHAR AmSmlTiwn
ENCODING 1407
SWIDTH 840 0
DWIDTH 7 0
BBX 7 13 0 -2
BITMAP
00
00
00
00
00
5c
5e
5a
5a
7a
3a
00
00
ENDCHAR
STARTCHAR AmSmlReh
ENCODING 1408
SWIDTH 840 0
DWIDTH 7 0
BBX 7 13 0 -2
BITMAP
00
00
00
00
00
7c
66
66
66
66
66
60
60
ENDCHAR
STARTCHAR AmSmlCo
ENCODING 1409
SWIDTH 840 0
DWIDTH 7 0
BBX 7 13 0 -2
BITMAP
00
00
00
00
00
3e
66
66
66
3e
06
66
3c
ENDCHAR
STARTCHAR AmSmlYiwn
ENCODING 1410
SWIDTH 840 0
DWIDTH 7 0
BBX 7 13 0 -2
BITMAP
00
00
00
00
00
70
30
30
30
30
3e
00
00
ENDCHAR
STARTCHAR AmSmlPiwr
ENCODING 1411
SWIDTH 840 0
DWIDTH 7 0
BBX 7 13 0 -2
BITMAP
00
18
18
18
18
5c
5e
5a
5a
7a
3a
18
18
ENDCHAR
STARTCHAR AmSmlKeh
ENCODING 1412
SWIDTH 840 0
DWIDTH 7 0
BBX 7 13 0 -2
BITMAP
00
00
00
00
00
3c
36
36
36
3c
30
7e
30
ENDCHAR
STARTCHAR AmSmlOh
ENCODING 1413
SWIDTH 840 0
DWIDTH 7 0
BBX 7 13 0 -2
BITMAP
00
00
00
00
00
3c
66
66
66
66
3c
00
00
ENDCHAR
STARTCHAR AmSmlFeh
ENCODING 1414
SWIDTH 840 0
DWIDTH 7 0
BBX 7 13 0 -2
BITMAP
00
38
68
68
68
38
1c
16
56
7e
3c
10
10
ENDCHAR
STARTCHAR AmSmlEchYiwn
ENCODING 1415
SWIDTH 840 0
DWIDTH 7 0
BBX 7 13 0 -2
BITMAP
00
60
60
60
60
6c
6c
6c
6c
6c
3e
00
00
ENDCHAR
STARTCHAR PAmFullStop
ENCODING 1417
SWIDTH 840 0
DWIDTH 7 0
BBX 7 13 0 -2
BITMAP
00
00
00
00
00
18
18
00
00
18
18
00
00
ENDCHAR
STARTCHAR PAmHyphen
ENCODING 1418
SWIDTH 840 0
DWIDTH 7 0
BBX 7 13 0 -2
BITMAP
00
00
00
00
00
00
72
3c
00
00
00
00
00
ENDCHAR
STARTCHAR CurrDram
ENCODING 1423
SWIDTH 840 0
DWIDTH 7 0
BBX 7 13 0 -2
BITMAP
00
00
38
6c
6c
0c
3e
0c
3e
0c
0c
00
00
ENDCHAR
STARTCHAR CombHbSheva
ENCODING 1456
SWIDTH 840 0
DWIDTH 7 0
BBX 7 13 0 -2
BITMAP
00
00
00
00
00
00
00
00
00
00
18
00
18
ENDCHAR
STARTCHAR CombHbHatafSegol
ENCODING 1457
SWIDTH 840 0
DWIDTH 7 0
BBX 7 13 0 -2
BITMAP
00
00
00
00
00
00
00
00
00
00
06
50
26
ENDCHAR
STARTCHAR CombHbHatafPatah
ENCODING 1458
SWIDTH 840 0
DWIDTH 7 0
BBX 7 13 0 -2
BITMAP
00
00
00
00
00
00
00
00
00
00
06
70
06
ENDCHAR
STARTCHAR CombHbHatafQamats
ENCODING 1459
SWIDTH 840 0
DWIDTH 7 0
BBX 7 13 0 -2
BITMAP
00
00
00
00
00
00
00
00
00
00
06
70
26
ENDCHAR
STARTCHAR CombHbHiriq
ENCODING 1460
SWIDTH 840 0
DWIDTH 7 0
BBX 7 13 0 -2
BITMAP
00
00
00
00
00
00
00
00
00
00
00
10
10
ENDCHAR
STARTCHAR CombHbTsere
ENCODING 1461
SWIDTH 840 0
DWIDTH 7 0
BBX 7 13 0 -2
BITMAP
00
00
00
00
00
00
00
00
00
00
00
24
24
ENDCHAR
STARTCHAR CombHbSegol
ENCODING 1462
SWIDTH 840 0
DWIDTH 7 0
BBX 7 13 0 -2
BITMAP
00
00
00
00
00
00
00
00
00
00
00
66
18
ENDCHAR
STARTCHAR CombHbPatah
ENCODING 1463
SWIDTH 840 0
DWIDTH 7 0
BBX 7 13 0 -2
BITMAP
00
00
00
00
00
00
00
00
00
00
00
00
3c
ENDCHAR
STARTCHAR CombHbQamats
ENCODING 1464
SWIDTH 840 0
DWIDTH 7 0
BBX 7 13 0 -2
BITMAP
00
00
00
00
00
00
00
00
00
00
00
38
10
ENDCHAR
STARTCHAR CombHbHolam
ENCODING 1465
SWIDTH 840 0
DWIDTH 7 0
BBX 7 13 0 -2
BITMAP
00
20
20
00
00
00
00
00
00
00
00
00
00
ENDCHAR
STARTCHAR CombHbQubuts
ENCODING 1467
SWIDTH 840 0
DWIDTH 7 0
BBX 7 13 0 -2
BITMAP
00
00
00
00
00
00
00
00
00
00
60
18
06
ENDCHAR
STARTCHAR CombHbDagesh
ENCODING 1468
SWIDTH 840 0
DWIDTH 7 0
BBX 7 13 0 -2
BITMAP
00
00
00
00
00
00
00
30
00
00
00
00
00
ENDCHAR
STARTCHAR CombHbMeteg
ENCODING 1469
SWIDTH 840 0
DWIDTH 7 0
BBX 7 13 0 -2
BITMAP
00
00
00
00
00
00
00
00
00
00
10
10
10
ENDCHAR
STARTCHAR PHbMaqaf
ENCODING 1470
SWIDTH 840 0
DWIDTH 7 0
BBX 7 13 0 -2
BITMAP
00
00
00
00
3c
3c
00
00
00
00
00
00
00
ENDCHAR
STARTCHAR CombHbRafe
ENCODING 1471
SWIDTH 840 0
DWIDTH 7 0
BBX 7 13 0 -2
BITMAP
00
00
78
00
00
00
00
00
00
00
00
00
00
ENDCHAR
STARTCHAR PHbPaseq
ENCODING 1472
SWIDTH 840 0
DWIDTH 7 0
BBX 7 13 0 -2
BITMAP
00
00
00
00
10
10
10
10
10
10
10
00
00
ENDCHAR
STARTCHAR CombHbDotShin
ENCODING 1473
SWIDTH 840 0
DWIDTH 7 0
BBX 7 13 0 -2
BITMAP
00
02
02
00
00
00
00
00
00
00
00
00
00
ENDCHAR
STARTCHAR CombHbDotSin
ENCODING 1474
SWIDTH 840 0
DWIDTH 7 0
BBX 7 13 0 -2
BITMAP
00
40
40
00
00
00
00
00
00
00
00
00
00
ENDCHAR
STARTCHAR PHbSofPasuq
ENCODING 1475
SWIDTH 840 0
DWIDTH 7 0
BBX 7 13 0 -2
BITMAP
00
00
00
00
10
38
10
00
10
38
10
00
00
ENDCHAR
STARTCHAR CombHbUpperDot
ENCODING 1476
SWIDTH 840 0
DWIDTH 7 0
BBX 7 13 0 -2
BITMAP
00
10
10
00
00
00
00
00
00
00
00
00
00
ENDCHAR
STARTCHAR HbAlef
ENCODING 1488
SWIDTH 840 0
DWIDTH 7 0
BBX 7 13 0 -2
BITMAP
00
00
00
00
4c
66
7c
3c
6e
66
72
00
00
ENDCHAR
STARTCHAR HbBet
ENCODING 1489
SWIDTH 840 0
DWIDTH 7 0
BBX 7 13 0 -2
BITMAP
00
00
00
00
78
7c
0c
0c
0c
7e
7e
00
00
ENDCHAR
STARTCHAR HbGimel
ENCODING 1490
SWIDTH 840 0
DWIDTH 7 0
BBX 7 13 0 -2
BITMAP
00
00
00
00
38
3c
0c
0c
1c
36
66
00
00
ENDCHAR
STARTCHAR HbDalet
ENCODING 1491
SWIDTH 840 0
DWIDTH 7 0
BBX 7 13 0 -2
BITMAP
00
00
00
00
7e
7e
0c
0c
0c
0c
0c
00
00
ENDCHAR
STARTCHAR HbHe
ENCODING 1492
SWIDTH 840 0
DWIDTH 7 0
BBX 7 13 0 -2
BITMAP
00
00
00
00
7e
7e
06
36
36
36
36
00
00
ENDCHAR
STARTCHAR HbVav
ENCODING 1493
SWIDTH 840 0
DWIDTH 7 0
BBX 7 13 0 -2
BITMAP
00
00
00
00
38
38
18
18
18
18
18
00
00
ENDCHAR
STARTCHAR HbZayin
ENCODING 1494
SWIDTH 840 0
DWIDTH 7 0
BBX 7 13 0 -2
BITMAP
00
00
00
00
3e
7c
18
18
18
18
18
00
00
ENDCHAR
STARTCHAR HbHet
ENCODING 1495
SWIDTH 840 0
DWIDTH 7 0
BBX 7 13 0 -2
BITMAP
00
00
00
00
7e
7e
36
36
36
36
36
00
00
ENDCHAR
STARTCHAR HbTet
ENCODING 1496
SWIDTH 840 0
DWIDTH 7 0
BBX 7 13 0 -2
BITMAP
00
00
00
00
66
6e
66
66
66
7c
78
00
00
ENDCHAR
STARTCHAR HbYod
ENCODING 1497
SWIDTH 840 0
DWIDTH 7 0
BBX 7 13 0 -2
BITMAP
00
00
00
00
38
38
18
18
00
00
00
00
00
ENDCHAR
STARTCHAR HbKafTrm
ENCODING 1498
SWIDTH 840 0
DWIDTH 7 0
BBX 7 13 0 -2
BITMAP
00
00
00
00
7e
7e
06
06
06
06
06
06
06
ENDCHAR
STARTCHAR HbKaf
ENCODING 1499
SWIDTH 840 0
DWIDTH 7 0
BBX 7 13 0 -2
BITMAP
00
00
00
00
78
7c
06
06
06
7c
78
00
00
ENDCHAR
STARTCHAR HbLamed
ENCODING 1500
SWIDTH 840 0
DWIDTH 7 0
BBX 7 13 0 -2
BITMAP
00
00
60
60
7e
7e
06
06
0c
1c
18
00
00
ENDCHAR
STARTCHAR HbMemTrm
ENCODING 1501
SWIDTH 840 0
DWIDTH 7 0
BBX 7 13 0 -2
BITMAP
00
00
00
00
fe
fe
66
66
66
7e
7e
00
00
ENDCHAR
STARTCHAR HbMem
ENCODING 1502
SWIDTH 840 0
DWIDTH 7 0
BBX 7 13 0 -2
BITMAP
00
00
00
00
6c
7e
36
66
66
6e
6e
00
00
ENDCHAR
STARTCHAR HbNunTrm
ENCODING 1503
SWIDTH 840 0
DWIDTH 7 0
BBX 7 13 0 -2
BITMAP
00
00
00
00
38
38
18
18
18
18
18
18
18
ENDCHAR
STARTCHAR HbNun
ENCODING 1504
SWIDTH 840 0
DWIDTH 7 0
BBX 7 13 0 -2
BITMAP
00
00
00
00
1c
1c
0c
0c
0c
7c
7c
00
00
ENDCHAR
STARTCHAR HbSamekh
ENCODING 1505
SWIDTH 840 0
DWIDTH 7 0
BBX 7 13 0 -2
BITMAP
00
00
00
00
7c
7c
26
66
66
3c
18
00
00
ENDCHAR
STARTCHAR HbAyin
ENCODING 1506
SWIDTH 840 0
DWIDTH 7 0
BBX 7 13 0 -2
BITMAP
00
00
00
00
6e
66
36
1e
1c
78
70
00
00
ENDCHAR
STARTCHAR HbPeTrm
ENCODING 1507
SWIDTH 840 0
DWIDTH 7 0
BBX 7 13 0 -2
BITMAP
00
00
00
00
fc
fe
66
76
06
06
06
06
06
ENDCHAR
STARTCHAR HbPe
ENCODING 1508
SWIDTH 840 0
DWIDTH 7 0
BBX 7 13 0 -2
BITMAP
00
00
00
00
7c
7e
66
76
06
7e
7c
00
00
ENDCHAR
STARTCHAR HbTsadiTrm
ENCODING 1509
SWIDTH 840 0
DWIDTH 7 0
BBX 7 13 0 -2
BITMAP
00
00
00
00
76
36
3c
38
30
30
30
30
30
ENDCHAR
STARTCHAR HbTsadi
ENCODING 1510
SWIDTH 840 0
DWIDTH 7 0
BBX 7 13 0 -2
BITMAP
00
00
00
00
66
66
3c
1c
04
7e
7e
00
00
ENDCHAR
STARTCHAR HbQof
ENCODING 1511
SWIDTH 840 0
DWIDTH 7 0
BBX 7 13 0 -2
BITMAP
00
00
00
00
7c
7e
06
66
6c
6c
68
60
60
ENDCHAR
STARTCHAR HbResh
ENCODING 1512
SWIDTH 840 0
DWIDTH 7 0
BBX 7 13 0 -2
BITMAP
00
00
00
00
7c
7e
06
06
06
06
06
00
00
ENDCHAR
STARTCHAR HbShin
ENCODING 1513
SWIDTH 840 0
DWIDTH 7 0
BBX 7 13 0 -2
BITMAP
00
00
00
00
6a
6a
6a
7a
66
7c
78
00
00
ENDCHAR
STARTCHAR HbTav
ENCODING 1514
SWIDTH 840 0
DWIDTH 7 0
BBX 7 13 0 -2
BITMAP
00
00
00
00
7c
7e
36
36
36
76
76
00
00
ENDCHAR
STARTCHAR HbVavVav
ENCODING 1520
SWIDTH 840 0
DWIDTH 7 0
BBX 7 13 0 -2
BITMAP
00
00
00
00
6e
76
36
36
36
36
36
00
00
ENDCHAR
STARTCHAR HbVavYod
ENCODING 1521
SWIDTH 840 0
DWIDTH 7 0
BBX 7 13 0 -2
BITMAP
00
00
00
00
6e
76
36
36
06
06
06
00
00
ENDCHAR
STARTCHAR HbYodYod
ENCODING 1522
SWIDTH 840 0
DWIDTH 7 0
BBX 7 13 0 -2
BITMAP
00
00
00
00
6e
76
36
36
00
00
00
00
00
ENDCHAR
STARTCHAR PHbGeresh
ENCODING 1523
SWIDTH 840 0
DWIDTH 7 0
BBX 7 13 0 -2
BITMAP
00
00
00
00
0c
18
30
20
00
00
00
00
00
ENDCHAR
STARTCHAR PHbGershayim
ENCODING 1524
SWIDTH 840 0
DWIDTH 7 0
BBX 7 13 0 -2
BITMAP
00
00
00
00
12
36
6c
48
00
00
00
00
00
ENDCHAR
STARTCHAR ThKoKai
ENCODING 3585
SWIDTH 840 0
DWIDTH 7 0
BBX 7 13 0 -2
BITMAP
00
00
00
00
3c
66
46
36
36
36
36
00
00
ENDCHAR
STARTCHAR ThKhoKhai
ENCODING 3586
SWIDTH 840 0
DWIDTH 7 0
BBX 7 13 0 -2
BITMAP
00
00
00
00
66
76
36
36
36
36
1c
00
00
ENDCHAR
STARTCHAR ThKhoKhuat
ENCODING 3587
SWIDTH 840 0
DWIDTH 7 0
BBX 7 13 0 -2
BITMAP
00
00
00
00
56
76
76
56
16
1e
0c
00
00
ENDCHAR
STARTCHAR ThKhoKhwai
ENCODING 3588
SWIDTH 840 0
DWIDTH 7 0
BBX 7 13 0 -2
BITMAP
00
00
00
00
3c
66
66
7e
76
66
66
00
00
ENDCHAR
STARTCHAR ThKhoKhon
ENCODING 3589
SWIDTH 840 0
DWIDTH 7 0
BBX 7 13 0 -2
BITMAP
00
00
00
00
24
7e
66
7e
76
66
66
00
00
ENDCHAR
STARTCHAR ThKhoRakhang
ENCODING 3590
SWIDTH 840 0
DWIDTH 7 0
BBX 7 13 0 -2
BITMAP
00
00
00
00
56
76
76
56
16
3e
36
00
00
ENDCHAR
STARTCHAR ThNgoNgu
ENCODING 3591
SWIDTH 840 0
DWIDTH 7 0
BBX 7 13 0 -2
BITMAP
00
00
00
00
0e
0e
06
66
36
1e
0e
00
00
ENDCHAR
STARTCHAR ThChoChan
ENCODING 3592
SWIDTH 840 0
DWIDTH 7 0
BBX 7 13 0 -2
BITMAP
00
00
00
00
3c
66
06
36
36
0e
06
00
00
ENDCHAR
STARTCHAR ThChoChing
ENCODING 3593
SWIDTH 840 0
DWIDTH 7 0
BBX 7 13 0 -2
BITMAP
00
00
00
00
78
4c
0c
6c
7c
6e
6e
00
00
ENDCHAR
STARTCHAR ThChoChang
ENCODING 3594
SWIDTH 840 0
DWIDTH 7 0
BBX 7 13 0 -2
BITMAP
00
00
00
00
66
76
3c
34
36
36
1c
00
00
ENDCHAR
STARTCHAR ThSoSo
ENCODING 3595
SWIDTH 840 0
DWIDTH 7 0
BBX 7 13 0 -2
BITMAP
00
00
00
00
56
76
7c
54
16
1e
0c
00
00
ENDCHAR
STARTCHAR ThChoChoe
ENCODING 3596
SWIDTH 840 0
DWIDTH 7 0
BBX 7 13 0 -2
BITMAP
00
00
00
00
32
7a
4a
4a
4a
5e
5a
00
00
ENDCHAR
STARTCHAR ThYoYing
ENCODING 3597
SWIDTH 840 0
DWIDTH 7 0
BBX 7 13 0 -2
BITMAP
00
00
00
00
32
7a
5a
5a
5a
5e
4a
02
1c
ENDCHAR
STARTCHAR ThDoChada
ENCODING 3598
SWIDTH 840 0
DWIDTH 7 0
BBX 7 13 0 -2
BITMAP
00
00
00
00
3c
66
46
36
36
76
76
06
3c
ENDCHAR
STARTCHAR ThToPatak
ENCODING 3599
SWIDTH 840 0
DWIDTH 7 0
BBX 7 13 0 -2
BITMAP
00
00
00
00
3c
66
46
36
36
76
66
16
3e
ENDCHAR
STARTCHAR ThThoThan
ENCODING 3600
SWIDTH 840 0
DWIDTH 7 0
BBX 7 13 0 -2
BITMAP
00
00
00
00
7e
7e
04
36
36
0e
02
54
7e
ENDCHAR
STARTCHAR ThThoNangmontho
ENCODING 3601
SWIDTH 840 0
DWIDTH 7 0
BBX 7 13 0 -2
BITMAP
00
00
00
00
54
7e
76
56
16
16
16
00
00
ENDCHAR
STARTCHAR ThThoPhuthao
ENCODING 3602
SWIDTH 840 0
DWIDTH 7 0
BBX 7 13 0 -2
BITMAP
00
00
00
00
2a
7a
4a
6a
6a
5e
5a
00
00
ENDCHAR
STARTCHAR ThNoNen
ENCODING 3603
SWIDTH 840 0
DWIDTH 7 0
BBX 7 13 0 -2
BITMAP
00
00
00
00
24
74
54
54
54
5e
56
00
00
ENDCHAR
STARTCHAR ThDoDek
ENCODING 3604
SWIDTH 840 0
DWIDTH 7 0
BBX 7 13 0 -2
BITMAP
00
00
00
00
3c
66
46
56
56
76
66
00
00
ENDCHAR
STARTCHAR ThToTao
ENCODING 3605
SWIDTH 840 0
DWIDTH 7 0
BBX 7 13 0 -2
BITMAP
00
00
00
00
2c
7e
46
56
56
76
66
00
00
ENDCHAR
STARTCHAR ThThoThung
ENCODING 3606
SWIDTH 840 0
DWIDTH 7 0
BBX 7 13 0 -2
BITMAP
00
00
00
00
3c
46
66
26
26
36
36
00
00
ENDCHAR
STARTCHAR ThThoThahan
ENCODING 3607
SWIDTH 840 0
DWIDTH 7 0
BBX 7 13 0 -2
BITMAP
00
00
00
00
64
6e
36
36
26
26
26
00
00
ENDCHAR
STARTCHAR ThThoThong
ENCODING 3608
SWIDTH 840 0
DWIDTH 7 0
BBX 7 13 0 -2
BITMAP
00
00
00
00
3c
7c
40
78
2c
2c
78
00
00
ENDCHAR
STARTCHAR ThNoNu
ENCODING 3609
SWIDTH 840 0
DWIDTH 7 0
BBX 7 13 0 -2
BITMAP
00
00
00
00
64
64
64
64
6e
76
66
00
00
ENDCHAR
STARTCHAR ThBoBaimai
ENCODING 3610
SWIDTH 840 0
DWIDTH 7 0
BBX 7 13 0 -2
BITMAP
00
00
00
00
66
66
66
66
66
66
7c
00
00
ENDCHAR
STARTCHAR ThPoPla
ENCODING 3611
SWIDTH 840 0
DWIDTH 7 0
BBX 7 13 0 -2
BITMAP
00
06
06
06
66
66
66
66
66
66
7c
00
00
ENDCHAR
STARTCHAR ThPhoPhung
ENCODING 3612
SWIDTH 840 0
DWIDTH 7 0
BBX 7 13 0 -2
BITMAP
00
00
00
00
72
72
62
62
6a
7e
76
00
00
ENDCHAR
STARTCHAR ThFoFa
ENCODING 3613
SWIDTH 840 0
DWIDTH 7 0
BBX 7 13 0 -2
BITMAP
00
02
02
02
72
72
62
62
6a
7e
76
00
00
ENDCHAR
STARTCHAR ThPhoPhan
ENCODING 3614
SWIDTH 840 0
DWIDTH 7 0
BBX 7 13 0 -2
BITMAP
00
00
00
00
6a
6a
6a
7e
76
76
62
00
00
ENDCHAR
STARTCHAR ThFoFan
ENCODING 3615
SWIDTH 840 0
DWIDTH 7 0
BBX 7 13 0 -2
BITMAP
00
02
02
02
6a
6a
6a
7e
76
76
62
00
00
ENDCHAR
STARTCHAR ThPhoSamphao
ENCODING 3616
SWIDTH 840 0
DWIDTH 7 0
BBX 7 13 0 -2
BITMAP
00
00
00
00
3c
46
46
36
36
76
76
00
00
ENDCHAR
STARTCHAR ThMoMa
ENCODING 3617
SWIDTH 840 0
DWIDTH 7 0
BBX 7 13 0 -2
BITMAP
00
00
00
00
66
66
26
26
76
6e
66
00
00
ENDCHAR
STARTCHAR ThYoYak
ENCODING 3618
SWIDTH 840 0
DWIDTH 7 0
BBX 7 13 0 -2
BITMAP
00
00
00
00
76
76
46
36
66
66
3c
00
00
ENDCHAR
STARTCHAR ThRoRua
ENCODING 3619
SWIDTH 840 0
DWIDTH 7 0
BBX 7 13 0 -2
BITMAP
00
00
00
00
3e
7e
40
78
0c
0c
0c
00
00
ENDCHAR
STARTCHAR ThRu
ENCODING 3620
SWIDTH 840 0
DWIDTH 7 0
BBX 7 13 0 -2
BITMAP
00
00
00
00
3c
46
66
26
26
36
36
06
06
ENDCHAR
STARTCHAR ThLoLing
ENCODING 3621
SWIDTH 840 0
DWIDTH 7 0
BBX 7 13 0 -2
BITMAP
00
00
00
00
3c
66
06
36
6e
66
76
00
00
ENDCHAR
STARTCHAR ThLu
ENCODING 3622
SWIDTH 840 0
DWIDTH 7 0
BBX 7 13 0 -2
BITMAP
00
00
00
00
3c
66
46
36
36
76
76
06
06
ENDCHAR
STARTCHAR ThWoWaen
ENCODING 3623
SWIDTH 840 0
DWIDTH 7 0
BBX 7 13 0 -2
BITMAP
00
00
00
00
3c
66
66
06
06
0e
0e
00
00
ENDCHAR
STARTCHAR ThSoSala
ENCODING 3624
SWIDTH 840 0
DWIDTH 7 0
BBX 7 13 0 -2
BITMAP
00
00
00
00
3e
6e
6e
7e
76
66
66
00
00
ENDCHAR
STARTCHAR ThSoRusi
ENCODING 3625
SWIDTH 840 0
DWIDTH 7 0
BBX 7 13 0 -2
BITMAP
00
00
00
00
66
66
6e
6e
66
66
7c
00
00
ENDCHAR
STARTCHAR ThSoSua
ENCODING 3626
SWIDTH 840 0
DWIDTH 7 0
BBX 7 13 0 -2
BITMAP
00
00
00
00
3e
6e
16
36
6e
66
76
00
00
ENDCHAR
STARTCHAR ThHoHip
ENCODING 3627
SWIDTH 840 0
DWIDTH 7 0
BBX 7 13 0 -2
BITMAP
00
00
00
00
76
76
34
3e
36
36
36
00
00
ENDCHAR
STARTCHAR ThLoChula
ENCODING 3628
SWIDTH 840 0
DWIDTH 7 0
BBX 7 13 0 -2
BITMAP
00
00
06
06
62
6a
6a
7e
76
76
62
00
00
ENDCHAR
STARTCHAR ThOAng
ENCODING 3629
SWIDTH 840 0
DWIDTH 7 0
BBX 7 13 0 -2
BITMAP
00
00
00
00
3c
66
06
76
76
66
3c
00
00
ENDCHAR
STARTCHAR ThHoNokhuk
ENCODING 3630
SWIDTH 840 0
DWIDTH 7 0
BBX 7 13 0 -2
BITMAP
00
00
00
00
7e
7e
04
76
76
66
3c
00
00
ENDCHAR
STARTCHAR ThPaiyannoi
ENCODING 3631
SWIDTH 840 0
DWIDTH 7 0
BBX 7 13 0 -2
BITMAP
00
00
00
00
26
66
6e
36
06
06
0c
00
00
ENDCHAR
STARTCHAR ThSaraA
ENCODING 3632
SWIDTH 840 0
DWIDTH 7 0
BBX 7 13 0 -2
BITMAP
00
00
00
00
62
76
3c
00
62
76
3c
00
00
ENDCHAR
STARTCHAR ThMaiHanAkat
ENCODING 3633
SWIDTH 840 0
DWIDTH 7 0
BBX 7 13 0 -2
BITMAP
00
10
1e
00
00
00
00
00
00
00
00
00
00
ENDCHAR
STARTCHAR ThSaraAa
ENCODING 3634
SWIDTH 840 0
DWIDTH 7 0
BBX 7 13 0 -2
BITMAP
00
00
00
00
38
6c
6c
0c
0c
0c
0c
00
00
ENDCHAR
STARTCHAR ThSaraAm
ENCODING 3635
SWIDTH 840 0
DWIDTH 7 0
BBX 7 13 0 -2
BITMAP
00
c0
c0
00
1c
36
36
06
06
06
06
00
00
ENDCHAR
STARTCHAR ThSaraI
ENCODING 3636
SWIDTH 840 0
DWIDTH 7 0
BBX 7 13 0 -2
BITMAP
00
00
7e
00
00
00
00
00
00
00
00
00
00
ENDCHAR
STARTCHAR ThSaraIi
ENCODING 3637
SWIDTH 840 0
DWIDTH 7 0
BBX 7 13 0 -2
BITMAP
00
02
7e
00
00
00
00
00
00
00
00
00
00
ENDCHAR
STARTCHAR ThSaraUe
ENCODING 3638
SWIDTH 840 0
DWIDTH 7 0
BBX 7 13 0 -2
BITMAP
00
0e
7e
00
00
00
00
00
00
00
00
00
00
ENDCHAR
STARTCHAR ThSaraUee
ENCODING 3639
SWIDTH 840 0
DWIDTH 7 0
BBX 7 13 0 -2
BITMAP
00
0a
7a
00
00
00
00
00
00
00
00
00
00
ENDCHAR
STARTCHAR ThSaraU
ENCODING 3640
SWIDTH 840 0
DWIDTH 7 0
BBX 7 13 0 -2
BITMAP
00
00
00
00
00
00
00
00
00
00
00
06
02
ENDCHAR
STARTCHAR ThSaraUu
ENCODING 3641
SWIDTH 840 0
DWIDTH 7 0
BBX 7 13 0 -2
BITMAP
00
00
00
00
00
00
00
00
00
00
00
1a
0e
ENDCHAR
STARTCHAR ThPhinthu
ENCODING 3642
SWIDTH 840 0
DWIDTH 7 0
BBX 7 13 0 -2
BITMAP
00
00
00
00
00
00
00
00
00
00
00
00
06
ENDCHAR
STARTCHAR CurrBaht
ENCODING 3647
SWIDTH 840 0
DWIDTH 7 0
BBX 7 13 0 -2
BITMAP
00
08
08
7c
6a
6a
7c
6e
6a
6a
7c
08
08
ENDCHAR
STARTCHAR ThSaraE
ENCODING 3648
SWIDTH 840 0
DWIDTH 7 0
BBX 7 13 0 -2
BITMAP
00
00
00
00
30
30
30
30
30
38
38
00
00
ENDCHAR
STARTCHAR ThSaraAe
ENCODING 3649
SWIDTH 840 0
DWIDTH 7 0
BBX 7 13 0 -2
BITMAP
00
00
00
00
6c
6c
6c
6c
6c
6c
6c
00
00
ENDCHAR
STARTCHAR ThSaraO
ENCODING 3650
SWIDTH 840 0
DWIDTH 7 0
BBX 7 13 0 -2
BITMAP
00
3c
7c
40
38
18
18
18
18
1c
1c
00
00
ENDCHAR
STARTCHAR ThSaraAiMaimuan
ENCODING 3651
SWIDTH 840 0
DWIDTH 7 0
BBX 7 13 0 -2
BITMAP
00
38
4c
6c
6c
0c
0c
0c
0c
0e
0e
00
00
ENDCHAR
STARTCHAR ThSaraAiMaimalai
ENCODING 3652
SWIDTH 840 0
DWIDTH 7 0
BBX 7 13 0 -2
BITMAP
00
58
7c
2c
2c
0c
0c
0c
0c
0e
0e
00
00
ENDCHAR
STARTCHAR ThLakkhangyao
ENCODING 3653
SWIDTH 840 0
DWIDTH 7 0
BBX 7 13 0 -2
BITMAP
00
00
00
00
38
6c
6c
0c
0c
0c
0c
0c
0c
ENDCHAR
STARTCHAR ThMaiyamok
ENCODING 3654
SWIDTH 840 0
DWIDTH 7 0
BBX 7 13 0 -2
BITMAP
00
00
00
00
2c
56
46
66
66
06
06
06
0c
ENDCHAR
STARTCHAR ThMaitaikhu
ENCODING 3655
SWIDTH 840 0
DWIDTH 7 0
BBX 7 13 0 -2
BITMAP
30
40
70
00
00
00
00
00
00
00
00
00
00
ENDCHAR
STARTCHAR ThMaiEk
ENCODING 3656
SWIDTH 840 0
DWIDTH 7 0
BBX 7 13 0 -2
BITMAP
06
06
00
00
00
00
00
00
00
00
00
00
00
ENDCHAR
STARTCHAR ThMaiTho
ENCODING 3657
SWIDTH 840 0
DWIDTH 7 0
BBX 7 13 0 -2
BITMAP
1a
0c
00
00
00
00
00
00
00
00
00
00
00
ENDCHAR
STARTCHAR ThMaiTri
ENCODING 3658
SWIDTH 840 0
DWIDTH 7 0
BBX 7 13 0 -2
BITMAP
7a
4c
00
00
00
00
00
00
00
00
00
00
00
ENDCHAR
STARTCHAR ThMaiChattawa
ENCODING 3659
SWIDTH 840 0
DWIDTH 7 0
BBX 7 13 0 -2
BITMAP
04
0e
04
00
00
00
00
00
00
00
00
00
00
ENDCHAR
STARTCHAR ThThanthakhat
ENCODING 3660
SWIDTH 840 0
DWIDTH 7 0
BBX 7 13 0 -2
BITMAP
02
1e
18
00
00
00
00
00
00
00
00
00
00
ENDCHAR
STARTCHAR ThNikhahit
ENCODING 3661
SWIDTH 840 0
DWIDTH 7 0
BBX 7 13 0 -2
BITMAP
00
06
06
00
00
00
00
00
00
00
00
00
00
ENDCHAR
STARTCHAR ThYamakkan
ENCODING 3662
SWIDTH 840 0
DWIDTH 7 0
BBX 7 13 0 -2
BITMAP
0e
18
1c
00
00
00
00
00
00
00
00
00
00
ENDCHAR
STARTCHAR ThFongman
ENCODING 3663
SWIDTH 840 0
DWIDTH 7 0
BBX 7 13 0 -2
BITMAP
00
00
00
00
18
24
5a
5a
5a
24
18
00
00
ENDCHAR
STARTCHAR ThDigit0
ENCODING 3664
SWIDTH 840 0
DWIDTH 7 0
BBX 7 13 0 -2
BITMAP
00
00
00
00
00
3c
66
66
66
66
3c
00
00
ENDCHAR
STARTCHAR ThDigit1
ENCODING 3665
SWIDTH 840 0
DWIDTH 7 0
BBX 7 13 0 -2
BITMAP
00
00
00
00
00
3c
76
62
6a
7a
32
00
00
ENDCHAR
STARTCHAR ThDigit2
ENCODING 3666
SWIDTH 840 0
DWIDTH 7 0
BBX 7 13 0 -2
BITMAP
00
00
00
60
60
6a
6e
6e
6a
62
7e
00
00
ENDCHAR
STARTCHAR ThDigit3
ENCODING 3667
SWIDTH 840 0
DWIDTH 7 0
BBX 7 13 0 -2
BITMAP
00
00
00
00
00
2c
7e
5a
42
76
34
00
00
ENDCHAR
STARTCHAR ThDigit4
ENCODING 3668
SWIDTH 840 0
DWIDTH 7 0
BBX 7 13 0 -2
BITMAP
00
00
00
00
06
3c
78
60
6c
6c
36
00
00
ENDCHAR
STARTCHAR ThDigit5
ENCODING 3669
SWIDTH 840 0
DWIDTH 7 0
BBX 7 13 0 -2
BITMAP
00
00
00
60
56
3c
78
60
6c
6c
36
00
00
ENDCHAR
STARTCHAR ThDigit6
ENCODING 3670
SWIDTH 840 0
DWIDTH 7 0
BBX 7 13 0 -2
BITMAP
00
00
00
60
60
78
0c
06
66
6c
78
00
00
ENDCHAR
STARTCHAR ThDigit7
ENCODING 3671
SWIDTH 840 0
DWIDTH 7 0
BBX 7 13 0 -2
BITMAP
00
00
00
02
02
2a
7a
7a
4a
6e
2c
00
00
ENDCHAR
STARTCHAR ThDigit8
ENCODING 3672
SWIDTH 840 0
DWIDTH 7 0
BBX 7 13 0 -2
BITMAP
00
00
00
00
06
3c
78
60
66
76
6e
00
00
ENDCHAR
STARTCHAR ThDigit9
ENCODING 3673
SWIDTH 840 0
DWIDTH 7 0
BBX 7 13 0 -2
BITMAP
00
00
00
00
06
36
7c
4c
46
76
32
00
00
ENDCHAR
STARTCHAR ThAngkhankhu
ENCODING 3674
SWIDTH 840 0
DWIDTH 7 0
BBX 7 13 0 -2
BITMAP
00
00
00
00
6a
4a
7a
3a
0a
0a
14
00
00
ENDCHAR
STARTCHAR ThKhomut
ENCODING 3675
SWIDTH 840 0
DWIDTH 7 0
BBX 7 13 0 -2
BITMAP
00
00
00
30
60
68
6a
7e
74
74
20
00
00
ENDCHAR
STARTCHAR GeAn
ENCODING 4304
SWIDTH 840 0
DWIDTH 7 0
BBX 7 13 0 -2
BITMAP
00
00
00
00
10
18
0c
06
66
66
3c
00
00
ENDCHAR
STARTCHAR GeBan
ENCODING 4305
SWIDTH 840 0
DWIDTH 7 0
BBX 7 13 0 -2
BITMAP
00
00
30
30
18
18
3c
66
66
66
3c
00
00
ENDCHAR
STARTCHAR GeGan
ENCODING 4306
SWIDTH 840 0
DWIDTH 7 0
BBX 7 13 0 -2
BITMAP
00
00
00
00
00
70
58
18
3c
66
66
66
3c
ENDCHAR
STARTCHAR GeDon
ENCODING 4307
SWIDTH 840 0
DWIDTH 7 0
BBX 7 13 0 -2
BITMAP
00
00
00
00
00
3c
66
66
66
3c
30
7c
46
ENDCHAR
STARTCHAR GeEn
ENCODING 4308
SWIDTH 840 0
DWIDTH 7 0
BBX 7 13 0 -2
BITMAP
00
00
00
00
00
3c
36
06
06
06
66
66
3c
ENDCHAR
STARTCHAR GeVin
ENCODING 4309
SWIDTH 840 0
DWIDTH 7 0
BBX 7 13 0 -2
BITMAP
00
00
00
00
00
3c
36
06
1c
06
66
66
3c
ENDCHAR
STARTCHAR GeZen
ENCODING 4310
SWIDTH 840 0
DWIDTH 7 0
BBX 7 13 0 -2
BITMAP
00
00
38
6c
6c
28
38
66
66
66
3c
00
00
ENDCHAR
STARTCHAR GeTan
ENCODING 4311
SWIDTH 840 0
DWIDTH 7 0
BBX 7 13 0 -2
BITMAP
00
00
00
00
00
34
7e
6a
6a
7a
32
00
00
ENDCHAR
STARTCHAR GeIn
ENCODING 4312
SWIDTH 840 0
DWIDTH 7 0
BBX 7 13 0 -2
BITMAP
00
00
00
00
00
3c
66
66
66
66
24
00
00
ENDCHAR
STARTCHAR GeKan
ENCODING 4313
SWIDTH 840 0
DWIDTH 7 0
BBX 7 13 0 -2
BITMAP
00
00
00
00
00
06
06
06
1c
06
66
66
3c
ENDCHAR
STARTCHAR GeLas
ENCODING 4314
SWIDTH 840 0
DWIDTH 7 0
BBX 7 13 0 -2
BITMAP
00
00
00
00
00
3c
66
66
66
64
30
7c
46
ENDCHAR
STARTCHAR GeMan
ENCODING 4315
SWIDTH 840 0
DWIDTH 7 0
BBX 7 13 0 -2
BITMAP
00
00
3c
36
06
06
3e
66
66
66
3c
00
00
ENDCHAR
STARTCHAR GeNar
ENCODING 4316
SWIDTH 840 0
DWIDTH 7 0
BBX 7 13 0 -2
BITMAP
00
00
3c
60
60
60
7c
66
66
66
3c
00
00
ENDCHAR
STARTCHAR GeOn
ENCODING 4317
SWIDTH 840 0
DWIDTH 7 0
BBX 7 13 0 -2
BITMAP
00
00
00
00
00
24
7e
5a
5a
42
66
00
00
ENDCHAR
STARTCHAR GePar
ENCODING 4318
SWIDTH 840 0
DWIDTH 7 0
BBX 7 13 0 -2
BITMAP
00
00
20
30
1c
06
1c
0c
66
66
3c
00
00
ENDCHAR
STARTCHAR GeZhar
ENCODING 4319
SWIDTH 840 0
DWIDTH 7 0
BBX 7 13 0 -2
BITMAP
00
00
00
00
00
1e
5e
76
36
06
66
66
3c
ENDCHAR
STARTCHAR GeRae
ENCODING 4320
SWIDTH 840 0
DWIDTH 7 0
BBX 7 13 0 -2
BITMAP
00
00
0c
18
30
64
7e
5a
5a
42
66
00
00
ENDCHAR
STARTCHAR GeSan
ENCODING 4321
SWIDTH 840 0
DWIDTH 7 0
BBX 7 13 0 -2
BITMAP
00
00
60
60
60
66
64
66
66
66
3c
00
00
ENDCHAR
STARTCHAR GeTar
ENCODING 4322
SWIDTH 840 0
DWIDTH 7 0
BBX 7 13 0 -2
BITMAP
00
00
00
00
18
34
6e
76
66
66
66
66
3c
ENDCHAR
STARTCHAR GeUn
ENCODING 4323
SWIDTH 840 0
DWIDTH 7 0
BBX 7 13 0 -2
BITMAP
00
00
00
00
00
6c
7e
36
36
06
66
66
3c
ENDCHAR
STARTCHAR GePhar
ENCODING 4324
SWIDTH 840 0
DWIDTH 7 0
BBX 7 13 0 -2
BITMAP
00
00
00
00
00
2c
7e
56
76
2c
06
36
1c
ENDCHAR
STARTCHAR GeKhar
ENCODING 4325
SWIDTH 840 0
DWIDTH 7 0
BBX 7 13 0 -2
BITMAP
00
00
02
06
06
06
1e
36
26
06
66
66
3c
ENDCHAR
STARTCHAR GeGhan
ENCODING 4326
SWIDTH 840 0
DWIDTH 7 0
BBX 7 13 0 -2
BITMAP
00
00
00
00
00
24
7e
5a
4a
62
30
7c
46
ENDCHAR
STARTCHAR GeQar
ENCODING 4327
SWIDTH 840 0
DWIDTH 7 0
BBX 7 13 0 -2
BITMAP
00
00
00
00
00
66
66
66
3e
06
66
66
3c
ENDCHAR
STARTCHAR GeShin
ENCODING 4328
SWIDTH 840 0
DWIDTH 7 0
BBX 7 13 0 -2
BITMAP
00
00
7c
56
56
06
3e
66
66
66
3c
00
00
ENDCHAR
STARTCHAR GeChin
ENCODING 4329
SWIDTH 840 0
DWIDTH 7 0
BBX 7 13 0 -2
BITMAP
00
00
3c
6c
78
60
7c
66
66
66
66
00
00
ENDCHAR
STARTCHAR GeCan
ENCODING 4330
SWIDTH 840 0
DWIDTH 7 0
BBX 7 13 0 -2
BITMAP
00
00
00
00
00
28
6c
66
66
6c
66
66
3c
ENDCHAR
STARTCHAR GeJil
ENCODING 4331
SWIDTH 840 0
DWIDTH 7 0
BBX 7 13 0 -2
BITMAP
00
00
04
06
06
06
3e
66
66
66
3c
00
00
ENDCHAR
STARTCHAR GeCil
ENCODING 4332
SWIDTH 840 0
DWIDTH 7 0
BBX 7 13 0 -2
BITMAP
00
00
24
7e
5a
5a
40
7e
34
34
18
18
18
ENDCHAR
STARTCHAR GeChar
ENCODING 4333
SWIDTH 840 0
DWIDTH 7 0
BBX 7 13 0 -2
BITMAP
00
00
30
1c
0c
0c
3c
6e
3c
0c
6c
6c
38
ENDCHAR
STARTCHAR GeXan
ENCODING 4334
SWIDTH 840 0
DWIDTH 7 0
BBX 7 13 0 -2
BITMAP
00
00
60
64
6c
68
7c
66
66
66
3c
00
00
ENDCHAR
STARTCHAR GeJhan
ENCODING 4335
SWIDTH 840 0
DWIDTH 7 0
BBX 7 13 0 -2
BITMAP
00
00
00
00
00
62
76
58
1a
6e
66
30
60
ENDCHAR
STARTCHAR GeHae
ENCODING 4336
SWIDTH 840 0
DWIDTH 7 0
BBX 7 13 0 -2
BITMAP
00
00
18
1c
06
1c
06
1c
46
66
3c
00
00
ENDCHAR
STARTCHAR GeHe
ENCODING 4337
SWIDTH 840 0
DWIDTH 7 0
BBX 7 13 0 -2
BITMAP
00
00
68
6e
66
6c
66
6c
66
66
3c
00
00
ENDCHAR
STARTCHAR GeHie
ENCODING 4338
SWIDTH 840 0
DWIDTH 7 0
BBX 7 13 0 -2
BITMAP
00
00
00
00
00
3c
66
66
66
3c
3c
66
00
ENDCHAR
STARTCHAR GeWe
ENCODING 4339
SWIDTH 840 0
DWIDTH 7 0
BBX 7 13 0 -2
BITMAP
00
00
00
00
00
3e
06
0c
18
06
66
66
3c
ENDCHAR
STARTCHAR GeHar
ENCODING 4340
SWIDTH 840 0
DWIDTH 7 0
BBX 7 13 0 -2
BITMAP
00
00
0c
18
18
0e
06
0c
18
06
66
66
3c
ENDCHAR
STARTCHAR GeHoe
ENCODING 4341
SWIDTH 840 0
DWIDTH 7 0
BBX 7 13 0 -2
BITMAP
00
00
38
6c
6c
3e
0c
3e
6c
6c
38
00
00
ENDCHAR
STARTCHAR GeFi
ENCODING 4342
SWIDTH 840 0
DWIDTH 7 0
BBX 7 13 0 -2
BITMAP
00
00
00
00
00
34
5e
5a
5a
5a
1c
18
30
ENDCHAR
STARTCHAR GeYn
ENCODING 4343
SWIDTH 840 0
DWIDTH 7 0
BBX 7 13 0 -2
BITMAP
00
00
00
00
00
3c
36
06
1c
30
66
66
3c
ENDCHAR
STARTCHAR GeElifi
ENCODING 4344
SWIDTH 840 0
DWIDTH 7 0
BBX 7 13 0 -2
BITMAP
00
00
00
00
00
66
66
66
7c
60
66
66
3c
ENDCHAR
STARTCHAR GeGanTrnd
ENCODING 4345
SWIDTH 840 0
DWIDTH 7 0
BBX 7 13 0 -2
BITMAP
00
00
00
00
00
3c
66
66
66
3c
18
1a
0e
ENDCHAR
STARTCHAR GeAin
ENCODING 4346
SWIDTH 840 0
DWIDTH 7 0
BBX 7 13 0 -2
BITMAP
00
00
00
00
00
1c
36
60
60
30
3c
60
00
ENDCHAR
STARTCHAR PGeParSep
ENCODING 4347
SWIDTH 840 0
DWIDTH 7 0
BBX 7 13 0 -2
BITMAP
00
00
00
00
00
60
60
0c
0c
60
60
00
00
ENDCHAR
STARTCHAR SupGeNar
ENCODING 4348
SWIDTH 840 0
DWIDTH 7 0
BBX 7 13 0 -2
BITMAP
3c
60
60
78
6c
6c
38
00
00
00
00
00
00
ENDCHAR
STARTCHAR GeAen
ENCODING 4349
SWIDTH 840 0
DWIDTH 7 0
BBX 7 13 0 -2
BITMAP
00
00
1c
34
30
18
0c
06
66
66
3c
00
00
ENDCHAR
STARTCHAR GeHardSign
ENCODING 4350
SWIDTH 840 0
DWIDTH 7 0
BBX 7 13 0 -2
BITMAP
00
00
00
00
66
3c
3c
66
66
66
3c
00
00
ENDCHAR
STARTCHAR GeLabialSign
ENCODING 4351
SWIDTH 840 0
DWIDTH 7 0
BBX 7 13 0 -2
BITMAP
00
00
00
00
00
3c
66
66
66
66
3c
00
00
ENDCHAR
STARTCHAR SupSmlA
ENCODING 7491
SWIDTH 840 0
DWIDTH 7 0
BBX 7 13 0 -2
BITMAP
00
38
0c
3c
6c
6c
3c
00
00
00
00
00
00
ENDCHAR
STARTCHAR SupSmlB
ENCODING 7495
SWIDTH 840 0
DWIDTH 7 0
BBX 7 13 0 -2
BITMAP
60
60
78
6c
6c
6c
78
00
00
00
00
00
00
ENDCHAR
STARTCHAR SupSmlD
ENCODING 7496
SWIDTH 840 0
DWIDTH 7 0
BBX 7 13 0 -2
BITMAP
0c
0c
3c
6c
6c
6c
3c
00
00
00
00
00
00
ENDCHAR
STARTCHAR SupSmlE
ENCODING 7497
SWIDTH 840 0
DWIDTH 7 0
BBX 7 13 0 -2
BITMAP
00
38
6c
7c
60
6c
38
00
00
00
00
00
00
ENDCHAR
STARTCHAR SupSmlSchwa
ENCODING 7498
SWIDTH 840 0
DWIDTH 7 0
BBX 7 13 0 -2
BITMAP
00
38
6c
0c
7c
6c
38
00
00
00
00
00
00
ENDCHAR
STARTCHAR SupSmlG
ENCODING 7501
SWIDTH 840 0
DWIDTH 7 0
BBX 7 13 0 -2
BITMAP
00
3c
6c
38
10
38
6c
38
00
00
00
00
00
ENDCHAR
STARTCHAR SupSmlK
ENCODING 7503
SWIDTH 840 0
DWIDTH 7 0
BBX 7 13 0 -2
BITMAP
60
60
6c
68
78
6c
6c
00
00
00
00
00
00
ENDCHAR
STARTCHAR SupSmlM
ENCODING 7504
SWIDTH 840 0
DWIDTH 7 0
BBX 7 13 0 -2
BITMAP
00
54
7e
6a
6a
6a
6a
00
00
00
00
00
00
ENDCHAR
STARTCHAR SupSmlO
ENCODING 7506
SWIDTH 840 0
DWIDTH 7 0
BBX 7 13 0 -2
BITMAP
00
38
6c
6c
6c
6c
38
00
00
00
00
00
00
ENDCHAR
STARTCHAR SupSmlP
ENCODING 7510
SWIDTH 840 0
DWIDTH 7 0
BBX 7 13 0 -2
BITMAP
00
78
6c
6c
6c
78
60
60
00
00
00
00
00
ENDCHAR
STARTCHAR SupSmlT
ENCODING 7511
SWIDTH 840 0
DWIDTH 7 0
BBX 7 13 0 -2
BITMAP
30
30
7c
30
30
34
1c
00
00
00
00
00
00
ENDCHAR
STARTCHAR SupSmlU
ENCODING 7512
SWIDTH 840 0
DWIDTH 7 0
BBX 7 13 0 -2
BITMAP
00
6c
6c
6c
6c
6c
34
00
00
00
00
00
00
ENDCHAR
STARTCHAR SupSmlV
ENCODING 7515
SWIDTH 840 0
DWIDTH 7 0
BBX 7 13 0 -2
BITMAP
00
64
6c
38
38
10
10
00
00
00
00
00
00
ENDCHAR
STARTCHAR SubSmlI
ENCODING 7522
SWIDTH 840 0
DWIDTH 7 0
BBX 7 13 0 -2
BITMAP
00
00
00
00
00
18
00
38
18
18
18
3c
00
ENDCHAR
STARTCHAR SubSmlR
ENCODING 7523
SWIDTH 840 0
DWIDTH 7 0
BBX 7 13 0 -2
BITMAP
00
00
00
00
00
00
5c
6c
60
60
60
60
00
ENDCHAR
STARTCHAR SubSmlU
ENCODING 7524
SWIDTH 840 0
DWIDTH 7 0
BBX 7 13 0 -2
BITMAP
00
00
00
00
00
00
6c
6c
6c
6c
6c
34
00
ENDCHAR
STARTCHAR SubSmlV
ENCODING 7525
SWIDTH 840 0
DWIDTH 7 0
BBX 7 13 0 -2
BITMAP
00
00
00
00
00
00
64
6c
38
38
10
10
00
ENDCHAR
STARTCHAR SupSmlC
ENCODING 7580
SWIDTH 840 0
DWIDTH 7 0
BBX 7 13 0 -2
BITMAP
00
38
6c
60
60
6c
38
00
00
00
00
00
00
ENDCHAR
STARTCHAR SupSmlF
ENCODING 7584
SWIDTH 840 0
DWIDTH 7 0
BBX 7 13 0 -2
BITMAP
1c
34
30
7c
30
30
30
00
00
00
00
00
00
ENDCHAR
STARTCHAR SupSmlZ
ENCODING 7611
SWIDTH 840 0
DWIDTH 7 0
BBX 7 13 0 -2
BITMAP
00
7c
4c
18
30
64
7c
00
00
00
00
00
00
ENDCHAR
STARTCHAR LtCapALring
ENCODING 7680
SWIDTH 840 0
DWIDTH 7 0
BBX 7 13 0 -2
BITMAP
00
00
18
18
18
3c
2c
2c
7e
46
5e
34
18
ENDCHAR
STARTCHAR LtSmlALring
ENCODING 7681
SWIDTH 840 0
DWIDTH 7 0
BBX 7 13 0 -2
BITMAP
00
00
00
00
3c
36
06
3e
66
66
3e
34
18
ENDCHAR
STARTCHAR LtCapBDot
ENCODING 7682
SWIDTH 840 0
DWIDTH 7 0
BBX 7 13 0 -2
BITMAP
18
18
00
7c
66
66
7c
66
66
66
7c
00
00
ENDCHAR
STARTCHAR LtSmlBDot
ENCODING 7683
SWIDTH 840 0
DWIDTH 7 0
BBX 7 13 0 -2
BITMAP
18
18
40
60
6c
76
66
66
66
76
6c
00
00
ENDCHAR
STARTCHAR LtCapBLdot
ENCODING 7684
SWIDTH 840 0
DWIDTH 7 0
BBX 7 13 0 -2
BITMAP
00
00
7c
66
66
64
7c
66
66
66
7c
00
18
ENDCHAR
STARTCHAR LtSmlBLdot
ENCODING 7685
SWIDTH 840 0
DWIDTH 7 0
BBX 7 13 0 -2
BITMAP
00
60
60
60
6c
76
66
66
66
76
6c
00
18
ENDCHAR
STARTCHAR LtCapBLmacron
ENCODING 7686
SWIDTH 840 0
DWIDTH 7 0
BBX 7 13 0 -2
BITMAP
00
00
7c
66
66
64
7c
66
66
66
7c
00
7c
ENDCHAR
STARTCHAR LtSmlBLmacron
ENCODING 7687
SWIDTH 840 0
DWIDTH 7 0
BBX 7 13 0 -2
BITMAP
00
60
60
60
6c
76
66
66
66
76
6c
00
7e
ENDCHAR
STARTCHAR LtCapCAcuteCedilla
ENCODING 7688
SWIDTH 840 0
DWIDTH 7 0
BBX 7 13 0 -2
BITMAP
0e
18
00
1c
36
60
60
60
60
36
1c
18
30
ENDCHAR
STARTCHAR LtSmlCAcuteCedilla
ENCODING 7689
SWIDTH 840 0
DWIDTH 7 0
BBX 7 13 0 -2
BITMAP
06
0c
08
00
3c
66
60
60
60
66
3c
18
30
ENDCHAR
STARTCHAR LtCapDDot
ENCODING 7690
SWIDTH 840 0
DWIDTH 7 0
BBX 7 13 0 -2
BITMAP
30
30
00
78
64
66
66
66
66
64
78
00
00
ENDCHAR
STARTCHAR LtSmlDDot
ENCODING 7691
SWIDTH 840 0
DWIDTH 7 0
BBX 7 13 0 -2
BITMAP
18
18
02
06
36
6e
66
66
66
6e
36
00
00
ENDCHAR
STARTCHAR LtCapDLdot
ENCODING 7692
SWIDTH 840 0
DWIDTH 7 0
BBX 7 13 0 -2
BITMAP
00
00
78
64
66
66
66
66
66
64
78
00
30
ENDCHAR
STARTCHAR LtSmlDLdot
ENCODING 7693
SWIDTH 840 0
DWIDTH 7 0
BBX 7 13 0 -2
BITMAP
00
06
06
06
36
6e
66
66
66
6e
36
00
18
ENDCHAR
STARTCHAR LtCapDLmacron
ENCODING 7694
SWIDTH 840 0
DWIDTH 7 0
BBX 7 13 0 -2
BITMAP
00
00
78
64
66
66
66
66
66
64
78
00
7c
ENDCHAR
STARTCHAR LtSmlDLmacron
ENCODING 7695
SWIDTH 840 0
DWIDTH 7 0
BBX 7 13 0 -2
BITMAP
00
06
06
06
36
6e
66
66
66
6e
36
00
7e
ENDCHAR
STARTCHAR LtCapDComma
ENCODING 7696
SWIDTH 840 0
DWIDTH 7 0
BBX 7 13 0 -2
BITMAP
00
00
78
64
66
66
66
66
66
64
78
30
60
ENDCHAR
STARTCHAR LtSmlDComma
ENCODING 7697
SWIDTH 840 0
DWIDTH 7 0
BBX 7 13 0 -2
BITMAP
00
06
06
06
36
6e
66
66
66
6e
36
30
60
ENDCHAR
STARTCHAR LtCapDLcircum
ENCODING 7698
SWIDTH 840 0
DWIDTH 7 0
BBX 7 13 0 -2
BITMAP
00
00
78
64
66
66
66
66
66
64
78
18
2c
ENDCHAR
STARTCHAR LtSmlDLcircum
ENCODING 7699
SWIDTH 840 0
DWIDTH 7 0
BBX 7 13 0 -2
BITMAP
00
06
06
06
36
6e
66
66
66
6e
36
18
2c
ENDCHAR
STARTCHAR LtCapEMacronGrave
ENCODING 7700
SWIDTH 840 0
DWIDTH 7 0
BBX 7 13 0 -2
BITMAP
0c
3e
00
7e
62
60
7c
64
60
62
7e
00
00
ENDCHAR
STARTCHAR LtSmlEMacronGrave
ENCODING 7701
SWIDTH 840 0
DWIDTH 7 0
BBX 7 13 0 -2
BITMAP
38
0c
3e
00
3c
66
66
7e
60
66
3c
00
00
ENDCHAR
STARTCHAR LtCapEMacronAcute
ENCODING 7702
SWIDTH 840 0
DWIDTH 7 0
BBX 7 13 0 -2
BITMAP
18
3e
00
7e
62
60
7c
64
60
62
7e
00
00
ENDCHAR
STARTCHAR LtSmlEMacronAcute
ENCODING 7703
SWIDTH 840 0
DWIDTH 7 0
BBX 7 13 0 -2
BITMAP
0e
18
3e
00
3c
66
66
7e
60
66
3c
00
00
ENDCHAR
STARTCHAR LtCapELcircum
ENCODING 7704
SWIDTH 840 0
DWIDTH 7 0
BBX 7 13 0 -2
BITMAP
00
00
7e
62
60
64
7c
64
60
62
7e
18
2c
ENDCHAR
STARTCHAR LtSmlELcircum
ENCODING 7705
SWIDTH 840 0
DWIDTH 7 0
BBX 7 13 0 -2
BITMAP
00
00
00
00
3c
66
66
7e
60
66
3c
18
2c
ENDCHAR
STARTCHAR LtCapELtilde
ENCODING 7706
SWIDTH 840 0
DWIDTH 7 0
BBX 7 13 0 -2
BITMAP
00
00
7e
62
60
64
7c
64
60
62
7e
36
5c
ENDCHAR
STARTCHAR LtSmlELtilde
ENCODING 7707
SWIDTH 840 0
DWIDTH 7 0
BBX 7 13 0 -2
BITMAP
00
00
00
00
3c
66
66
7e
60
66
3c
36
5c
ENDCHAR
STARTCHAR LtCapEBreveCedilla
ENCODING 7708
SWIDTH 840 0
DWIDTH 7 0
BBX 7 13 0 -2
BITMAP
36
1c
00
7e
62
60
7c
64
60
62
7e
18
30
ENDCHAR
STARTCHAR LtSmlEBreveCedilla
ENCODING 7709
SWIDTH 840 0
DWIDTH 7 0
BBX 7 13 0 -2
BITMAP
00
36
1c
00
3c
66
66
7e
60
66
3c
18
30
ENDCHAR
STARTCHAR LtCapFDot
ENCODING 7710
SWIDTH 840 0
DWIDTH 7 0
BBX 7 13 0 -2
BITMAP
18
18
00
7e
62
60
7c
64
60
60
60
00
00
ENDCHAR
STARTCHAR LtSmlFDot
ENCODING 7711
SWIDTH 840 0
DWIDTH 7 0
BBX 7 13 0 -2
BITMAP
0c
04
0e
1a
18
7e
18
18
18
18
18
00
00
ENDCHAR
STARTCHAR LtCapGMacron
ENCODING 7712
SWIDTH 840 0
DWIDTH 7 0
BBX 7 13 0 -2
BITMAP
3c
3c
00
1c
36
60
60
6e
66
36
1e
00
00
ENDCHAR
STARTCHAR LtSmlGMacron
ENCODING 7713
SWIDTH 840 0
DWIDTH 7 0
BBX 7 13 0 -2
BITMAP
00
3c
3c
00
3e
66
66
66
6e
36
06
66
3c
ENDCHAR
STARTCHAR LtCapHDot
ENCODING 7714
SWIDTH 840 0
DWIDTH 7 0
BBX 7 13 0 -2
BITMAP
18
18
66
66
66
66
7e
66
66
66
66
00
00
ENDCHAR
STARTCHAR LtSmlHDot
ENCODING 7715
SWIDTH 840 0
DWIDTH 7 0
BBX 7 13 0 -2
BITMAP
0c
6c
60
60
6c
76
66
66
66
66
66
00
00
ENDCHAR
STARTCHAR LtCapHLdot
ENCODING 7716
SWIDTH 840 0
DWIDTH 7 0
BBX 7 13 0 -2
BITMAP
00
00
66
66
66
66
7e
66
66
66
66
00
18
ENDCHAR
STARTCHAR LtSmlHLdot
ENCODING 7717
SWIDTH 840 0
DWIDTH 7 0
BBX 7 13 0 -2
BITMAP
00
60
60
60
6c
76
66
66
66
66
66
00
18
ENDCHAR
STARTCHAR LtCapHDrss
ENCODING 7718
SWIDTH 840 0
DWIDTH 7 0
BBX 7 13 0 -2
BITMAP
36
36
00
66
66
66
7e
66
66
66
66
00
00
ENDCHAR
STARTCHAR LtSmlHDrss
ENCODING 7719
SWIDTH 840 0
DWIDTH 7 0
BBX 7 13 0 -2
BITMAP
36
36
40
60
6c
76
66
66
66
66
66
00
00
ENDCHAR
STARTCHAR LtCapHCedilla
ENCODING 7720
SWIDTH 840 0
DWIDTH 7 0
BBX 7 13 0 -2
BITMAP
00
00
66
66
66
66
7e
66
66
66
66
18
30
ENDCHAR
STARTCHAR LtSmlHCedilla
ENCODING 7721
SWIDTH 840 0
DWIDTH 7 0
BBX 7 13 0 -2
BITMAP
00
60
60
60
6c
76
66
66
66
66
66
18
30
ENDCHAR
STARTCHAR LtCapHLbreve
ENCODING 7722
SWIDTH 840 0
DWIDTH 7 0
BBX 7 13 0 -2
BITMAP
00
00
66
66
66
66
7e
66
66
66
42
2c
18
ENDCHAR
STARTCHAR LtSmlHLbreve
ENCODING 7723
SWIDTH 840 0
DWIDTH 7 0
BBX 7 13 0 -2
BITMAP
00
60
60
60
6c
76
66
66
66
66
42
2c
18
ENDCHAR
STARTCHAR LtCapILtilde
ENCODING 7724
SWIDTH 840 0
DWIDTH 7 0
BBX 7 13 0 -2
BITMAP
00
00
7e
18
18
18
18
18
18
18
7e
36
5c
ENDCHAR
STARTCHAR LtSmlILtilde
ENCODING 7725
SWIDTH 840 0
DWIDTH 7 0
BBX 7 13 0 -2
BITMAP
00
18
18
00
38
18
18
18
18
18
7e
36
5c
ENDCHAR
STARTCHAR LtCapIDrssAcute
ENCODING 7726
SWIDTH 840 0
DWIDTH 7 0
BBX 7 13 0 -2
BITMAP
0c
5a
66
00
7e
18
18
18
18
18
7e
00
00
ENDCHAR
STARTCHAR LtSmlIDrssAcute
ENCODING 7727
SWIDTH 840 0
DWIDTH 7 0
BBX 7 13 0 -2
BITMAP
0c
5a
66
00
38
18
18
18
18
18
7e
00
00
ENDCHAR
STARTCHAR LtCapKAcute
ENCODING 7728
SWIDTH 840 0
DWIDTH 7 0
BBX 7 13 0 -2
BITMAP
0e
18
00
66
64
68
78
78
6c
66
66
00
00
ENDCHAR
STARTCHAR LtSmlKAcute
ENCODING 7729
SWIDTH 840 0
DWIDTH 7 0
BBX 7 13 0 -2
BITMAP
0c
18
50
60
66
64
68
78
6c
66
66
00
00
ENDCHAR
STARTCHAR LtCapKLdot
ENCODING 7730
SWIDTH 840 0
DWIDTH 7 0
BBX 7 13 0 -2
BITMAP
00
00
66
64
68
78
78
6c
6c
66
66
00
18
ENDCHAR
STARTCHAR LtSmlKLdot
ENCODING 7731
SWIDTH 840 0
DWIDTH 7 0
BBX 7 13 0 -2
BITMAP
00
60
60
60
66
64
68
78
6c
66
66
00
18
ENDCHAR
STARTCHAR LtCapKLmacron
ENCODING 7732
SWIDTH 840 0
DWIDTH 7 0
BBX 7 13 0 -2
BITMAP
00
00
66
64
68
78
78
6c
6c
66
66
00
7e
ENDCHAR
STARTCHAR LtSmlKLmacron
ENCODING 7733
SWIDTH 840 0
DWIDTH 7 0
BBX 7 13 0 -2
BITMAP
00
60
60
60
66
64
68
78
6c
66
66
00
7e
ENDCHAR
STARTCHAR LtCapLLdot
ENCODING 7734
SWIDTH 840 0
DWIDTH 7 0
BBX 7 13 0 -2
BITMAP
00
00
60
60
60
60
60
60
60
62
7e
00
18
ENDCHAR
STARTCHAR LtSmlLLdot
ENCODING 7735
SWIDTH 840 0
DWIDTH 7 0
BBX 7 13 0 -2
BITMAP
00
38
18
18
18
18
18
18
18
18
7e
00
18
ENDCHAR
STARTCHAR LtCapLMacronLdot
ENCODING 7736
SWIDTH 840 0
DWIDTH 7 0
BBX 7 13 0 -2
BITMAP
78
78
00
60
60
60
60
60
60
62
7e
00
18
ENDCHAR
STARTCHAR LtSmlLMacronLdot
ENCODING 7737
SWIDTH 840 0
DWIDTH 7 0
BBX 7 13 0 -2
BITMAP
7c
00
38
18
18
18
18
18
18
18
7e
00
18
ENDCHAR
STARTCHAR LtCapLLmacron
ENCODING 7738
SWIDTH 840 0
DWIDTH 7 0
BBX 7 13 0 -2
BITMAP
00
00
60
60
60
60
60
60
60
62
7e
00
7e
ENDCHAR
STARTCHAR LtSmlLLmacron
ENCODING 7739
SWIDTH 840 0
DWIDTH 7 0
BBX 7 13 0 -2
BITMAP
00
38
18
18
18
18
18
18
18
18
7e
00
7e
ENDCHAR
STARTCHAR LtCapLLcircum
ENCODING 7740
SWIDTH 840 0
DWIDTH 7 0
BBX 7 13 0 -2
BITMAP
00
00
60
60
60
60
60
60
60
62
7e
18
2c
ENDCHAR
STARTCHAR LtSmlLLcircum
ENCODING 7741
SWIDTH 840 0
DWIDTH 7 0
BBX 7 13 0 -2
BITMAP
00
38
18
18
18
18
18
18
18
18
7e
18
2c
ENDCHAR
STARTCHAR LtCapMAcute
ENCODING 7742
SWIDTH 840 0
DWIDTH 7 0
BBX 7 13 0 -2
BITMAP
0e
18
42
66
7e
7e
56
56
46
46
46
00
00
ENDCHAR
STARTCHAR LtSmlMAcute
ENCODING 7743
SWIDTH 840 0
DWIDTH 7 0
BBX 7 13 0 -2
BITMAP
0c
18
10
00
6c
7e
7e
6a
6a
6a
6a
00
00
ENDCHAR
STARTCHAR LtCapMDot
ENCODING 7744
SWIDTH 840 0
DWIDTH 7 0
BBX 7 13 0 -2
BITMAP
18
18
42
66
7e
7e
56
56
46
46
46
00
00
ENDCHAR
STARTCHAR LtSmlMDot
ENCODING 7745
SWIDTH 840 0
DWIDTH 7 0
BBX 7 13 0 -2
BITMAP
00
18
18
00
6c
7e
7e
6a
6a
6a
6a
00
00
ENDCHAR
STARTCHAR LtCapMLdot
ENCODING 7746
SWIDTH 840 0
DWIDTH 7 0
BBX 7 13 0 -2
BITMAP
00
00
42
66
7e
7e
56
56
46
46
46
00
18
ENDCHAR
STARTCHAR LtSmlMLdot
ENCODING 7747
SWIDTH 840 0
DWIDTH 7 0
BBX 7 13 0 -2
BITMAP
00
00
00
00
6c
7e
7e
6a
6a
6a
6a
00
18
ENDCHAR
STARTCHAR LtCapNDot
ENCODING 7748
SWIDTH 840 0
DWIDTH 7 0
BBX 7 13 0 -2
BITMAP
18
18
00
62
72
72
5a
5a
4e
4e
46
00
00
ENDCHAR
STARTCHAR LtSmlNDot
ENCODING 7749
SWIDTH 840 0
DWIDTH 7 0
BBX 7 13 0 -2
BITMAP
00
18
18
00
6c
76
66
66
66
66
66
00
00
ENDCHAR
STARTCHAR LtCapNLdot
ENCODING 7750
SWIDTH 840 0
DWIDTH 7 0
BBX 7 13 0 -2
BITMAP
00
00
62
72
72
5a
5a
4e
4e
46
46
00
18
ENDCHAR
STARTCHAR LtSmlNLdot
ENCODING 7751
SWIDTH 840 0
DWIDTH 7 0
BBX 7 13 0 -2
BITMAP
00
00
00
00
6c
76
66
66
66
66
66
00
18
ENDCHAR
STARTCHAR LtCapNLmacron
ENCODING 7752
SWIDTH 840 0
DWIDTH 7 0
BBX 7 13 0 -2
BITMAP
00
00
62
72
72
5a
5a
4e
4e
46
46
00
7e
ENDCHAR
STARTCHAR LtSmlNLmacron
ENCODING 7753
SWIDTH 840 0
DWIDTH 7 0
BBX 7 13 0 -2
BITMAP
00
00
00
00
6c
76
66
66
66
66
66
00
7e
ENDCHAR
STARTCHAR LtCapNLcircum
ENCODING 7754
SWIDTH 840 0
DWIDTH 7 0
BBX 7 13 0 -2
BITMAP
00
00
62
72
72
5a
5a
4e
4e
46
46
18
2c
ENDCHAR
STARTCHAR LtSmlNLcircum
ENCODING 7755
SWIDTH 840 0
DWIDTH 7 0
BBX 7 13 0 -2
BITMAP
00
00
00
00
6c
76
66
66
66
66
66
18
2c
ENDCHAR
STARTCHAR LtCapOTildeAcute
ENCODING 7756
SWIDTH 840 0
DWIDTH 7 0
BBX 7 13 0 -2
BITMAP
18
32
5c
3c
66
66
66
66
66
66
3c
00
00
ENDCHAR
STARTCHAR LtSmlOTildeAcute
ENCODING 7757
SWIDTH 840 0
DWIDTH 7 0
BBX 7 13 0 -2
BITMAP
18
32
5c
00
3c
66
66
66
66
66
3c
00
00
ENDCHAR
STARTCHAR LtCapOTildeDrss
ENCODING 7758
SWIDTH 840 0
DWIDTH 7 0
BBX 7 13 0 -2
BITMAP
66
32
5c
3c
66
66
66
66
66
66
3c
00
00
ENDCHAR
STARTCHAR LtSmlOTildeDrss
ENCODING 7759
SWIDTH 840 0
DWIDTH 7 0
BBX 7 13 0 -2
BITMAP
66
32
5c
00
3c
66
66
66
66
66
3c
00
00
ENDCHAR
STARTCHAR LtCapOMacronGrave
ENCODING 7760
SWIDTH 840 0
DWIDTH 7 0
BBX 7 13 0 -2
BITMAP
0c
3e
00
3c
66
66
66
66
66
66
3c
00
00
ENDCHAR
STARTCHAR LtSmlOMacronGrave
ENCODING 7761
SWIDTH 840 0
DWIDTH 7 0
BBX 7 13 0 -2
BITMAP
38
0c
3e
00
3c
66
66
66
66
66
3c
00
00
ENDCHAR
STARTCHAR LtCapOMacronAcute
ENCODING 7762
SWIDTH 840 0
DWIDTH 7 0
BBX 7 13 0 -2
BITMAP
18
3e
00
3c
66
66
66
66
66
66
3c
00
00
ENDCHAR
STARTCHAR LtSmlOMacronAcute
ENCODING 7763
SWIDTH 840 0
DWIDTH 7 0
BBX 7 13 0 -2
BITMAP
0e
18
3e
00
3c
66
66
66
66
66
3c
00
00
ENDCHAR
STARTCHAR LtCapPAcute
ENCODING 7764
SWIDTH 840 0
DWIDTH 7 0
BBX 7 13 0 -2
BITMAP
0e
18
00
7c
66
66
66
7c
60
60
60
00
00
ENDCHAR
STARTCHAR LtSmlPAcute
ENCODING 7765
SWIDTH 840 0
DWIDTH 7 0
BBX 7 13 0 -2
BITMAP
0c
18
10
00
6c
76
66
66
66
76
6c
60
60
ENDCHAR
STARTCHAR LtCapPDot
ENCODING 7766
SWIDTH 840 0
DWIDTH 7 0
BBX 7 13 0 -2
BITMAP
18
18
00
7c
66
66
66
7c
60
60
60
00
00
ENDCHAR
STARTCHAR LtSmlPDot
ENCODING 7767
SWIDTH 840 0
DWIDTH 7 0
BBX 7 13 0 -2
BITMAP
00
18
18
00
6c
76
66
66
66
76
6c
60
60
ENDCHAR
STARTCHAR LtCapRDot
ENCODING 7768
SWIDTH 840 0
DWIDTH 7 0
BBX 7 13 0 -2
BITMAP
18
18
00
7c
66
66
7c
68
6c
66
66
00
00
ENDCHAR
STARTCHAR LtSmlRDot
ENCODING 7769
SWIDTH 840 0
DWIDTH 7 0
BBX 7 13 0 -2
BITMAP
00
18
18
00
76
3e
30
30
30
30
30
00
00
ENDCHAR
STARTCHAR LtCapRLdot
ENCODING 7770
SWIDTH 840 0
DWIDTH 7 0
BBX 7 13 0 -2
BITMAP
00
00
7c
66
66
66
7c
68
6c
66
66
00
18
ENDCHAR
STARTCHAR LtSmlRLdot
ENCODING 7771
SWIDTH 840 0
DWIDTH 7 0
BBX 7 13 0 -2
BITMAP
00
00
00
00
76
3e
30
30
30
30
30
00
30
ENDCHAR
STARTCHAR LtCapRMacronLdot
ENCODING 7772
SWIDTH 840 0
DWIDTH 7 0
BBX 7 13 0 -2
BITMAP
3c
3c
00
7c
66
66
7c
68
6c
66
66
00
18
ENDCHAR
STARTCHAR LtSmlRMacronLdot
ENCODING 7773
SWIDTH 840 0
DWIDTH 7 0
BBX 7 13 0 -2
BITMAP
00
3c
3c
00
76
3e
30
30
30
30
30
00
30
ENDCHAR
STARTCHAR LtCapRLmacron
ENCODING 7774
SWIDTH 840 0
DWIDTH 7 0
BBX 7 13 0 -2
BITMAP
00
00
7c
66
66
66
7c
68
6c
66
66
00
7e
ENDCHAR
STARTCHAR LtSmlRLmacron
ENCODING 7775
SWIDTH 840 0
DWIDTH 7 0
BBX 7 13 0 -2
BITMAP
00
00
00
00
76
3e
30
30
30
30
30
00
7c
ENDCHAR
STARTCHAR LtCapSDot
ENCODING 7776
SWIDTH 840 0
DWIDTH 7 0
BBX 7 13 0 -2
BITMAP
18
18
00
3c
66
60
38
1c
06
66
3c
00
00
ENDCHAR
STARTCHAR LtSmlSDot
ENCODING 7777
SWIDTH 840 0
DWIDTH 7 0
BBX 7 13 0 -2
BITMAP
00
18
18
00
3c
66
60
3c
06
66
3c
00
00
ENDCHAR
STARTCHAR LtCapSLdot
ENCODING 7778
SWIDTH 840 0
DWIDTH 7 0
BBX 7 13 0 -2
BITMAP
00
00
3c
66
60
70
3c
0e
06
66
3c
00
18
ENDCHAR
STARTCHAR LtSmlSLdot
ENCODING 7779
SWIDTH 840 0
DWIDTH 7 0
BBX 7 13 0 -2
BITMAP
00
00
00
00
3c
66
60
3c
06
66
3c
00
18
ENDCHAR
STARTCHAR LtCapSAcuteDot
ENCODING 7780
SWIDTH 840 0
DWIDTH 7 0
BBX 7 13 0 -2
BITMAP
30
0e
18
3c
66
60
38
1c
06
66
3c
00
00
ENDCHAR
STARTCHAR LtSmlSAcuteDot
ENCODING 7781
SWIDTH 840 0
DWIDTH 7 0
BBX 7 13 0 -2
BITMAP
30
30
0e
18
3c
66
60
3c
06
66
3c
00
00
ENDCHAR
STARTCHAR LtCapSCaronDot
ENCODING 7782
SWIDTH 840 0
DWIDTH 7 0
BBX 7 13 0 -2
BITMAP
6a
34
18
3c
66
60
38
1c
06
66
3c
00
00
ENDCHAR
STARTCHAR LtSmlSCaronDot
ENCODING 7783
SWIDTH 840 0
DWIDTH 7 0
BBX 7 13 0 -2
BITMAP
08
6a
34
18
3c
66
60
3c
06
66
3c
00
00
ENDCHAR
STARTCHAR LtCapSDotLdot
ENCODING 7784
SWIDTH 840 0
DWIDTH 7 0
BBX 7 13 0 -2
BITMAP
18
18
00
3c
66
60
38
1c
06
66
3c
00
18
ENDCHAR
STARTCHAR LtSmlSDotLdot
ENCODING 7785
SWIDTH 840 0
DWIDTH 7 0
BBX 7 13 0 -2
BITMAP
00
18
18
00
3c
66
60
3c
06
66
3c
00
18
ENDCHAR
STARTCHAR LtCapTDot
ENCODING 7786
SWIDTH 840 0
DWIDTH 7 0
BBX 7 13 0 -2
BITMAP
18
18
00
7e
5a
18
18
18
18
18
18
00
00
ENDCHAR
STARTCHAR LtSmlTDot
ENCODING 7787
SWIDTH 840 0
DWIDTH 7 0
BBX 7 13 0 -2
BITMAP
30
30
00
30
7c
30
30
30
30
36
1c
00
00
ENDCHAR
STARTCHAR LtCapTLdot
ENCODING 7788
SWIDTH 840 0
DWIDTH 7 0
BBX 7 13 0 -2
BITMAP
00
00
7e
5a
18
18
18
18
18
18
18
00
18
ENDCHAR
ENDFONT
